<svg xmlns="http://www.w3.org/2000/svg" width="400" height="169.093" viewBox="0 0 400 169.093">
  <g id="Grupo_1210908" data-name="Grupo 1210908" transform="translate(-1020 -2785.179)">
    <g id="Grupo_1202609" data-name="Grupo 1202609" transform="translate(1020 2802.606)">
      <rect id="Rectángulo_417990" data-name="Rectángulo 417990" width="400" height="133.666" rx="5" transform="translate(0 9)" fill="#5c2c88"/>
      <rect id="Rectángulo_417989" data-name="Rectángulo 417989" width="318" height="151.666" rx="5" transform="translate(41)" fill="#11f5d8"/>
    </g>
    <g id="_06-Programmer" data-name="06-Programmer" transform="translate(1135.454 2785.179)">
      <g id="Grupo_1210212" data-name="Grupo 1210212" transform="translate(0 8.455)">
        <path id="Trazado_1049829" data-name="Trazado 1049829" d="M32,200H48.909V304.274H32Z" transform="translate(-26.364 -143.636)" fill="#ffdb43"/>
        <path id="Trazado_1049830" data-name="Trazado 1049830" d="M336,224h25.364a11.273,11.273,0,0,1,11.273,11.273v2.818H355.791l-.063,5.636H336Z" transform="translate(-223.272 -159.181)" fill="#ffdb43"/>
        <path id="Trazado_1049831" data-name="Trazado 1049831" d="M204.637,224H179.273A11.273,11.273,0,0,0,168,235.273v2.818h16.846l.063,5.636h19.728Z" transform="translate(-114.454 -159.181)" fill="#ffdb43"/>
        <path id="Trazado_1049832" data-name="Trazado 1049832" d="M198.91,272l34.217,9.5a22.546,22.546,0,0,1,16.511,21.725v44.862H120V303.229A22.546,22.546,0,0,1,136.513,281.5l34.215-9.5Z" transform="translate(-83.363 -190.272)" fill="#ffdb43"/>
        <path id="Trazado_1049833" data-name="Trazado 1049833" d="M16,40H61.091a5.636,5.636,0,0,1,5.636,5.636V85.091a5.636,5.636,0,0,1-5.636,5.636H16Z" transform="translate(-16 -40)" fill="#ffdb43"/>
      </g>
      <path id="Trazado_1049834" data-name="Trazado 1049834" d="M66.728,45.636v2.818H16V40H61.091A5.636,5.636,0,0,1,66.728,45.636Z" transform="translate(-16 -31.545)" fill="#40c6f3"/>
      <circle id="Elipse_12657" data-name="Elipse 12657" cx="5.621" cy="5.621" r="5.621" transform="translate(118.66 144.112)" fill="#8b5e3c"/>
      <path id="Trazado_1049835" data-name="Trazado 1049835" d="M280,280h16.909v73.274H280Z" transform="translate(-186.999 -186.999)" fill="#40c6f3"/>
      <path id="Trazado_1049836" data-name="Trazado 1049836" d="M294.546,231.98v14.1a11.273,11.273,0,0,1-22.546,0v-14.1Z" transform="translate(-181.817 -155.895)" fill="#febf91"/>
      <path id="Trazado_1049837" data-name="Trazado 1049837" d="M376,112h2.818a8.455,8.455,0,0,1,0,16.909H376Z" transform="translate(-249.18 -78.181)" fill="#febf91"/>
      <path id="Trazado_1049838" data-name="Trazado 1049838" d="M211.273,128.909h-2.818a8.455,8.455,0,1,1,0-16.909h2.818Z" transform="translate(-135.181 -78.181)" fill="#febf91"/>
      <rect id="Rectángulo_419608" data-name="Rectángulo 419608" width="51.211" height="67.449" rx="25.606" transform="translate(76.192 14.211)" fill="#fecca8"/>
      <path id="Trazado_1049839" data-name="Trazado 1049839" d="M340.182,52.182A28.182,28.182,0,0,1,312,24h5.636a22.546,22.546,0,0,1,22.546,22.546Z" transform="translate(-207.726 -21.182)" fill="#6e3515"/>
      <path id="Trazado_1049840" data-name="Trazado 1049840" d="M224.909,49.364A25.364,25.364,0,0,0,250.273,24H230.546A22.546,22.546,0,0,0,208,46.546v2.818Z" transform="translate(-140.363 -21.182)" fill="#6e3515"/>
      <path id="Trazado_1049841" data-name="Trazado 1049841" d="M350.546,224a5.636,5.636,0,0,1,5.636,5.636v2.818a5.636,5.636,0,0,1-5.636,5.636A22.546,22.546,0,0,0,328,260.637v14.091a25.364,25.364,0,0,1,25.364-25.364h2.818a11.273,11.273,0,0,0,11.273-11.273v-2.818A11.273,11.273,0,0,0,356.182,224Z" transform="translate(-218.09 -150.727)" fill="#ffdb43"/>
      <circle id="Elipse_12658" data-name="Elipse 12658" cx="5.621" cy="5.621" r="5.621" transform="translate(73.694 144.112)" fill="#8b5e3c"/>
      <path id="Trazado_1049842" data-name="Trazado 1049842" d="M184.909,224a5.636,5.636,0,0,0-5.636,5.636v2.818a5.636,5.636,0,0,0,5.636,5.636,22.546,22.546,0,0,1,22.546,22.546v14.091a25.364,25.364,0,0,0-25.364-25.364h-2.818A11.273,11.273,0,0,1,168,238.091v-2.818A11.273,11.273,0,0,1,179.273,224Z" transform="translate(-114.454 -150.727)" fill="#ffdb43"/>
      <path id="Trazado_1049843" data-name="Trazado 1049843" d="M61.091,32H16v5.636H61.091a2.821,2.821,0,0,1,2.818,2.818v2.818H16v5.636H63.91v31a2.821,2.821,0,0,1-2.818,2.818H16v5.636H61.091a8.464,8.464,0,0,0,8.455-8.455V40.455A8.464,8.464,0,0,0,61.091,32Z" transform="translate(-16 -26.364)"/>
      <path id="Trazado_1049844" data-name="Trazado 1049844" d="M110.329,119.238l8.455-8.455a2.818,2.818,0,0,0,0-3.986l-8.455-8.455-3.986,3.986,6.462,6.462-6.462,6.462Z" transform="translate(-74.517 -69.336)"/>
      <path id="Trazado_1049845" data-name="Trazado 1049845" d="M25.28,98.343,16.825,106.8a2.818,2.818,0,0,0,0,3.986l8.455,8.455,3.986-3.986L22.8,108.79l6.462-6.462Z" transform="translate(-16 -69.336)"/>
      <path id="Trazado_1049846" data-name="Trazado 1049846" d="M0,0H25.207V5.636H0Z" transform="translate(14.367 49.465) rotate(-63.435)"/>
      <path id="Trazado_1049847" data-name="Trazado 1049847" d="M27.273,216.455a2.821,2.821,0,0,1,2.818-2.818V208a8.464,8.464,0,0,0-8.455,8.455v2.818a2.821,2.821,0,0,1-2.818,2.818,2.818,2.818,0,0,0,0,5.636,2.821,2.821,0,0,1,2.818,2.818v2.818a8.464,8.464,0,0,0,8.455,8.455v-5.636a2.821,2.821,0,0,1-2.818-2.818v-2.818a8.419,8.419,0,0,0-2.158-5.636,8.419,8.419,0,0,0,2.158-5.636Z" transform="translate(-16 -140.363)"/>
      <path id="Trazado_1049848" data-name="Trazado 1049848" d="M67.273,398.091a2.821,2.821,0,0,1-2.818-2.818v-2.818A8.464,8.464,0,0,0,56,384v5.636a2.821,2.821,0,0,1,2.818,2.818v2.818a8.419,8.419,0,0,0,2.158,5.636,8.419,8.419,0,0,0-2.158,5.636v2.818A2.821,2.821,0,0,1,56,412.182v5.636a8.464,8.464,0,0,0,8.455-8.455v-2.818a2.821,2.821,0,0,1,2.818-2.818,2.818,2.818,0,1,0,0-5.636Z" transform="translate(-41.909 -254.362)"/>
      <path id="Trazado_1049849" data-name="Trazado 1049849" d="M16,320H44.182v5.636H16Z" transform="translate(-16 -212.908)"/>
      <path id="Trazado_1049850" data-name="Trazado 1049850" d="M48,352H64.909v5.636H48Z" transform="translate(-36.727 -233.635)"/>
      <path id="Trazado_1049851" data-name="Trazado 1049851" d="M16,352h5.636v5.636H16Z" transform="translate(-16 -233.635)"/>
      <path id="Trazado_1049852" data-name="Trazado 1049852" d="M96,248h11.273v5.636H96Z" transform="translate(-67.818 -166.272)"/>
      <path id="Trazado_1049853" data-name="Trazado 1049853" d="M64,248h5.636v5.636H64Z" transform="translate(-47.091 -166.272)"/>
      <path id="Trazado_1049854" data-name="Trazado 1049854" d="M16,424H27.273v5.636H16Z" transform="translate(-16 -280.271)"/>
      <path id="Trazado_1049855" data-name="Trazado 1049855" d="M228.7,112.972l-1.707-.475a14.026,14.026,0,0,0,3.373-9.133v-2.818a14.107,14.107,0,0,0-14.091-14.091h-11.1a25.455,25.455,0,0,0,2.645-11.273V69.546a11.271,11.271,0,0,0,5.3-21.217A2.806,2.806,0,0,0,213.456,47V41.364A25.392,25.392,0,0,0,188.092,16H168.364A25.392,25.392,0,0,0,143,41.364v2.818A2.818,2.818,0,0,0,145.819,47h5.636a11.273,11.273,0,1,0,0,22.546v5.636A25.455,25.455,0,0,0,154.1,86.455H143a14.107,14.107,0,0,0-14.091,14.091v2.818a14.026,14.026,0,0,0,3.373,9.133l-1.707.474A25.439,25.439,0,0,0,112,137.412v44.862a2.818,2.818,0,0,0,2.818,2.818H244.456a2.818,2.818,0,0,0,2.818-2.818V137.412A25.438,25.438,0,0,0,228.7,112.972Zm-9.607-15.244V94.91a8.438,8.438,0,0,0-.363-2.455,8.47,8.47,0,0,1,6,8.091v2.818a8.464,8.464,0,0,1-8.455,8.455h-2.818a28.151,28.151,0,0,0-22.3,10.968,19.759,19.759,0,0,1,19.482-16.6,8.464,8.464,0,0,0,8.455-8.455ZM184.937,36.137a31.3,31.3,0,0,0,16.814,12.385,19.752,19.752,0,0,1,.432,4.115H188.092a5.636,5.636,0,0,0-4.874,2.818h-7.162a5.636,5.636,0,0,0-4.874-2.818H157.091A19.643,19.643,0,0,1,157.909,47h4.819a28.14,28.14,0,0,0,22.206-10.86Zm11.61,27.773V58.271h5.636V63.91a2.821,2.821,0,0,1-2.818,2.818H190.91a2.821,2.821,0,0,1-2.818-2.818V58.273h2.818V63.91Zm-39.455-5.636h5.636V63.91h5.636V58.27h2.818v5.64a2.821,2.821,0,0,1-2.818,2.818H159.91a2.821,2.821,0,0,1-2.818-2.818Zm0,13.606a8.415,8.415,0,0,0,2.818.485h8.455a8.464,8.464,0,0,0,8.455-8.455V61.091h5.636V63.91a8.464,8.464,0,0,0,8.455,8.455h8.455a8.415,8.415,0,0,0,2.818-.485v3.3a19.5,19.5,0,0,1-4.323,12.33,19.815,19.815,0,0,1-8.011,5.965,19.551,19.551,0,0,1-7.394,1.433h-5.636a19.558,19.558,0,0,1-7.4-1.436,19.814,19.814,0,0,1-8.007-5.962,19.507,19.507,0,0,1-4.323-12.33Zm53.546,20.212a2.821,2.821,0,0,1,2.818,2.818v2.818a2.821,2.821,0,0,1-2.818,2.818,25.211,25.211,0,0,0-13.23,3.734l-2.924-.813a2.818,2.818,0,0,0-.755-.1V97.9a25.478,25.478,0,0,0,7.631-5.813Zm-42.3,46.811v6.735h.028v4.469l-7.288-7.287,6.909-6.908a22.478,22.478,0,0,1,.351,2.992Zm4.96-27.128a8.443,8.443,0,0,1-2.114-5.592V99.912a25.363,25.363,0,0,0,5.636.634h5.636a25.374,25.374,0,0,0,5.635-.634v6.27a8.455,8.455,0,0,1-14.8,5.592Zm17.614,33.863h.028V138.9a22.484,22.484,0,0,1,.352-2.992l6.907,6.908-7.288,7.287ZM207.819,63.91V52.637a5.636,5.636,0,1,1,0,11.273Zm0-22.546v2.662a25.22,25.22,0,0,1-3.092-.539,25.556,25.556,0,0,1-16.474-12.741,27.946,27.946,0,0,0,2.5-8.926A19.753,19.753,0,0,1,207.819,41.364Zm-59.182,0a19.75,19.75,0,0,1,19.728-19.727H185.1a22.581,22.581,0,0,1-22.37,19.727Zm-2.818,16.909a5.643,5.643,0,0,1,5.636-5.636V63.91a5.643,5.643,0,0,1-5.636-5.636Zm0,36.637a2.821,2.821,0,0,1,2.818-2.818h9.279a25.478,25.478,0,0,0,7.631,5.813v5.46a2.82,2.82,0,0,0-.755.1l-2.924.813a25.211,25.211,0,0,0-13.231-3.734,2.821,2.821,0,0,1-2.818-2.818Zm-11.273,5.636a8.47,8.47,0,0,1,6-8.091,8.437,8.437,0,0,0-.363,2.455v2.818a8.464,8.464,0,0,0,8.455,8.455,19.759,19.759,0,0,1,19.481,16.6,28.15,28.15,0,0,0-22.3-10.966H143a8.464,8.464,0,0,1-8.455-8.455Zm-16.909,36.866a19.785,19.785,0,0,1,14.448-19.01l6.26-1.741a14.023,14.023,0,0,0,4.656.794h2.818a22.567,22.567,0,0,1,20.167,12.484L155.1,140.827a2.811,2.811,0,0,0-.827,1.995V157.4a8.455,8.455,0,1,0,5.636,0v-7.772l8.455,8.455v21.378H140.182V154.092h-5.636v25.364H117.636Zm42.273,27.953a2.818,2.818,0,1,1-2.818-2.818A2.818,2.818,0,0,1,159.91,165.365ZM174,156.911V119.092a14.031,14.031,0,0,0,11.273,0v60.364H174Zm67.637,22.546H224.729V154.092h-5.636v25.364H190.91V158.078l8.455-8.455V157.4a8.455,8.455,0,1,0,5.636,0V142.821a2.811,2.811,0,0,0-.825-1.995L193.29,129.939a22.567,22.567,0,0,1,20.165-12.484h2.818a14.023,14.023,0,0,0,4.656-.794l6.261,1.741a19.785,19.785,0,0,1,14.447,19.01ZM205,165.365a2.818,2.818,0,1,1-2.818-2.818A2.818,2.818,0,0,1,205,165.365Z" transform="translate(-78.181 -16)"/>
      <path id="Trazado_1049856" data-name="Trazado 1049856" d="M301.266,201.147l2.818-2.818-3.986-3.986-1.993,1.993H288v5.636h11.273a2.818,2.818,0,0,0,1.993-.825Z" transform="translate(-192.181 -131.517)"/>
    </g>
  </g>
</svg>
