<svg xmlns="http://www.w3.org/2000/svg" xmlns:xlink="http://www.w3.org/1999/xlink" width="118" height="118" viewBox="0 0 118 118">
  <defs>
    <filter id="Trazado_982547" x="0" y="0" width="118" height="118" filterUnits="userSpaceOnUse">
      <feOffset dy="3" input="SourceAlpha"/>
      <feGaussianBlur stdDeviation="3" result="blur"/>
      <feFlood flood-opacity="0.161"/>
      <feComposite operator="in" in2="blur"/>
      <feComposite in="SourceGraphic"/>
    </filter>
  </defs>
  <g id="Grupo_1210834" data-name="Grupo 1210834" transform="translate(-585.125 -2920.179)">
    <g id="Grupo_1210299" data-name="Grupo 1210299" transform="translate(594.125 2926.179)">
      <g id="Grupo_1209802" data-name="Grupo 1209802" transform="translate(0 0)">
        <g id="Grupo_1209739" data-name="Grupo 1209739" transform="translate(0 0)">
          <g id="Grupo_1209277" data-name="Grupo 1209277">
            <g id="Grupo_1208028" data-name="Grupo 1208028">
              <g id="Grupo_1177675" data-name="Grupo 1177675">
                <g id="Grupo_1176928" data-name="Grupo 1176928">
                  <g id="Grupo_1172322" data-name="Grupo 1172322">
                    <g id="Grupo_1164700" data-name="Grupo 1164700">
                      <g id="Grupo_1160931" data-name="Grupo 1160931">
                        <g id="Grupo_1160749" data-name="Grupo 1160749">
                          <g id="Grupo_1158891" data-name="Grupo 1158891">
                            <g id="Grupo_1157406" data-name="Grupo 1157406">
                              <g id="Grupo_1155793" data-name="Grupo 1155793">
                                <g id="Grupo_1154704" data-name="Grupo 1154704">
                                  <g id="Grupo_1150790" data-name="Grupo 1150790">
                                    <g id="Grupo_1154214" data-name="Grupo 1154214">
                                      <g id="Grupo_1152583" data-name="Grupo 1152583">
                                        <g id="Grupo_1146973" data-name="Grupo 1146973">
                                          <g id="Grupo_1146954" data-name="Grupo 1146954">
                                            <g transform="matrix(1, 0, 0, 1, -9, -6)" filter="url(#Trazado_982547)">
                                              <g id="Trazado_982547-2" data-name="Trazado 982547" transform="translate(9 6)" fill="#fdf4ce">
                                                <path d="M 50.00000762939453 98.49985504150391 C 43.4518928527832 98.49985504150391 37.10043716430664 97.21774291992188 31.12207984924316 94.68910980224609 C 25.34692192077637 92.24642944335938 20.15996551513672 88.74918365478516 15.70533657073975 84.2945556640625 C 11.25069332122803 79.83992767333984 7.753450393676758 74.65298461914062 5.310764789581299 68.87783050537109 C 2.782136201858521 62.89948654174805 1.500007629394531 56.54804229736328 1.500007629394531 49.99992752075195 C 1.500007629394531 43.45181274414062 2.782136201858521 37.10036849975586 5.310764789581299 31.12202835083008 C 7.753450393676758 25.34687042236328 11.25069332122803 20.15992736816406 15.70533657073975 15.70529937744141 C 20.15996551513672 11.25067043304443 25.34692192077637 7.753427505493164 31.12207984924316 5.310741901397705 C 37.10043716430664 2.782113313674927 43.4518928527832 1.499998927116394 50.00000762939453 1.499998927116394 C 56.54812240600586 1.499998927116394 62.89957809448242 2.782113313674927 68.87793731689453 5.310741901397705 C 74.65310668945312 7.753427505493164 79.84004974365234 11.25067043304443 84.29469299316406 15.70529937744141 C 88.74932098388672 20.15992736816406 92.24656677246094 25.34687042236328 94.68924713134766 31.12202835083008 C 97.21788024902344 37.10036849975586 98.50000762939453 43.45181274414062 98.50000762939453 49.99992752075195 C 98.50000762939453 56.54804229736328 97.21788024902344 62.89948654174805 94.68924713134766 68.87783050537109 C 92.24656677246094 74.65298461914062 88.74932098388672 79.83992767333984 84.29469299316406 84.2945556640625 C 79.84004974365234 88.74918365478516 74.65310668945312 92.24642944335938 68.87793731689453 94.68910980224609 C 62.89957809448242 97.21774291992188 56.54812240600586 98.49985504150391 50.00000762939453 98.49985504150391 Z" stroke="none"/>
                                                <path d="M 50.00000762939453 3.000007629394531 C 43.65373229980469 3.000007629394531 37.49887084960938 4.242263793945312 31.70640563964844 6.692268371582031 C 26.11003875732422 9.059326171875 21.08335876464844 12.44860076904297 16.7659912109375 16.76596069335938 C 12.44862365722656 21.08332824707031 9.059333801269531 26.11000823974609 6.692268371582031 31.70635986328125 C 4.242271423339844 37.49880599975586 3.000007629394531 43.65365219116211 3.000007629394531 49.99992752075195 C 3.000007629394531 56.3462028503418 4.242271423339844 62.50104904174805 6.692268371582031 68.29349517822266 C 9.059333801269531 73.88984680175781 12.44862365722656 78.91652679443359 16.7659912109375 83.23389434814453 C 21.08335876464844 87.55125427246094 26.11003875732422 90.94052886962891 31.70640563964844 93.30758666992188 C 37.49887084960938 95.75759124755859 43.65373229980469 96.99984741210938 50.00000762939453 96.99984741210938 C 56.34628295898438 96.99984741210938 62.50114440917969 95.75759124755859 68.29360961914062 93.30758666992188 C 73.88997650146484 90.94052886962891 78.91665649414062 87.55125427246094 83.23402404785156 83.23389434814453 C 87.5513916015625 78.91652679443359 90.94068145751953 73.88984680175781 93.30774688720703 68.29349517822266 C 95.75774383544922 62.50104904174805 97.00000762939453 56.3462028503418 97.00000762939453 49.99992752075195 C 97.00000762939453 43.65365219116211 95.75774383544922 37.49880599975586 93.30774688720703 31.70635986328125 C 90.94068145751953 26.11000823974609 87.5513916015625 21.08332824707031 83.23402404785156 16.76596069335938 C 78.91665649414062 12.44860076904297 73.88997650146484 9.059326171875 68.29360961914062 6.692268371582031 C 62.50114440917969 4.242263793945312 56.34628295898438 3.000007629394531 50.00000762939453 3.000007629394531 M 50.00000762939453 7.62939453125e-06 C 77.61424255371094 7.62939453125e-06 100.0000076293945 22.38572692871094 100.0000076293945 49.99992752075195 C 100.0000076293945 77.61412811279297 77.61424255371094 99.99984741210938 50.00000762939453 99.99984741210938 C 22.38578033447266 99.99984741210938 7.62939453125e-06 77.61412811279297 7.62939453125e-06 49.99992752075195 C 7.62939453125e-06 22.38572692871094 22.38578033447266 7.62939453125e-06 50.00000762939453 7.62939453125e-06 Z" stroke="none" fill="#f6c810"/>
                                              </g>
                                            </g>
                                          </g>
                                        </g>
                                      </g>
                                    </g>
                                  </g>
                                </g>
                              </g>
                            </g>
                          </g>
                        </g>
                      </g>
                    </g>
                  </g>
                </g>
              </g>
            </g>
          </g>
        </g>
      </g>
    </g>
    <g id="floders" transform="translate(609.002 2943.001)">
      <path id="Trazado_1051302" data-name="Trazado 1051302" d="M66.8,17.2V48H3V17.2A2.206,2.206,0,0,1,5.2,15H64.6A2.206,2.206,0,0,1,66.8,17.2Z" transform="translate(0.1 1.299)" fill="#57a4ff"/>
      <path id="Trazado_1051303" data-name="Trazado 1051303" d="M61.4,17.2V48H59.2V17.2A2.206,2.206,0,0,0,57,15h2.2A2.206,2.206,0,0,1,61.4,17.2Z" transform="translate(5.497 1.299)" fill="#2488ff"/>
      <path id="Trazado_1051304" data-name="Trazado 1051304" d="M34.7,10.3V7H31.4v3.3Zm-7.7,0V7H23.7v3.3Zm-7.7,0V7H16v3.3Z" transform="translate(1.399 0.5)" fill="#00d7df"/>
      <path id="Trazado_1051305" data-name="Trazado 1051305" d="M56,11.8V36a2.206,2.206,0,0,1-2.2,2.2H14.2A2.206,2.206,0,0,1,12,36V5.2A2.206,2.206,0,0,1,14.2,3H37.585a2.2,2.2,0,0,1,1.969,1.221l.495.979,1.595,3.179A2.2,2.2,0,0,0,43.612,9.6H53.8A2.206,2.206,0,0,1,56,11.8Z" transform="translate(0.999 0.1)" fill="#00d7df"/>
      <path id="Trazado_1051306" data-name="Trazado 1051306" d="M52.4,11.2V35.4a2.206,2.206,0,0,1-2.2,2.2H48a2.207,2.207,0,0,0,2.2-2.2V11.2A2.206,2.206,0,0,0,48,9h2.2a2.206,2.206,0,0,1,2.2,2.2Z" transform="translate(4.598 0.7)" fill="#00b6bd"/>
      <path id="Trazado_1051307" data-name="Trazado 1051307" d="M47.95,5l2.2,4.4H41.064a2.2,2.2,0,0,1-1.969-1.221L37.5,5Z" transform="translate(3.548 0.3)" fill="#ffeb99"/>
      <path id="Trazado_1051308" data-name="Trazado 1051308" d="M43.1,57l3.3,4.4H20L23.3,57H43.1Z" transform="translate(1.799 5.497)" fill="#ffeb99"/>
      <path id="Trazado_1051309" data-name="Trazado 1051309" d="M44,37.1v4.4a2.206,2.206,0,0,1-2.2,2.2H24.2A2.206,2.206,0,0,1,22,41.5V16.2A2.206,2.206,0,0,1,24.2,14h2.2v6.6l2.2-2.2,2.2,2.2V14h11A2.206,2.206,0,0,1,44,16.2Z" transform="translate(1.999 1.199)" fill="#ffdaaa"/>
      <path id="Trazado_1051310" data-name="Trazado 1051310" d="M30,7h3.3v3.3H30Z" transform="translate(2.799 0.5)" fill="#ffeb99"/>
      <path id="Trazado_1051311" data-name="Trazado 1051311" d="M33.8,45H3v4.4a2.206,2.206,0,0,0,2.2,2.2H64.6a2.206,2.206,0,0,0,2.2-2.2V45Z" transform="translate(0.1 4.298)" fill="#ffeb99"/>
      <path id="Trazado_1051312" data-name="Trazado 1051312" d="M39.3,51l1.1,6.6H25L26.1,51H39.3Z" transform="translate(2.299 4.897)" fill="#e0e0e2"/>
      <path id="Trazado_1051313" data-name="Trazado 1051313" d="M39.3,57.6H37.1L36,51h2.2Z" transform="translate(3.398 4.897)" fill="#c6c5ca"/>
      <path id="Trazado_1051314" data-name="Trazado 1051314" d="M44.5,61.4H42.3L39,57h2.2Z" transform="translate(3.698 5.497)" fill="#ffcd00"/>
      <path id="Trazado_1051315" data-name="Trazado 1051315" d="M61.4,45v4.4a2.206,2.206,0,0,1-2.2,2.2H57a2.206,2.206,0,0,0,2.2-2.2V45Z" transform="translate(5.497 4.298)" fill="#ffcd00"/>
      <path id="Trazado_1051316" data-name="Trazado 1051316" d="M30.4,14v6.6l-2.2-2.2L26,20.6V14Z" transform="translate(2.399 1.199)" fill="#ff7956"/>
      <path id="Trazado_1051317" data-name="Trazado 1051317" d="M23,7h3.3v3.3H23Z" transform="translate(2.099 0.5)" fill="#ffeb99"/>
      <path id="Trazado_1051318" data-name="Trazado 1051318" d="M16,7h3.3v3.3H16Z" transform="translate(1.399 0.5)" fill="#ffeb99"/>
      <path id="Trazado_1051319" data-name="Trazado 1051319" d="M31,47h2.2v2.2H31Z" transform="translate(2.898 4.498)"/>
      <path id="Trazado_1051320" data-name="Trazado 1051320" d="M64.7,15.2H58.1V11.9a3.3,3.3,0,0,0-3.3-3.3h-.42l-1.89-3.792A1.1,1.1,0,0,0,51.5,4.2H41.722l-.186-.37A3.284,3.284,0,0,0,38.584,2H15.2a3.3,3.3,0,0,0-3.3,3.3v9.9H5.3A3.3,3.3,0,0,0,2,18.5V53.7A3.3,3.3,0,0,0,5.3,57H27.1l-.734,4.4H25.1a1.1,1.1,0,0,0-.88.44l-3.3,4.4A1.1,1.1,0,0,0,21.8,68H48.2a1.1,1.1,0,0,0,.88-1.76l-3.3-4.4a1.1,1.1,0,0,0-.88-.44H43.63L42.9,57H64.7A3.3,3.3,0,0,0,68,53.7V18.5a3.3,3.3,0,0,0-3.3-3.3ZM50.818,6.4l1.1,2.2H44.612a1.1,1.1,0,0,1-.99-.616L42.829,6.4ZM14.1,5.3a1.1,1.1,0,0,1,1.1-1.1H38.584a1.1,1.1,0,0,1,.99.616l2.09,4.153a3.284,3.284,0,0,0,2.948,1.83H54.8a1.1,1.1,0,0,1,1.1,1.1V36.1a1.1,1.1,0,0,1-1.1,1.1H47.1V17.4a3.3,3.3,0,0,0-3.3-3.3H26.2a3.3,3.3,0,0,0-3.3,3.3V37.2H15.2a1.1,1.1,0,0,1-1.1-1.1Zm15.4,11h2.2v2.844l-.322-.322a1.1,1.1,0,0,0-1.555,0l-.322.322Zm-1.521,6.516a1.1,1.1,0,0,0,1.2-.239L30.6,21.154l1.422,1.422a1.1,1.1,0,0,0,.778.322,1.086,1.086,0,0,0,.421-.084A1.1,1.1,0,0,0,33.9,21.8V16.3h9.9a1.1,1.1,0,0,1,1.1,1.1V42.7a1.1,1.1,0,0,1-1.1,1.1H26.2a1.1,1.1,0,0,1-1.1-1.1V17.4a1.1,1.1,0,0,1,1.1-1.1h1.1v5.5A1.1,1.1,0,0,0,27.977,22.815ZM5.3,17.4h6.6V36.1a3.3,3.3,0,0,0,3.3,3.3h7.7v3.3A3.3,3.3,0,0,0,26.2,46H43.8a3.3,3.3,0,0,0,3.3-3.3V39.4h7.7a3.3,3.3,0,0,0,3.3-3.3V17.4h6.6a1.1,1.1,0,0,1,1.1,1.1V48.2H4.2V18.5A1.1,1.1,0,0,1,5.3,17.4ZM46,65.8H24l1.65-2.2h18.7Zm-4.6-4.4H28.6L29.33,57H40.666Zm23.3-6.6H5.3a1.1,1.1,0,0,1-1.1-1.1V50.4H65.8v3.3A1.1,1.1,0,0,1,64.7,54.8Z" transform="translate(0 0)"/>
      <path id="Trazado_1051321" data-name="Trazado 1051321" d="M25,28h4.4v2.2H25Z" transform="translate(2.299 2.599)"/>
      <path id="Trazado_1051322" data-name="Trazado 1051322" d="M31,28h8.8v2.2H31Z" transform="translate(2.898 2.599)"/>
      <path id="Trazado_1051323" data-name="Trazado 1051323" d="M25,24h8.8v2.2H25Z" transform="translate(2.299 2.199)"/>
      <path id="Trazado_1051324" data-name="Trazado 1051324" d="M35,24h4.4v2.2H35Z" transform="translate(3.298 2.199)"/>
      <path id="Trazado_1051325" data-name="Trazado 1051325" d="M35,17h4.4v2.2H35Z" transform="translate(3.298 1.499)"/>
      <path id="Trazado_1051326" data-name="Trazado 1051326" d="M25,32h2.2v2.2H25Z" transform="translate(2.299 2.998)"/>
      <path id="Trazado_1051327" data-name="Trazado 1051327" d="M29,32H40v2.2H29Z" transform="translate(2.699 2.998)"/>
      <path id="Trazado_1051328" data-name="Trazado 1051328" d="M25,36h4.4v2.2H25Z" transform="translate(2.299 3.398)"/>
      <path id="Trazado_1051329" data-name="Trazado 1051329" d="M31,36h8.8v2.2H31Z" transform="translate(2.898 3.398)"/>
      <path id="Trazado_1051330" data-name="Trazado 1051330" d="M16.1,11.5h3.3a1.1,1.1,0,0,0,1.1-1.1V7.1A1.1,1.1,0,0,0,19.4,6H16.1A1.1,1.1,0,0,0,15,7.1v3.3A1.1,1.1,0,0,0,16.1,11.5Zm1.1-3.3h1.1V9.3H17.2Z" transform="translate(1.299 0.4)"/>
      <path id="Trazado_1051331" data-name="Trazado 1051331" d="M23.1,11.5h3.3a1.1,1.1,0,0,0,1.1-1.1V7.1A1.1,1.1,0,0,0,26.4,6H23.1A1.1,1.1,0,0,0,22,7.1v3.3A1.1,1.1,0,0,0,23.1,11.5Zm1.1-3.3h1.1V9.3H24.2Z" transform="translate(1.999 0.4)"/>
      <path id="Trazado_1051332" data-name="Trazado 1051332" d="M30.1,11.5h3.3a1.1,1.1,0,0,0,1.1-1.1V7.1A1.1,1.1,0,0,0,33.4,6H30.1A1.1,1.1,0,0,0,29,7.1v3.3A1.1,1.1,0,0,0,30.1,11.5Zm1.1-3.3h1.1V9.3H31.2Z" transform="translate(2.699 0.4)"/>
      <path id="Trazado_1051333" data-name="Trazado 1051333" d="M55,19h3.3v2.2H55Z" transform="translate(5.297 1.699)"/>
      <path id="Trazado_1051334" data-name="Trazado 1051334" d="M55,23h3.3v2.2H55Z" transform="translate(5.297 2.099)"/>
      <path id="Trazado_1051335" data-name="Trazado 1051335" d="M55,27h3.3v2.2H55Z" transform="translate(5.297 2.499)"/>
      <path id="Trazado_1051336" data-name="Trazado 1051336" d="M55,31h3.3v2.2H55Z" transform="translate(5.297 2.898)"/>
      <path id="Trazado_1051337" data-name="Trazado 1051337" d="M55,35h3.3v2.2H55Z" transform="translate(5.297 3.298)"/>
      <path id="Trazado_1051338" data-name="Trazado 1051338" d="M55,39h3.3v2.2H55Z" transform="translate(5.297 3.698)"/>
      <path id="Trazado_1051339" data-name="Trazado 1051339" d="M6,19H9.3v2.2H6Z" transform="translate(0.4 1.699)"/>
      <path id="Trazado_1051340" data-name="Trazado 1051340" d="M6,23H9.3v2.2H6Z" transform="translate(0.4 2.099)"/>
      <path id="Trazado_1051341" data-name="Trazado 1051341" d="M6,27H9.3v2.2H6Z" transform="translate(0.4 2.499)"/>
      <path id="Trazado_1051342" data-name="Trazado 1051342" d="M6,31H9.3v2.2H6Z" transform="translate(0.4 2.898)"/>
      <path id="Trazado_1051343" data-name="Trazado 1051343" d="M6,35H9.3v2.2H6Z" transform="translate(0.4 3.298)"/>
      <path id="Trazado_1051344" data-name="Trazado 1051344" d="M6,39H9.3v2.2H6Z" transform="translate(0.4 3.698)"/>
    </g>
  </g>
</svg>
