<svg xmlns="http://www.w3.org/2000/svg" xmlns:xlink="http://www.w3.org/1999/xlink" width="118" height="118" viewBox="0 0 118 118">
  <defs>
    <filter id="Trazado_982547" x="0" y="0" width="118" height="118" filterUnits="userSpaceOnUse">
      <feOffset dy="3" input="SourceAlpha"/>
      <feGaussianBlur stdDeviation="3" result="blur"/>
      <feFlood flood-opacity="0.161"/>
      <feComposite operator="in" in2="blur"/>
      <feComposite in="SourceGraphic"/>
    </filter>
  </defs>
  <g id="Grupo_1210836" data-name="Grupo 1210836" transform="translate(-900.125 -2920.179)">
    <g id="Grupo_1210300" data-name="Grupo 1210300" transform="translate(909.125 2926.179)">
      <g id="Grupo_1209802" data-name="Grupo 1209802" transform="translate(0 0)">
        <g id="Grupo_1209739" data-name="Grupo 1209739" transform="translate(0 0)">
          <g id="Grupo_1209277" data-name="Grupo 1209277">
            <g id="Grupo_1208028" data-name="Grupo 1208028">
              <g id="Grupo_1177675" data-name="Grupo 1177675">
                <g id="Grupo_1176928" data-name="Grupo 1176928">
                  <g id="Grupo_1172322" data-name="Grupo 1172322">
                    <g id="Grupo_1164700" data-name="Grupo 1164700">
                      <g id="Grupo_1160931" data-name="Grupo 1160931">
                        <g id="Grupo_1160749" data-name="Grupo 1160749">
                          <g id="Grupo_1158891" data-name="Grupo 1158891">
                            <g id="Grupo_1157406" data-name="Grupo 1157406">
                              <g id="Grupo_1155793" data-name="Grupo 1155793">
                                <g id="Grupo_1154704" data-name="Grupo 1154704">
                                  <g id="Grupo_1150790" data-name="Grupo 1150790">
                                    <g id="Grupo_1154214" data-name="Grupo 1154214">
                                      <g id="Grupo_1152583" data-name="Grupo 1152583">
                                        <g id="Grupo_1146973" data-name="Grupo 1146973">
                                          <g id="Grupo_1146954" data-name="Grupo 1146954">
                                            <g transform="matrix(1, 0, 0, 1, -9, -6)" filter="url(#Trazado_982547)">
                                              <g id="Trazado_982547-2" data-name="Trazado 982547" transform="translate(9 6)" fill="#fdf4ce">
                                                <path d="M 50.00000762939453 98.49985504150391 C 43.4518928527832 98.49985504150391 37.10043716430664 97.21774291992188 31.12207984924316 94.68910980224609 C 25.34692192077637 92.24642944335938 20.15996551513672 88.74918365478516 15.70533657073975 84.2945556640625 C 11.25069332122803 79.83992767333984 7.753450393676758 74.65298461914062 5.310764789581299 68.87783050537109 C 2.782136201858521 62.89948654174805 1.500007629394531 56.54804229736328 1.500007629394531 49.99992752075195 C 1.500007629394531 43.45181274414062 2.782136201858521 37.10036849975586 5.310764789581299 31.12202835083008 C 7.753450393676758 25.34687042236328 11.25069332122803 20.15992736816406 15.70533657073975 15.70529937744141 C 20.15996551513672 11.25067043304443 25.34692192077637 7.753427505493164 31.12207984924316 5.310741901397705 C 37.10043716430664 2.782113313674927 43.4518928527832 1.499998927116394 50.00000762939453 1.499998927116394 C 56.54812240600586 1.499998927116394 62.89957809448242 2.782113313674927 68.87793731689453 5.310741901397705 C 74.65310668945312 7.753427505493164 79.84004974365234 11.25067043304443 84.29469299316406 15.70529937744141 C 88.74932098388672 20.15992736816406 92.24656677246094 25.34687042236328 94.68924713134766 31.12202835083008 C 97.21788024902344 37.10036849975586 98.50000762939453 43.45181274414062 98.50000762939453 49.99992752075195 C 98.50000762939453 56.54804229736328 97.21788024902344 62.89948654174805 94.68924713134766 68.87783050537109 C 92.24656677246094 74.65298461914062 88.74932098388672 79.83992767333984 84.29469299316406 84.2945556640625 C 79.84004974365234 88.74918365478516 74.65310668945312 92.24642944335938 68.87793731689453 94.68910980224609 C 62.89957809448242 97.21774291992188 56.54812240600586 98.49985504150391 50.00000762939453 98.49985504150391 Z" stroke="none"/>
                                                <path d="M 50.00000762939453 3.000007629394531 C 43.65373229980469 3.000007629394531 37.49887084960938 4.242263793945312 31.70640563964844 6.692268371582031 C 26.11003875732422 9.059326171875 21.08335876464844 12.44860076904297 16.7659912109375 16.76596069335938 C 12.44862365722656 21.08332824707031 9.059333801269531 26.11000823974609 6.692268371582031 31.70635986328125 C 4.242271423339844 37.49880599975586 3.000007629394531 43.65365219116211 3.000007629394531 49.99992752075195 C 3.000007629394531 56.3462028503418 4.242271423339844 62.50104904174805 6.692268371582031 68.29349517822266 C 9.059333801269531 73.88984680175781 12.44862365722656 78.91652679443359 16.7659912109375 83.23389434814453 C 21.08335876464844 87.55125427246094 26.11003875732422 90.94052886962891 31.70640563964844 93.30758666992188 C 37.49887084960938 95.75759124755859 43.65373229980469 96.99984741210938 50.00000762939453 96.99984741210938 C 56.34628295898438 96.99984741210938 62.50114440917969 95.75759124755859 68.29360961914062 93.30758666992188 C 73.88997650146484 90.94052886962891 78.91665649414062 87.55125427246094 83.23402404785156 83.23389434814453 C 87.5513916015625 78.91652679443359 90.94068145751953 73.88984680175781 93.30774688720703 68.29349517822266 C 95.75774383544922 62.50104904174805 97.00000762939453 56.3462028503418 97.00000762939453 49.99992752075195 C 97.00000762939453 43.65365219116211 95.75774383544922 37.49880599975586 93.30774688720703 31.70635986328125 C 90.94068145751953 26.11000823974609 87.5513916015625 21.08332824707031 83.23402404785156 16.76596069335938 C 78.91665649414062 12.44860076904297 73.88997650146484 9.059326171875 68.29360961914062 6.692268371582031 C 62.50114440917969 4.242263793945312 56.34628295898438 3.000007629394531 50.00000762939453 3.000007629394531 M 50.00000762939453 7.62939453125e-06 C 77.61424255371094 7.62939453125e-06 100.0000076293945 22.38572692871094 100.0000076293945 49.99992752075195 C 100.0000076293945 77.61412811279297 77.61424255371094 99.99984741210938 50.00000762939453 99.99984741210938 C 22.38578033447266 99.99984741210938 7.62939453125e-06 77.61412811279297 7.62939453125e-06 49.99992752075195 C 7.62939453125e-06 22.38572692871094 22.38578033447266 7.62939453125e-06 50.00000762939453 7.62939453125e-06 Z" stroke="none" fill="#f6c810"/>
                                              </g>
                                            </g>
                                          </g>
                                        </g>
                                      </g>
                                    </g>
                                  </g>
                                </g>
                              </g>
                            </g>
                          </g>
                        </g>
                      </g>
                    </g>
                  </g>
                </g>
              </g>
            </g>
          </g>
        </g>
      </g>
    </g>
    <g id="agreement_17226420" transform="translate(914.488 2927.879)">
      <path id="Trazado_1051345" data-name="Trazado 1051345" d="M378.9,211.577a.514.514,0,0,0-.494-.251.95.95,0,0,0-.342.066l-3.058,1.21,4.272,10.856a1.017,1.017,0,0,1-1.893.745l-4.272-10.852-2.066.815a.241.241,0,0,1-.058.025l-1.169.461a.793.793,0,0,0-.445.407.4.4,0,0,0-.021.3l2.218,5.473v0l5.535,13.675a.656.656,0,0,0,.839.185l8.243-3.259a.8.8,0,0,0,.444-.407.381.381,0,0,0,.017-.3L378.9,211.577Z" transform="translate(-308.212 -168.358)" fill="#a79ba7"/>
      <path id="Trazado_1051346" data-name="Trazado 1051346" d="M149.337,281.88c-.9-.531-2.066-1.231-3.276-1.951-1.667-1-3.391-2.025-4.584-2.728a9.81,9.81,0,0,0-7.8-.984,7.148,7.148,0,0,0-1.893,1.008,11.064,11.064,0,0,1-2.041,1.144c-3.576,1.436-6.77.111-7.794-2a2.814,2.814,0,0,1,1.255-3.811,47.639,47.639,0,0,0,7.572-5.506,5.908,5.908,0,0,0-5.778-.111c-3.358,1.675-5.951.819-8.6-.309l-5.021,11.852,2.041.844a.217.217,0,0,0,.045.021,4.923,4.923,0,0,1,2.045,1.819,3.816,3.816,0,0,1,4.539-.5.169.169,0,0,1,.045.029,4.134,4.134,0,0,1,1.745,2.445c.062-.021.123-.041.189-.058a3.78,3.78,0,0,1,2.877.407c.016.008.029.021.045.029a4.1,4.1,0,0,1,1.733,2.436,3.8,3.8,0,0,1,3.074.354,3.734,3.734,0,0,1,1.609,1.9,3.8,3.8,0,0,1,3.667.107,3.754,3.754,0,0,1,1.749,2.321,3.818,3.818,0,0,1,.119.889l1.663.979c.21.124.42.251.634.379.432.263.881.535,1.309.77a1.777,1.777,0,0,0,2.358-.654,1.78,1.78,0,0,0-.621-2.42l-8.527-5.037a1.016,1.016,0,0,1,1.033-1.749l8.527,5.037,1.177.7a1.765,1.765,0,0,0,1.794-3.041l-7.613-4.5a1.016,1.016,0,1,1,1.033-1.749l7.613,4.5a1.764,1.764,0,0,0,2.054-2.852Z" transform="translate(-87.708 -215.298)" fill="#fabeaf"/>
      <path id="Trazado_1051347" data-name="Trazado 1051347" d="M221.495,268.663l-.712-1.753c-2.679,1.128-5.3,2-8.687.288a5.975,5.975,0,0,0-6.716.757.18.18,0,0,1-.029.025,7.638,7.638,0,0,0-.564.535c-.025.025-.045.045-.07.066a50.148,50.148,0,0,1-8.157,5.963c-.531.3-.671.671-.432,1.161.506,1.045,2.51,2.086,5.2,1a8.887,8.887,0,0,0,1.671-.947,9.041,9.041,0,0,1,2.416-1.255,11.763,11.763,0,0,1,9.4,1.148.121.121,0,0,1,.033.016c1.194.708,2.93,1.741,4.605,2.741,1,.6,1.975,1.177,2.79,1.663a1.248,1.248,0,0,1,.156.062l3.214-1.3-4.008-9.906a.933.933,0,0,1-.107-.263Z" transform="translate(-160.055 -215.522)" fill="#ffddcf"/>
      <path id="Trazado_1051348" data-name="Trazado 1051348" d="M273.907,455.055l-1.165-.687-1.8,3.033,1.111.663a1.767,1.767,0,0,0,1.852-3.008Z" transform="translate(-224.106 -376.115)" fill="#ffddcf"/>
      <path id="Trazado_1051349" data-name="Trazado 1051349" d="M200.069,417.459a1.754,1.754,0,0,0-.617-2.4,1.774,1.774,0,0,0-2.424.621l-2.255,3.8a.253.253,0,0,1-.016.025l-.025.041-.37.626a1.76,1.76,0,0,0,.621,2.407,1.779,1.779,0,0,0,2.424-.626l.568-.955.049-.074c.033-.058.066-.119.1-.173l1.914-3.222c.012-.021.021-.045.033-.066Z" transform="translate(-158.432 -342.301)" fill="#ffddcf"/>
      <path id="Trazado_1051350" data-name="Trazado 1051350" d="M39.826,213.046l-1.4-.6s-.012,0-.016-.008l-1.6-.7-4.659,10.7a1.016,1.016,0,0,1-.934.609,1,1,0,0,1-.4-.082,1.019,1.019,0,0,1-.527-1.338l4.654-10.692-3.247-1.408a.888.888,0,0,0-.346-.074.679.679,0,0,0-.259.049.372.372,0,0,0-.222.193l-8.062,19.026c-.091.21.091.56.465.724l8.132,3.523a.786.786,0,0,0,.6.025.367.367,0,0,0,.222-.2l8.062-19.021C40.374,213.564,40.209,213.215,39.826,213.046Z" transform="translate(-11.972 -166.757)" fill="#837683"/>
      <path id="Trazado_1051351" data-name="Trazado 1051351" d="M135.29,378.606a1.837,1.837,0,0,0-.712-2.42,1.783,1.783,0,0,0-2.408.638l-2.313,3.9a1.756,1.756,0,0,0,.531,2.35c.9.268,2.062.276,2.576-.543l2.325-3.922v0Z" transform="translate(-103.291 -309.086)" fill="#ffddcf"/>
      <path id="Trazado_1051352" data-name="Trazado 1051352" d="M211.557,106.928a1.957,1.957,0,1,0-1.955-1.955A1.957,1.957,0,0,0,211.557,106.928Z" transform="translate(-171.669 -75.77)" fill="#e8ecf9"/>
      <path id="Trazado_1051353" data-name="Trazado 1051353" d="M177.95,67.373a3.99,3.99,0,1,1-3.988,3.992A3.992,3.992,0,0,1,177.95,67.373Zm-5.44,5.49a5.469,5.469,0,0,0,.535,1.288,1.026,1.026,0,0,1-.025,1.041l-.8,1.28.626.626,1.28-.8a1.026,1.026,0,0,1,1.041-.025,5.467,5.467,0,0,0,1.288.535,1.019,1.019,0,0,1,.72.757l.333,1.469h.889l.337-1.469a1.019,1.019,0,0,1,.72-.757,5.467,5.467,0,0,0,1.288-.535,1.026,1.026,0,0,1,1.041.025l1.276.8.63-.626-.8-1.28a1.014,1.014,0,0,1-.025-1.045,5.511,5.511,0,0,0,.531-1.276,1,1,0,0,1,.757-.728l1.469-.333v-.893l-1.465-.333a1.021,1.021,0,0,1-.757-.716,5.529,5.529,0,0,0-.535-1.288,1.015,1.015,0,0,1,.025-1.045l.8-1.276-.63-.63-1.276.807a1.024,1.024,0,0,1-1.045.021,5.324,5.324,0,0,0-1.28-.531,1.03,1.03,0,0,1-.728-.757L178.4,63.7h-.889l-.333,1.469a1.01,1.01,0,0,1-.728.757,5.44,5.44,0,0,0-1.276.531,1.031,1.031,0,0,1-1.049-.021l-1.276-.807-.626.63.8,1.276a1.026,1.026,0,0,1,.025,1.041,5.8,5.8,0,0,0-.539,1.292,1.009,1.009,0,0,1-.753.716l-1.465.333v.893l1.465.333a1.019,1.019,0,0,1,.757.72Z" transform="translate(-138.063 -42.162)" fill="#7b849b"/>
      <path id="Trazado_1051354" data-name="Trazado 1051354" d="M162.278,395.643a1.777,1.777,0,0,0-2.4.634v0l-2.288,3.856a.2.2,0,0,0-.021.041.238.238,0,0,0-.033.053l-.963,1.621a1.732,1.732,0,0,0-.185,1.333,1.756,1.756,0,0,0,.807,1.078.432.432,0,0,1,.045.029,1.486,1.486,0,0,0,1.165.2,1.945,1.945,0,0,0,1.226-.872l1.058-1.712,2.288-3.848a1.84,1.84,0,0,0-.7-2.42Z" transform="translate(-126.136 -325.72)" fill="#ffddcf"/>
      <path id="Trazado_1051355" data-name="Trazado 1051355" d="M142.564,40.457a1.765,1.765,0,0,1,1.49-1.691l1-.226a6.462,6.462,0,0,1,.251-.6l-.547-.868a1.754,1.754,0,0,1,.144-2.247l1.012-1.012a1.759,1.759,0,0,1,2.251-.14l.864.543a6.457,6.457,0,0,1,.6-.251l.226-1a1.757,1.757,0,0,1,1.687-1.49h1.436a1.76,1.76,0,0,1,1.687,1.486l.226,1c.206.074.407.16.6.251l.864-.543a1.759,1.759,0,0,1,2.251.14l1.012,1.012a1.759,1.759,0,0,1,.14,2.251l-.543.864c.091.2.177.4.251.6l1,.226a1.761,1.761,0,0,1,1.49,1.691v1.432a1.757,1.757,0,0,1-1.486,1.687l-1,.226c-.074.206-.16.407-.251.609l.543.864a1.754,1.754,0,0,1-.14,2.247l-1.012,1.012a1.754,1.754,0,0,1-2.251.14l-.864-.543a6.462,6.462,0,0,1-.6.251l-.226,1a1.765,1.765,0,0,1-1.687,1.494h-1.436a1.761,1.761,0,0,1-1.687-1.49l-.226-1c-.206-.078-.407-.16-.6-.255l-.868.547a1.759,1.759,0,0,1-2.247-.144L144.9,47.523a1.754,1.754,0,0,1-.14-2.251l.543-.864c-.095-.2-.177-.4-.255-.6l-.992-.226a1.761,1.761,0,0,1-1.494-1.687V40.457Zm27.157,12.589a1.019,1.019,0,0,1,0,2.037H154.754a1.019,1.019,0,0,1,0-2.037Zm-5.206,5.638h-9.762a1.016,1.016,0,0,1,0-2.033h9.762a1.016,1.016,0,1,1,0,2.033Zm-13.729-.7a1.45,1.45,0,0,1-1.449,1.445h-3.819a1.45,1.45,0,0,1-1.449-1.445V53.753a1.447,1.447,0,0,1,1.449-1.444h3.819a1.447,1.447,0,0,1,1.449,1.444Zm-8.222,1.8-.7,1.646c2.42,1.033,4.325,1.646,6.9.358a7.958,7.958,0,0,1,8.288.556,7.929,7.929,0,0,1,8.284-.51c2.609,1.317,4.535.687,7.008-.358l-.708-1.745a2.394,2.394,0,0,1,.037-1.86,2.823,2.823,0,0,1,1.568-1.494l.543-.218V38.448h-9a2.1,2.1,0,0,1-2.148-2.045V28.378H141.609a1.294,1.294,0,0,0-1.37,1.152V56.049l.794.346a2.648,2.648,0,0,1,1.531,3.387Z" transform="translate(-112.376 -11.97)" fill="#e8ecf9"/>
      <path id="Trazado_1051356" data-name="Trazado 1051356" d="M180.632,207.216h2.65v3.05h-2.65Z" transform="translate(-146.905 -164.844)" fill="#ffe177"/>
      <path id="Trazado_1051357" data-name="Trazado 1051357" d="M316,43.879l-7.494-6.77v6.733a.185.185,0,0,0,.115.037Z" transform="translate(-256.212 -19.434)" fill="#ccc4cc"/>
      <path id="Trazado_1051358" data-name="Trazado 1051358" d="M237.775,431.3a1.757,1.757,0,0,0-1.515-2.646,1.778,1.778,0,0,0-1.531.868l-2.432,4.095a1.72,1.72,0,0,0-.189,1.333,1.752,1.752,0,0,0,.8,1.074,1.784,1.784,0,0,0,2.432-.626l.058-.095.025-.049a.4.4,0,0,0,.029-.045l2.321-3.91Z" transform="translate(-190.858 -354.138)" fill="#ffddcf"/>
      <g id="Grupo_1210835" data-name="Grupo 1210835" transform="translate(8.777 14.375)">
        <path id="Trazado_1051359" data-name="Trazado 1051359" d="M233.215,199.308a1.019,1.019,0,0,0,1.016,1.016H249.2a1.019,1.019,0,0,0,0-2.037H234.231A1.019,1.019,0,0,0,233.215,199.308Z" transform="translate(-200.631 -171.587)" fill="#030403"/>
        <path id="Trazado_1051360" data-name="Trazado 1051360" d="M243.993,223.118h-9.762a1.016,1.016,0,0,0,0,2.033h9.762a1.016,1.016,0,1,0,0-2.033Z" transform="translate(-200.631 -192.813)" fill="#030403"/>
        <path id="Trazado_1051361" data-name="Trazado 1051361" d="M171.315,198.294h-2.654v-3.049h2.654Zm.58-5.082h-3.819a1.447,1.447,0,0,0-1.449,1.444v4.226a1.45,1.45,0,0,0,1.449,1.445H171.9a1.45,1.45,0,0,0,1.449-1.445v-4.226A1.447,1.447,0,0,0,171.9,193.212Z" transform="translate(-143.711 -167.248)" fill="#030403"/>
        <path id="Trazado_1051362" data-name="Trazado 1051362" d="M158.292,58.946l1.465-.333a1.009,1.009,0,0,0,.753-.716,5.81,5.81,0,0,1,.539-1.292,1.026,1.026,0,0,0-.025-1.041l-.8-1.276.626-.63,1.276.807a1.031,1.031,0,0,0,1.049.021,5.438,5.438,0,0,1,1.276-.531,1.01,1.01,0,0,0,.728-.757l.333-1.469h.889l.333,1.469a1.03,1.03,0,0,0,.728.757,5.326,5.326,0,0,1,1.28.531,1.024,1.024,0,0,0,1.045-.021l1.276-.807.63.63-.8,1.276a1.014,1.014,0,0,0-.025,1.045A5.528,5.528,0,0,1,171.4,57.9a1.021,1.021,0,0,0,.757.716l1.465.333v.893l-1.469.333a1,1,0,0,0-.757.728,5.511,5.511,0,0,1-.531,1.276,1.015,1.015,0,0,0,.025,1.045l.8,1.28-.63.626-1.276-.8a1.026,1.026,0,0,0-1.041-.025,5.466,5.466,0,0,1-1.288.535,1.019,1.019,0,0,0-.72.757l-.337,1.469h-.889l-.333-1.469a1.019,1.019,0,0,0-.72-.757,5.467,5.467,0,0,1-1.288-.535,1.026,1.026,0,0,0-1.041.025l-1.28.8-.626-.626.8-1.28a1.026,1.026,0,0,0,.025-1.041,5.469,5.469,0,0,1-.535-1.288,1.019,1.019,0,0,0-.757-.72l-1.465-.333v-.893Zm-.543,2.852.992.226c.078.206.16.407.255.6l-.543.864a1.754,1.754,0,0,0,.14,2.251l1.012,1.012a1.759,1.759,0,0,0,2.247.144l.868-.547c.2.095.4.177.6.255l.226,1a1.761,1.761,0,0,0,1.687,1.49h1.436a1.764,1.764,0,0,0,1.687-1.494l.226-1a6.46,6.46,0,0,0,.6-.251l.864.543a1.754,1.754,0,0,0,2.251-.14l1.012-1.012a1.754,1.754,0,0,0,.14-2.247l-.543-.864c.091-.2.177-.4.251-.609l1-.226a1.757,1.757,0,0,0,1.486-1.687V58.679a1.761,1.761,0,0,0-1.49-1.691l-1-.226c-.074-.206-.16-.407-.251-.6l.543-.864a1.759,1.759,0,0,0-.14-2.251l-1.012-1.012a1.759,1.759,0,0,0-2.251-.14l-.864.543c-.2-.091-.4-.177-.6-.251l-.226-1a1.761,1.761,0,0,0-1.687-1.486h-1.436a1.757,1.757,0,0,0-1.687,1.49l-.226,1a6.456,6.456,0,0,0-.6.251l-.864-.543a1.759,1.759,0,0,0-2.251.14l-1.012,1.012a1.754,1.754,0,0,0-.144,2.247l.547.868a6.45,6.45,0,0,0-.251.6l-1,.226a1.765,1.765,0,0,0-1.49,1.691v1.432a1.761,1.761,0,0,0,1.494,1.687Z" transform="translate(-134.844 -44.567)" fill="#030403"/>
        <path id="Trazado_1051363" data-name="Trazado 1051363" d="M199.587,91.044A1.957,1.957,0,1,1,197.632,93a1.96,1.96,0,0,1,1.955-1.959Zm0,5.947A3.99,3.99,0,1,0,195.6,93,3.991,3.991,0,0,0,199.587,96.991Z" transform="translate(-168.476 -78.175)" fill="#030403"/>
        <path id="Trazado_1051364" data-name="Trazado 1051364" d="M78.424,62.668a.805.805,0,0,1-.444.407l-8.243,3.259a.656.656,0,0,1-.839-.185L63.362,52.475v0L61.143,47a.4.4,0,0,1,.021-.3.792.792,0,0,1,.445-.407l1.169-.461a.246.246,0,0,0,.058-.025l2.066-.815,4.272,10.852a1.022,1.022,0,0,0,.947.642,1.013,1.013,0,0,0,.947-1.387L66.794,44.244l3.058-1.21a.947.947,0,0,1,.342-.066.514.514,0,0,1,.494.251L78.44,62.372a.38.38,0,0,1-.017.3ZM62.341,64.611a1.222,1.222,0,0,0-.156-.062c-.815-.486-1.786-1.066-2.79-1.663-1.675-1-3.412-2.033-4.605-2.741a.12.12,0,0,0-.033-.016,11.764,11.764,0,0,0-9.4-1.148,9.038,9.038,0,0,0-2.416,1.255,8.89,8.89,0,0,1-1.671.947c-2.691,1.086-4.7.045-5.2-1-.239-.49-.1-.856.432-1.161a50.152,50.152,0,0,0,8.157-5.963c.025-.021.045-.041.07-.066a7.631,7.631,0,0,1,.564-.535.174.174,0,0,0,.029-.025,5.975,5.975,0,0,1,6.716-.757c3.391,1.712,6.008.84,8.687-.288l.712,1.753a.931.931,0,0,0,.107.263l4.008,9.906-3.214,1.3ZM62,68.812a1.774,1.774,0,0,1-2.42.621l-7.613-4.5a1.016,1.016,0,1,0-1.033,1.749l7.613,4.5a1.765,1.765,0,0,1-1.794,3.041l-1.177-.7-8.527-5.037a1.016,1.016,0,1,0-1.033,1.749l8.527,5.037a1.78,1.78,0,0,1,.621,2.42,1.777,1.777,0,0,1-2.358.654c-.428-.235-.877-.506-1.309-.77-.214-.128-.424-.255-.634-.379l-1.663-.98a3.82,3.82,0,0,0-.119-.889,3.755,3.755,0,0,0-1.749-2.321,3.8,3.8,0,0,0-3.667-.107,3.735,3.735,0,0,0-1.609-1.9,3.8,3.8,0,0,0-3.074-.354,4.1,4.1,0,0,0-1.733-2.436c-.016-.008-.029-.021-.045-.029a3.78,3.78,0,0,0-2.877-.407c-.066.017-.128.037-.189.058a4.134,4.134,0,0,0-1.745-2.445.166.166,0,0,0-.045-.029,3.816,3.816,0,0,0-4.539.5,4.922,4.922,0,0,0-2.045-1.819.219.219,0,0,1-.045-.021l-2.041-.844L28.694,51.33c2.646,1.128,5.239,1.984,8.6.309a5.908,5.908,0,0,1,5.778.111A47.632,47.632,0,0,1,35.5,57.256a2.814,2.814,0,0,0-1.255,3.811c1.025,2.115,4.218,3.44,7.794,2a11.062,11.062,0,0,0,2.041-1.144,7.153,7.153,0,0,1,1.893-1.008,9.811,9.811,0,0,1,7.8.984c1.193.7,2.918,1.733,4.584,2.729,1.21.72,2.379,1.42,3.276,1.951A1.77,1.77,0,0,1,62,68.812ZM50.369,81.327a1.772,1.772,0,0,1-2.42.621l-1.111-.663,1.8-3.033,1.165.687a1.788,1.788,0,0,1,.568,2.387ZM44.6,81.076a.45.45,0,0,1-.029.045l-.025.049-.058.095a1.785,1.785,0,0,1-2.432.626,1.752,1.752,0,0,1-.8-1.074,1.72,1.72,0,0,1,.189-1.333l2.432-4.095a1.778,1.778,0,0,1,1.531-.868,1.753,1.753,0,0,1,1.515,2.646L44.6,81.076Zm-4.905-2.63c-.033.054-.066.115-.1.173l-.049.074-.568.955a1.779,1.779,0,0,1-2.424.626,1.76,1.76,0,0,1-.621-2.408l.37-.626.025-.041a.226.226,0,0,0,.016-.025l2.255-3.8a1.774,1.774,0,0,1,2.424-.621,1.754,1.754,0,0,1,.617,2.4c-.012.021-.021.045-.033.066L39.69,78.446Zm-5.132-2.255L33.5,77.9a1.946,1.946,0,0,1-1.226.873,1.486,1.486,0,0,1-1.165-.2.4.4,0,0,0-.045-.029,1.755,1.755,0,0,1-.807-1.078,1.731,1.731,0,0,1,.185-1.333l.963-1.621a.233.233,0,0,1,.033-.053.188.188,0,0,1,.021-.041l2.288-3.856v0a1.777,1.777,0,0,1,2.4-.634,1.839,1.839,0,0,1,.7,2.42l-2.288,3.848Zm-4.885-2.745c-.514.819-1.679.811-2.576.543a1.756,1.756,0,0,1-.531-2.35l2.313-3.9a1.783,1.783,0,0,1,2.408-.638A1.837,1.837,0,0,1,32,69.52v0l-2.325,3.922Zm-9.42-7.408a.368.368,0,0,1-.222.2.786.786,0,0,1-.6-.025L11.3,62.689c-.375-.165-.556-.514-.465-.724L18.9,42.939a.372.372,0,0,1,.222-.193.676.676,0,0,1,.259-.049.887.887,0,0,1,.346.074l3.247,1.408L18.315,54.87a1.019,1.019,0,0,0,.527,1.338,1,1,0,0,0,.4.082,1.017,1.017,0,0,0,.934-.609l4.659-10.7,1.6.7s.012,0,.016.008l1.4.6c.383.169.547.519.461.728L20.253,66.039ZM27.862,17.56a1.294,1.294,0,0,1,1.37-1.152H50.258v8.025a2.1,2.1,0,0,0,2.148,2.045h9V44.186l-.543.218A2.823,2.823,0,0,0,59.3,45.9a2.394,2.394,0,0,0-.037,1.86l.708,1.745c-2.473,1.045-4.4,1.675-7.008.358a7.93,7.93,0,0,0-8.284.51,7.958,7.958,0,0,0-8.288-.556c-2.572,1.288-4.477.675-6.9-.358l.7-1.646a2.648,2.648,0,0,0-1.531-3.387l-.794-.346V17.56Zm24.429.115,7.494,6.77H52.406a.185.185,0,0,1-.115-.037Zm20.28,24.782A2.643,2.643,0,0,0,69.1,41.145l-5.659,2.239V25.4a.068.068,0,0,0,0-.029.671.671,0,0,0-.021-.132.184.184,0,0,0,0-.021.948.948,0,0,0-.033-.115.071.071,0,0,1-.008-.021.7.7,0,0,0-.062-.123c0-.008-.008-.012-.012-.021a.8.8,0,0,0-.066-.1.058.058,0,0,0-.012-.017,1.1,1.1,0,0,0-.095-.1s0,0-.008-.008c-.165-.148-10.708-9.671-11.157-10.078,0,0-.008,0-.012-.008-.033-.029-.07-.058-.1-.082a.012.012,0,0,1-.008,0c-.037-.021-.074-.041-.107-.062a.21.21,0,0,0-.029-.012,1.02,1.02,0,0,0-.247-.078.081.081,0,0,1-.033,0,.879.879,0,0,0-.107-.008H29.233a3.3,3.3,0,0,0-3.4,3.185V43.2l-5.3-2.292a2.833,2.833,0,0,0-2.169-.049,2.387,2.387,0,0,0-1.342,1.288L8.961,61.17a2.643,2.643,0,0,0,1.531,3.383l8.132,3.523a2.876,2.876,0,0,0,1.152.239,2.674,2.674,0,0,0,1.017-.193,2.4,2.4,0,0,0,1.333-1.288l.753-1.778,2.033.84A3.185,3.185,0,0,1,26.5,67.771L24.817,70.6a3.786,3.786,0,0,0,1.333,5.194.919.919,0,0,0,.193.091,5.779,5.779,0,0,0,1.807.3h.107a3.8,3.8,0,0,0,.029,1.786,3.76,3.76,0,0,0,1.72,2.309,3.469,3.469,0,0,0,1.91.568,3.688,3.688,0,0,0,.79-.086,3.922,3.922,0,0,0,1.251-.514,3.794,3.794,0,0,0,5.543,1.7,3.757,3.757,0,0,0,3.445,2.218,3.85,3.85,0,0,0,2.77-1.177l1.2.712a3.8,3.8,0,0,0,5.733-3.235,3.83,3.83,0,0,0,4.259-1.733,3.753,3.753,0,0,0,.514-2.235,3.888,3.888,0,0,0,1.169-.115,3.8,3.8,0,0,0,2.691-4.757,3.792,3.792,0,0,0,2.572-5.432l2.461-1,.7,1.716A2.527,2.527,0,0,0,69.4,68.434a2.9,2.9,0,0,0,1.086-.21l8.239-3.259a2.83,2.83,0,0,0,1.568-1.49,2.422,2.422,0,0,0,.033-1.864L72.571,42.458Z" transform="translate(-8.777 -14.375)" fill="#030403"/>
      </g>
    </g>
  </g>
</svg>
