<svg xmlns="http://www.w3.org/2000/svg" xmlns:xlink="http://www.w3.org/1999/xlink" width="118" height="118" viewBox="0 0 118 118">
  <defs>
    <filter id="Trazado_982547" x="0" y="0" width="118" height="118" filterUnits="userSpaceOnUse">
      <feOffset dy="3" input="SourceAlpha"/>
      <feGaussianBlur stdDeviation="3" result="blur"/>
      <feFlood flood-opacity="0.161"/>
      <feComposite operator="in" in2="blur"/>
      <feComposite in="SourceGraphic"/>
    </filter>
  </defs>
  <g id="Grupo_1210857" data-name="Grupo 1210857" transform="translate(-321 -1687.228)">
    <g id="Grupo_1210308" data-name="Grupo 1210308" transform="translate(330 1693.228)">
      <g id="Grupo_1209802" data-name="Grupo 1209802" transform="translate(0 0)">
        <g id="Grupo_1209739" data-name="Grupo 1209739" transform="translate(0)">
          <g id="Grupo_1209277" data-name="Grupo 1209277">
            <g id="Grupo_1208028" data-name="Grupo 1208028">
              <g id="Grupo_1177675" data-name="Grupo 1177675">
                <g id="Grupo_1176928" data-name="Grupo 1176928">
                  <g id="Grupo_1172322" data-name="Grupo 1172322">
                    <g id="Grupo_1164700" data-name="Grupo 1164700">
                      <g id="Grupo_1160931" data-name="Grupo 1160931">
                        <g id="Grupo_1160749" data-name="Grupo 1160749">
                          <g id="Grupo_1158891" data-name="Grupo 1158891">
                            <g id="Grupo_1157406" data-name="Grupo 1157406">
                              <g id="Grupo_1155793" data-name="Grupo 1155793">
                                <g id="Grupo_1154704" data-name="Grupo 1154704">
                                  <g id="Grupo_1150790" data-name="Grupo 1150790">
                                    <g id="Grupo_1154214" data-name="Grupo 1154214">
                                      <g id="Grupo_1152583" data-name="Grupo 1152583">
                                        <g id="Grupo_1146973" data-name="Grupo 1146973">
                                          <g id="Grupo_1146954" data-name="Grupo 1146954">
                                            <g transform="matrix(1, 0, 0, 1, -9, -6)" filter="url(#Trazado_982547)">
                                              <g id="Trazado_982547-2" data-name="Trazado 982547" transform="translate(9 6)" fill="#fef9e5">
                                                <path d="M 50.00000762939453 98.49985504150391 C 43.4518928527832 98.49985504150391 37.10043716430664 97.21774291992188 31.12207984924316 94.68910980224609 C 25.34692192077637 92.24642944335938 20.15996551513672 88.74918365478516 15.70533657073975 84.2945556640625 C 11.25069332122803 79.83992767333984 7.753450393676758 74.65298461914062 5.310764789581299 68.87783050537109 C 2.782136201858521 62.89948654174805 1.500007629394531 56.54804229736328 1.500007629394531 49.99992752075195 C 1.500007629394531 43.45181274414062 2.782136201858521 37.10036849975586 5.310764789581299 31.12202835083008 C 7.753450393676758 25.34687042236328 11.25069332122803 20.15992736816406 15.70533657073975 15.70529937744141 C 20.15996551513672 11.25067043304443 25.34692192077637 7.753427505493164 31.12207984924316 5.310741901397705 C 37.10043716430664 2.782113313674927 43.4518928527832 1.499998927116394 50.00000762939453 1.499998927116394 C 56.54812240600586 1.499998927116394 62.89957809448242 2.782113313674927 68.87793731689453 5.310741901397705 C 74.65310668945312 7.753427505493164 79.84004974365234 11.25067043304443 84.29469299316406 15.70529937744141 C 88.74932098388672 20.15992736816406 92.24656677246094 25.34687042236328 94.68924713134766 31.12202835083008 C 97.21788024902344 37.10036849975586 98.50000762939453 43.45181274414062 98.50000762939453 49.99992752075195 C 98.50000762939453 56.54804229736328 97.21788024902344 62.89948654174805 94.68924713134766 68.87783050537109 C 92.24656677246094 74.65298461914062 88.74932098388672 79.83992767333984 84.29469299316406 84.2945556640625 C 79.84004974365234 88.74918365478516 74.65310668945312 92.24642944335938 68.87793731689453 94.68910980224609 C 62.89957809448242 97.21774291992188 56.54812240600586 98.49985504150391 50.00000762939453 98.49985504150391 Z" stroke="none"/>
                                                <path d="M 50.00000762939453 3.000007629394531 C 43.65373229980469 3.000007629394531 37.49887084960938 4.242263793945312 31.70640563964844 6.692268371582031 C 26.11003875732422 9.059326171875 21.08335876464844 12.44860076904297 16.7659912109375 16.76596069335938 C 12.44862365722656 21.08332824707031 9.059333801269531 26.11000823974609 6.692268371582031 31.70635986328125 C 4.242271423339844 37.49880599975586 3.000007629394531 43.65365219116211 3.000007629394531 49.99992752075195 C 3.000007629394531 56.3462028503418 4.242271423339844 62.50104904174805 6.692268371582031 68.29349517822266 C 9.059333801269531 73.88984680175781 12.44862365722656 78.91652679443359 16.7659912109375 83.23389434814453 C 21.08335876464844 87.55125427246094 26.11003875732422 90.94052886962891 31.70640563964844 93.30758666992188 C 37.49887084960938 95.75759124755859 43.65373229980469 96.99984741210938 50.00000762939453 96.99984741210938 C 56.34628295898438 96.99984741210938 62.50114440917969 95.75759124755859 68.29360961914062 93.30758666992188 C 73.88997650146484 90.94052886962891 78.91665649414062 87.55125427246094 83.23402404785156 83.23389434814453 C 87.5513916015625 78.91652679443359 90.94068145751953 73.88984680175781 93.30774688720703 68.29349517822266 C 95.75774383544922 62.50104904174805 97.00000762939453 56.3462028503418 97.00000762939453 49.99992752075195 C 97.00000762939453 43.65365219116211 95.75774383544922 37.49880599975586 93.30774688720703 31.70635986328125 C 90.94068145751953 26.11000823974609 87.5513916015625 21.08332824707031 83.23402404785156 16.76596069335938 C 78.91665649414062 12.44860076904297 73.88997650146484 9.059326171875 68.29360961914062 6.692268371582031 C 62.50114440917969 4.242263793945312 56.34628295898438 3.000007629394531 50.00000762939453 3.000007629394531 M 50.00000762939453 7.62939453125e-06 C 77.61424255371094 7.62939453125e-06 100.0000076293945 22.38572692871094 100.0000076293945 49.99992752075195 C 100.0000076293945 77.61412811279297 77.61424255371094 99.99984741210938 50.00000762939453 99.99984741210938 C 22.38578033447266 99.99984741210938 7.62939453125e-06 77.61412811279297 7.62939453125e-06 49.99992752075195 C 7.62939453125e-06 22.38572692871094 22.38578033447266 7.62939453125e-06 50.00000762939453 7.62939453125e-06 Z" stroke="none" fill="#f6c810"/>
                                              </g>
                                            </g>
                                          </g>
                                        </g>
                                      </g>
                                    </g>
                                  </g>
                                </g>
                              </g>
                            </g>
                          </g>
                        </g>
                      </g>
                    </g>
                  </g>
                </g>
              </g>
            </g>
          </g>
        </g>
      </g>
    </g>
    <g id="customs_6448709" transform="translate(349.539 1705.68)">
      <g id="Grupo_1210872" data-name="Grupo 1210872" transform="translate(1.147 1.147)">
        <g id="Grupo_1210858" data-name="Grupo 1210858" transform="translate(13.361 33.009)">
          <path id="Trazado_1051400" data-name="Trazado 1051400" d="M136.011,249.039v4.4H124.544v20.641H108.49V246.562h-5.734v-1.147a3.435,3.435,0,0,0-1.547-2.871,9.158,9.158,0,0,1,5.218-3.357l3.892-.9,2.758,8.272,2.293-2.867,1.147,2.867-3.44,16.054,4.587,4.587,4.587-4.587-3.44-16.054,1.147-2.867,2.293,2.867,2.758-8.272,3,.692A10.321,10.321,0,0,1,136.011,249.039Z" transform="translate(-101.21 -238.29)" fill="#b4dd7f"/>
        </g>
        <g id="Grupo_1210859" data-name="Grupo 1210859" transform="translate(25.228 41.281)">
          <path id="Trazado_1051401" data-name="Trazado 1051401" d="M189.734,296l3.44,16.054-4.587,4.587L184,312.054,187.44,296Z" transform="translate(-184 -296)" fill="#ffeaa7"/>
        </g>
        <g id="Grupo_1210860" data-name="Grupo 1210860" transform="translate(27.521 35.548)">
          <path id="Trazado_1051402" data-name="Trazado 1051402" d="M202.293,256l2.293,2.867-1.147,2.867h-2.293L200,258.867Z" transform="translate(-200 -256)" fill="#fcd770"/>
        </g>
        <g id="Grupo_1210861" data-name="Grupo 1210861" transform="translate(29.814 32.108)">
          <path id="Trazado_1051403" data-name="Trazado 1051403" d="M219.44,232l3.9.9-2.758,8.272-2.293-2.867L216,235.44Z" transform="translate(-216 -232)" fill="#a0d468"/>
        </g>
        <g id="Grupo_1210862" data-name="Grupo 1210862" transform="translate(22.47 32.108)">
          <path id="Trazado_1051404" data-name="Trazado 1051404" d="M172.1,235.44l-2.293,2.867-2.293,2.867L164.76,232.9l3.9-.9Z" transform="translate(-164.76 -232)" fill="#a0d468"/>
        </g>
        <g id="Grupo_1210863" data-name="Grupo 1210863" transform="translate(0 41.281)">
          <path id="Trazado_1051405" data-name="Trazado 1051405" d="M28.641,296v27.521H8V296h5.734a2.293,2.293,0,0,0,2.293,2.293h4.587A2.293,2.293,0,0,0,22.907,296Z" transform="translate(-8 -296)" fill="#e6e9ed"/>
        </g>
        <g id="Grupo_1210864" data-name="Grupo 1210864" transform="translate(4.587 52.749)">
          <path id="Trazado_1051406" data-name="Trazado 1051406" d="M40,376H51.467v11.467H40Z" transform="translate(-40 -376)" fill="#ef7385"/>
        </g>
        <g id="Grupo_1210865" data-name="Grupo 1210865" transform="translate(16.054)">
          <path id="Trazado_1051407" data-name="Trazado 1051407" d="M147.521,10.293v5.734a13.837,13.837,0,0,1-1.13,5.477h0a3.427,3.427,0,0,0-2.309-.892h-1.148a2.366,2.366,0,0,0-2.367-2.293h-1.072L139,17.336a2.366,2.366,0,0,0-3.595-.79l-.609.486a16.347,16.347,0,0,1-10.21,3.582H123.44a3.435,3.435,0,0,0-2.311.892A13.849,13.849,0,0,1,120,16.027a4.586,4.586,0,0,1,4.587-4.587l.2-.3a7.062,7.062,0,0,1,9.506-2.137l.956.573a13.055,13.055,0,0,0,6.715,1.861,13.081,13.081,0,0,0,2.091-.169,13,13,0,0,0,2.037-.5Z" transform="translate(-120 -8)" fill="#656d78"/>
        </g>
        <g id="Grupo_1210866" data-name="Grupo 1210866" transform="translate(38.987 12.614)">
          <path id="Trazado_1051408" data-name="Trazado 1051408" d="M279.991,96h1.147a3.44,3.44,0,0,1,0,6.88h-1.147V96.075c0-.024,0-.05,0-.075Z" transform="translate(-279.99 -96)" fill="#f0d0b4"/>
        </g>
        <g id="Grupo_1210867" data-name="Grupo 1210867" transform="translate(20.641 8.027)">
          <path id="Trazado_1051409" data-name="Trazado 1051409" d="M170.347,75.467v3.175a7.167,7.167,0,0,1-4.505,6.654l-.507.2a1.146,1.146,0,0,0-.721,1.065v1.517l-3.44,3.44-3.44-3.44V86.564a1.146,1.146,0,0,0-.721-1.065l-.507-.2A7.167,7.167,0,0,1,152,78.642V68.587A16.347,16.347,0,0,0,162.21,65l.609-.486a2.363,2.363,0,0,1,3.595.79l.493.985h1.072a2.366,2.366,0,0,1,2.367,2.293c0,.024,0,.05,0,.075Z" transform="translate(-152 -64)" fill="#f0d0b4"/>
        </g>
        <g id="Grupo_1210868" data-name="Grupo 1210868" transform="translate(16.054 12.614)">
          <path id="Trazado_1051410" data-name="Trazado 1051410" d="M124.587,96v6.88H123.44a3.44,3.44,0,0,1-2.432-5.873c.04-.04.08-.079.122-.116A3.435,3.435,0,0,1,123.44,96Z" transform="translate(-120 -96)" fill="#f0d0b4"/>
        </g>
        <g id="Grupo_1210869" data-name="Grupo 1210869" transform="translate(5.734 36.695)">
          <path id="Trazado_1051411" data-name="Trazado 1051411" d="M57.174,267.44v1.147a2.293,2.293,0,0,1-2.293,2.293H50.293A2.293,2.293,0,0,1,48,268.587V267.44A3.441,3.441,0,0,1,51.44,264h2.293a3.442,3.442,0,0,1,3.44,3.44Z" transform="translate(-48 -264)" fill="#f0d0b4"/>
        </g>
        <g id="Grupo_1210870" data-name="Grupo 1210870" transform="translate(36.695 48.162)">
          <path id="Trazado_1051412" data-name="Trazado 1051412" d="M264,344h22.934v20.641H264Z" transform="translate(-264 -344)" fill="#d3a06c"/>
        </g>
        <g id="Grupo_1210871" data-name="Grupo 1210871" transform="translate(43.575 48.162)">
          <path id="Trazado_1051413" data-name="Trazado 1051413" d="M316.587,353.174H312V344h9.174v9.174Z" transform="translate(-312 -344)" fill="#b27946"/>
        </g>
      </g>
      <g id="Grupo_1210873" data-name="Grupo 1210873" transform="translate(0 0)">
        <path id="Trazado_1051414" data-name="Trazado 1051414" d="M50.455,48.162V44.9a11.467,11.467,0,0,0-8.889-11.173l-6.018-1.389v-.6l.508-.2a8.274,8.274,0,0,0,5.226-7.719V21.787a4.583,4.583,0,0,0,3.641-7.372,14.89,14.89,0,0,0,.946-5.241V1.849l-2.94.98a11.883,11.883,0,0,1-3.765.611,11.908,11.908,0,0,1-6.126-1.7l-.957-.574A8.206,8.206,0,0,0,21.154,3.475a5.742,5.742,0,0,0-5.1,5.7A14.893,14.893,0,0,0,17,14.415a4.583,4.583,0,0,0,3.641,7.372v2.028a8.274,8.274,0,0,0,5.226,7.719l.507.2v.6l-6.907,1.594a10.347,10.347,0,0,0-5.252,3.047,4.562,4.562,0,0,0-1.6-.289H10.32a4.592,4.592,0,0,0-4.587,4.587H0V71.1H61.922V48.162Zm-2.293,4.587v4.587H45.868v-6.88h6.88v6.88H50.455V52.749Zm0-7.844v3.257H36.695v10.2L33.3,42.53l.286-.715,2.381,2.976,3.094-9.283,1.987.459A9.131,9.131,0,0,1,48.162,44.9Zm-17.2-6.374.981,1.226-.61,1.526h-.741l-.61-1.526Zm-.22,5.045h.439L34.3,58.112l-3.335,3.335-3.335-3.335Zm6.078-8.586-1.692,5.077L32.5,36.78l2.265-2.265Zm4.463-15.5V14.907a2.293,2.293,0,0,1,0,4.587ZM18.347,17.2a2.3,2.3,0,0,1,2.293-2.293v4.587A2.3,2.3,0,0,1,18.347,17.2Zm2.293-4.587a4.561,4.561,0,0,0-1.719.336,12.622,12.622,0,0,1-.574-3.776,3.444,3.444,0,0,1,3.44-3.44H22.4l.538-.807A5.913,5.913,0,0,1,30.9,3.136l.957.574a14.2,14.2,0,0,0,7.306,2.024,14.174,14.174,0,0,0,4.412-.7V9.174A12.617,12.617,0,0,1,43,12.949a4.563,4.563,0,0,0-1.719-.336h-.219a3.52,3.52,0,0,0-3.3-2.293H37.4l-.175-.351A3.514,3.514,0,0,0,31.89,8.8l-.608.486a15.253,15.253,0,0,1-9.494,3.33Zm2.293,11.2V14.869a17.563,17.563,0,0,0,9.78-3.795l.608-.486A1.221,1.221,0,0,1,35.177,11l.809,1.619h1.782a1.222,1.222,0,0,1,1.221,1.221v9.981a5.991,5.991,0,0,1-3.784,5.59l-.508.2a2.282,2.282,0,0,0-1.442,2.129V32.78l-2.293,2.293L28.668,32.78V31.737a2.282,2.282,0,0,0-1.442-2.129l-.507-.2A5.991,5.991,0,0,1,22.934,23.815Zm4.225,10.7,2.265,2.265L26.8,40.066,25.1,34.989ZM8.027,41.281a2.3,2.3,0,0,1,2.293-2.293h2.293a2.3,2.3,0,0,1,2.293,2.293v1.147a1.148,1.148,0,0,1-1.147,1.147H9.174a1.148,1.148,0,0,1-1.147-1.147ZM2.293,43.575H5.931a3.446,3.446,0,0,0,3.243,2.293H13.76A3.446,3.446,0,0,0,17,43.575h3.637V68.8H2.293ZM22.934,68.8V41.281H17.2a4.565,4.565,0,0,0-1.09-2.963,8.048,8.048,0,0,1,3.872-2.147l2.876-.664,3.094,9.283,2.381-2.976.286.715-3.5,16.322,5.839,5.839,5.734-5.734V68.8Zm36.695,0H38.988V50.455h4.587v9.174H55.042V50.455h4.587Z" transform="translate(0 0)"/>
        <path id="Trazado_1051415" data-name="Trazado 1051415" d="M32,381.76H45.76V368H32Zm2.293-11.467h9.174v9.174H34.293Z" transform="translate(-27.413 -315.251)"/>
        <path id="Trazado_1051416" data-name="Trazado 1051416" d="M32,336h2.293v2.293H32Z" transform="translate(-27.413 -287.838)"/>
        <path id="Trazado_1051417" data-name="Trazado 1051417" d="M64,336h9.174v2.293H64Z" transform="translate(-54.826 -287.838)"/>
        <path id="Trazado_1051418" data-name="Trazado 1051418" d="M0,0H6.833V2.293H0Z" transform="translate(8.111 61.35) rotate(-45)"/>
        <path id="Trazado_1051421" data-name="Trazado 1051421" d="M352,448h2.293v2.293H352Z" transform="translate(-301.545 -383.784)"/>
        <path id="Trazado_1051422" data-name="Trazado 1051422" d="M384,448h2.293v2.293H384Z" transform="translate(-328.958 -383.784)"/>
      </g>
    </g>
  </g>
</svg>
