<svg xmlns="http://www.w3.org/2000/svg" xmlns:xlink="http://www.w3.org/1999/xlink" width="118" height="118" viewBox="0 0 118 118">
  <defs>
    <filter id="Trazado_982547" x="0" y="0" width="118" height="118" filterUnits="userSpaceOnUse">
      <feOffset dy="3" input="SourceAlpha"/>
      <feGaussianBlur stdDeviation="3" result="blur"/>
      <feFlood flood-opacity="0.161"/>
      <feComposite operator="in" in2="blur"/>
      <feComposite in="SourceGraphic"/>
    </filter>
  </defs>
  <g id="Grupo_1210880" data-name="Grupo 1210880" transform="translate(-1161 -1687.228)">
    <g id="Grupo_1210310" data-name="Grupo 1210310" transform="translate(1170 1693.228)">
      <g id="Grupo_1209802" data-name="Grupo 1209802" transform="translate(0 0)">
        <g id="Grupo_1209739" data-name="Grupo 1209739" transform="translate(0)">
          <g id="Grupo_1209277" data-name="Grupo 1209277">
            <g id="Grupo_1208028" data-name="Grupo 1208028">
              <g id="Grupo_1177675" data-name="Grupo 1177675">
                <g id="Grupo_1176928" data-name="Grupo 1176928">
                  <g id="Grupo_1172322" data-name="Grupo 1172322">
                    <g id="Grupo_1164700" data-name="Grupo 1164700">
                      <g id="Grupo_1160931" data-name="Grupo 1160931">
                        <g id="Grupo_1160749" data-name="Grupo 1160749">
                          <g id="Grupo_1158891" data-name="Grupo 1158891">
                            <g id="Grupo_1157406" data-name="Grupo 1157406">
                              <g id="Grupo_1155793" data-name="Grupo 1155793">
                                <g id="Grupo_1154704" data-name="Grupo 1154704">
                                  <g id="Grupo_1150790" data-name="Grupo 1150790">
                                    <g id="Grupo_1154214" data-name="Grupo 1154214">
                                      <g id="Grupo_1152583" data-name="Grupo 1152583">
                                        <g id="Grupo_1146973" data-name="Grupo 1146973">
                                          <g id="Grupo_1146954" data-name="Grupo 1146954">
                                            <g transform="matrix(1, 0, 0, 1, -9, -6)" filter="url(#Trazado_982547)">
                                              <g id="Trazado_982547-2" data-name="Trazado 982547" transform="translate(9 6)" fill="#fef9e5">
                                                <path d="M 50.00000762939453 98.49985504150391 C 43.4518928527832 98.49985504150391 37.10043716430664 97.21774291992188 31.12207984924316 94.68910980224609 C 25.34692192077637 92.24642944335938 20.15996551513672 88.74918365478516 15.70533657073975 84.2945556640625 C 11.25069332122803 79.83992767333984 7.753450393676758 74.65298461914062 5.310764789581299 68.87783050537109 C 2.782136201858521 62.89948654174805 1.500007629394531 56.54804229736328 1.500007629394531 49.99992752075195 C 1.500007629394531 43.45181274414062 2.782136201858521 37.10036849975586 5.310764789581299 31.12202835083008 C 7.753450393676758 25.34687042236328 11.25069332122803 20.15992736816406 15.70533657073975 15.70529937744141 C 20.15996551513672 11.25067043304443 25.34692192077637 7.753427505493164 31.12207984924316 5.310741901397705 C 37.10043716430664 2.782113313674927 43.4518928527832 1.499998927116394 50.00000762939453 1.499998927116394 C 56.54812240600586 1.499998927116394 62.89957809448242 2.782113313674927 68.87793731689453 5.310741901397705 C 74.65310668945312 7.753427505493164 79.84004974365234 11.25067043304443 84.29469299316406 15.70529937744141 C 88.74932098388672 20.15992736816406 92.24656677246094 25.34687042236328 94.68924713134766 31.12202835083008 C 97.21788024902344 37.10036849975586 98.50000762939453 43.45181274414062 98.50000762939453 49.99992752075195 C 98.50000762939453 56.54804229736328 97.21788024902344 62.89948654174805 94.68924713134766 68.87783050537109 C 92.24656677246094 74.65298461914062 88.74932098388672 79.83992767333984 84.29469299316406 84.2945556640625 C 79.84004974365234 88.74918365478516 74.65310668945312 92.24642944335938 68.87793731689453 94.68910980224609 C 62.89957809448242 97.21774291992188 56.54812240600586 98.49985504150391 50.00000762939453 98.49985504150391 Z" stroke="none"/>
                                                <path d="M 50.00000762939453 3.000007629394531 C 43.65373229980469 3.000007629394531 37.49887084960938 4.242263793945312 31.70640563964844 6.692268371582031 C 26.11003875732422 9.059326171875 21.08335876464844 12.44860076904297 16.7659912109375 16.76596069335938 C 12.44862365722656 21.08332824707031 9.059333801269531 26.11000823974609 6.692268371582031 31.70635986328125 C 4.242271423339844 37.49880599975586 3.000007629394531 43.65365219116211 3.000007629394531 49.99992752075195 C 3.000007629394531 56.3462028503418 4.242271423339844 62.50104904174805 6.692268371582031 68.29349517822266 C 9.059333801269531 73.88984680175781 12.44862365722656 78.91652679443359 16.7659912109375 83.23389434814453 C 21.08335876464844 87.55125427246094 26.11003875732422 90.94052886962891 31.70640563964844 93.30758666992188 C 37.49887084960938 95.75759124755859 43.65373229980469 96.99984741210938 50.00000762939453 96.99984741210938 C 56.34628295898438 96.99984741210938 62.50114440917969 95.75759124755859 68.29360961914062 93.30758666992188 C 73.88997650146484 90.94052886962891 78.91665649414062 87.55125427246094 83.23402404785156 83.23389434814453 C 87.5513916015625 78.91652679443359 90.94068145751953 73.88984680175781 93.30774688720703 68.29349517822266 C 95.75774383544922 62.50104904174805 97.00000762939453 56.3462028503418 97.00000762939453 49.99992752075195 C 97.00000762939453 43.65365219116211 95.75774383544922 37.49880599975586 93.30774688720703 31.70635986328125 C 90.94068145751953 26.11000823974609 87.5513916015625 21.08332824707031 83.23402404785156 16.76596069335938 C 78.91665649414062 12.44860076904297 73.88997650146484 9.059326171875 68.29360961914062 6.692268371582031 C 62.50114440917969 4.242263793945312 56.34628295898438 3.000007629394531 50.00000762939453 3.000007629394531 M 50.00000762939453 7.62939453125e-06 C 77.61424255371094 7.62939453125e-06 100.0000076293945 22.38572692871094 100.0000076293945 49.99992752075195 C 100.0000076293945 77.61412811279297 77.61424255371094 99.99984741210938 50.00000762939453 99.99984741210938 C 22.38578033447266 99.99984741210938 7.62939453125e-06 77.61412811279297 7.62939453125e-06 49.99992752075195 C 7.62939453125e-06 22.38572692871094 22.38578033447266 7.62939453125e-06 50.00000762939453 7.62939453125e-06 Z" stroke="none" fill="#f6c810"/>
                                              </g>
                                            </g>
                                          </g>
                                        </g>
                                      </g>
                                    </g>
                                  </g>
                                </g>
                              </g>
                            </g>
                          </g>
                        </g>
                      </g>
                    </g>
                  </g>
                </g>
              </g>
            </g>
          </g>
        </g>
      </g>
    </g>
    <g id="skill-development_14274457" transform="translate(1168.292 1703.218)">
      <g id="Grupo_1210879" data-name="Grupo 1210879" transform="translate(21.838 13.137)">
        <g id="Grupo_1210874" data-name="Grupo 1210874" transform="translate(8.994)">
          <path id="Trazado_1051423" data-name="Trazado 1051423" d="M122.448,86.948h7.134v3.58a18.047,18.047,0,0,1,6.493,2.691l2.532-2.532,5.044,5.045-2.532,2.532a18.047,18.047,0,0,1,2.691,6.493h3.58v7.134h-3.58a18.045,18.045,0,0,1-2.691,6.493l2.532,2.532-5.045,5.044-2.532-2.532a18.048,18.048,0,0,1-6.493,2.691V129.7h-7.134v-3.579a18.046,18.046,0,0,1-6.493-2.691l-2.532,2.532-5.044-5.045,2.532-2.532a18.046,18.046,0,0,1-2.691-6.493H104.64v-7.134h3.579a18.046,18.046,0,0,1,2.691-6.493l-2.532-2.532,5.045-5.044,2.532,2.532a18.047,18.047,0,0,1,6.493-2.691Z" transform="translate(-104.64 -86.948)" fill="#ffda2d" fill-rule="evenodd"/>
          <path id="Trazado_1051424" data-name="Trazado 1051424" d="M264.1,90.525a18.078,18.078,0,0,1,7.889,3.721l1.028-1.028a18.045,18.045,0,0,0-6.493-2.691v-3.58H264.1v3.577Zm11.539,7.736a18.046,18.046,0,0,1,2.692,6.495h2.422a18.046,18.046,0,0,0-2.691-6.493l2.532-2.532-5.044-5.045-1.266,1.266,3.887,3.779Zm2.692,13.629a18.047,18.047,0,0,1-2.692,6.495l2.531,2.531-3.833,3.832,1.212,1.212,5.045-5.044-2.532-2.532a18.044,18.044,0,0,0,2.691-6.493h-2.422ZM271.984,122.4a18.075,18.075,0,0,1-7.889,3.721V129.7h2.424v-3.579a18.046,18.046,0,0,0,6.493-2.691Zm9.92-10.509h2.424v-7.134H281.9Z" transform="translate(-241.577 -86.948)" fill="#ffc700" fill-rule="evenodd"/>
          <circle id="Elipse_12835" data-name="Elipse 12835" cx="11.078" cy="11.078" r="11.078" transform="translate(5.703 21.375) rotate(-45)" fill="#eff4f7"/>
          <path id="Trazado_1051425" data-name="Trazado 1051425" d="M188.634,159.863a11.034,11.034,0,0,1,7.189,2.65A11.079,11.079,0,0,0,183.4,180.706a11.079,11.079,0,0,1,5.236-20.842Z" transform="translate(-167.259 -149.566)" fill="#e2e3e3" fill-rule="evenodd"/>
        </g>
        <g id="Grupo_1210875" data-name="Grupo 1210875" transform="translate(25.014 15.709)">
          <path id="Trazado_1051426" data-name="Trazado 1051426" d="M221.047,205.556h-2.332a.633.633,0,0,1-.5-1.021l4.719-6.107a.633.633,0,0,1,1,0l4.719,6.107a.633.633,0,0,1-.5,1.021H225.82v14.558a.832.832,0,0,1-.831.831h-3.112a.832.832,0,0,1-.831-.831V205.556Z" transform="translate(-218.078 -198.182)" fill="#465759" fill-rule="evenodd"/>
          <path id="Trazado_1051427" data-name="Trazado 1051427" d="M221.047,205.556h-2.332a.633.633,0,0,1-.5-1.021l4.719-6.107a.633.633,0,0,1,1,0l.2.265-4.514,5.842a.633.633,0,0,0,.5,1.021h2.332v14.558a.832.832,0,0,0,.831.831h-1.412a.832.832,0,0,1-.831-.831Z" transform="translate(-218.078 -198.182)" fill="#3a484a" fill-rule="evenodd"/>
        </g>
        <g id="Grupo_1210876" data-name="Grupo 1210876" transform="translate(0 29.238)">
          <path id="Trazado_1051428" data-name="Trazado 1051428" d="M40.955,400.941a12.467,12.467,0,0,1,24.863,0,.866.866,0,0,1-.867.935H41.822A.866.866,0,0,1,40.955,400.941Z" transform="translate(-40.952 -375.933)" fill="#72d561" fill-rule="evenodd"/>
          <path id="Trazado_1051429" data-name="Trazado 1051429" d="M121.241,389.458c.361-.032.727-.049,1.1-.049a12.508,12.508,0,0,1,12.432,11.532.866.866,0,0,1-.867.935H131.71a.866.866,0,0,0,.867-.935A12.516,12.516,0,0,0,121.241,389.458Z" transform="translate(-109.903 -375.933)" fill="#3cbe52" fill-rule="evenodd"/>
          <circle id="Elipse_12836" data-name="Elipse 12836" cx="6.738" cy="6.738" r="6.738" transform="translate(5.696)" fill="#ffd6bd"/>
          <path id="Trazado_1051430" data-name="Trazado 1051430" d="M123.383,293.987a6.8,6.8,0,0,0-.924.063,6.738,6.738,0,0,1,0,13.349,6.808,6.808,0,0,0,.924.063,6.738,6.738,0,0,0,0-13.476Z" transform="translate(-110.949 -293.987)" fill="#f9c6aa" fill-rule="evenodd"/>
        </g>
        <g id="Grupo_1210877" data-name="Grupo 1210877" transform="translate(35.87 29.238)">
          <path id="Trazado_1051431" data-name="Trazado 1051431" d="M294.954,400.941a12.467,12.467,0,0,1,24.863,0,.866.866,0,0,1-.867.935H295.821A.866.866,0,0,1,294.954,400.941Z" transform="translate(-294.951 -375.933)" fill="#fc685b" fill-rule="evenodd"/>
          <path id="Trazado_1051432" data-name="Trazado 1051432" d="M375.24,389.458c.361-.032.727-.049,1.1-.049a12.508,12.508,0,0,1,12.432,11.532.866.866,0,0,1-.867.935h-2.192a.866.866,0,0,0,.867-.935A12.515,12.515,0,0,0,375.24,389.458Z" transform="translate(-363.902 -375.933)" fill="#f35244" fill-rule="evenodd"/>
          <circle id="Elipse_12837" data-name="Elipse 12837" cx="6.738" cy="6.738" r="6.738" transform="translate(5.696)" fill="#ffd6bd"/>
          <path id="Trazado_1051433" data-name="Trazado 1051433" d="M377.382,293.987a6.8,6.8,0,0,0-.924.063,6.738,6.738,0,0,1,0,13.349,6.807,6.807,0,0,0,.924.063,6.738,6.738,0,0,0,0-13.476Z" transform="translate(-364.948 -293.987)" fill="#f9c6aa" fill-rule="evenodd"/>
        </g>
        <g id="Grupo_1210878" data-name="Grupo 1210878" transform="translate(16.221 29.237)">
          <path id="Trazado_1051434" data-name="Trazado 1051434" d="M155.819,415.677a14.185,14.185,0,0,1,28.29,0,.986.986,0,0,1-.987,1.064H156.806A.985.985,0,0,1,155.819,415.677Z" transform="translate(-155.817 -387.223)" fill="#64b5f6" fill-rule="evenodd"/>
          <path id="Trazado_1051435" data-name="Trazado 1051435" d="M247.171,402.612c.411-.036.827-.056,1.247-.056a14.232,14.232,0,0,1,14.145,13.121.986.986,0,0,1-.987,1.064h-2.494a.985.985,0,0,0,.987-1.064A14.241,14.241,0,0,0,247.171,402.612Z" transform="translate(-234.27 -387.223)" fill="#42a5f5" fill-rule="evenodd"/>
          <circle id="Elipse_12838" data-name="Elipse 12838" cx="7.667" cy="7.667" r="7.667" transform="translate(6.481)" fill="#ffd6bd"/>
          <path id="Trazado_1051436" data-name="Trazado 1051436" d="M249.608,293.981a7.735,7.735,0,0,0-1.051.072,7.667,7.667,0,0,1,0,15.189,7.667,7.667,0,1,0,1.051-15.261Z" transform="translate(-235.46 -293.981)" fill="#f9c6aa" fill-rule="evenodd"/>
        </g>
      </g>
      <path id="Trazado_1051437" data-name="Trazado 1051437" d="M81.424,67.188A11.384,11.384,0,0,0,70.146,56.981h-.007a11.286,11.286,0,0,0-7.976,3.3,15.4,15.4,0,0,1,4.617,6.9ZM65.215,70.762H39.2a13.056,13.056,0,0,1,26.013,0ZM42.253,60.285a11.286,11.286,0,0,0-7.976-3.3H34.27A11.386,11.386,0,0,0,22.992,67.188H37.637a15.4,15.4,0,0,1,4.617-6.9Zm-7.985-5.564h.009a5.608,5.608,0,1,0-.009,0Zm.15-17.773H31.972V32.076h2.447a1.131,1.131,0,0,0,1.108-.909,16.848,16.848,0,0,1,2.522-6.084,1.132,1.132,0,0,0-.141-1.427l-1.732-1.732,3.446-3.445,1.731,1.733a1.132,1.132,0,0,0,1.427.14,16.858,16.858,0,0,1,6.085-2.521,1.129,1.129,0,0,0,.908-1.108V14.274h4.872v2.449a1.129,1.129,0,0,0,.908,1.108,16.831,16.831,0,0,1,6.085,2.521,1.13,1.13,0,0,0,1.427-.14l1.731-1.733,3.446,3.445-1.733,1.732a1.132,1.132,0,0,0-.141,1.427,16.829,16.829,0,0,1,2.522,6.084A1.131,1.131,0,0,0,70,32.076h2.448v4.872H70a1.13,1.13,0,0,0-1.108.908,16.916,16.916,0,0,1-1.239,3.8A7.88,7.88,0,0,0,62.3,48.482a1.134,1.134,0,0,0-.665.189c-.223.15-.453.292-.683.431A8.753,8.753,0,0,0,59.1,44.584a12.2,12.2,0,1,0-13.783,0A8.754,8.754,0,0,0,43.462,49.1c-.23-.139-.46-.281-.683-.431a1.137,1.137,0,0,0-.665-.189,7.879,7.879,0,0,0-5.348-6.829,16.9,16.9,0,0,1-1.239-3.8,1.129,1.129,0,0,0-1.108-.908Zm16.533-.729v5.117a8.633,8.633,0,0,1,2.513,0V36.22a1.13,1.13,0,0,1,1.13-1.13h1.321l-3.708-4.8L48.5,35.09h1.322a1.129,1.129,0,0,1,1.13,1.13Zm11.2-1.708a9.945,9.945,0,1,0-15.172,8.461,8.782,8.782,0,0,1,1.711-.993v-4.63h-1.2a1.762,1.762,0,0,1-1.394-2.841L50.813,28.4a1.764,1.764,0,0,1,2.79,0l4.72,6.108a1.762,1.762,0,0,1-1.4,2.841h-1.2v4.63a8.8,8.8,0,0,1,1.712.993,9.92,9.92,0,0,0,4.716-8.461ZM52.208,56.578a6.537,6.537,0,1,0-6.537-6.537A6.545,6.545,0,0,0,52.208,56.578Zm-4.85.8a8.81,8.81,0,0,1-3.779-5.63q-.646-.325-1.268-.7l-.589.589a7.892,7.892,0,0,1-2.884,3.875,13.6,13.6,0,0,1,5.249,3.418A15.3,15.3,0,0,1,47.359,57.374Zm18.219-1.861a13.6,13.6,0,0,0-5.249,3.418,15.311,15.311,0,0,0-3.27-1.557,8.812,8.812,0,0,0,3.779-5.63q.647-.325,1.268-.7l.589.588A7.89,7.89,0,0,0,65.578,55.513ZM70.143,43.5a5.609,5.609,0,0,0,0,11.217h.009a5.609,5.609,0,0,0,0-11.217ZM83.7,67.3a1.994,1.994,0,0,1-1.992,2.149H67.325q.106.64.155,1.3a2.115,2.115,0,0,1-2.114,2.278H39.05a2.115,2.115,0,0,1-2.114-2.278c.033-.438.085-.87.155-1.3H22.708A2,2,0,0,1,20.714,67.3a13.663,13.663,0,0,1,9-11.781A7.862,7.862,0,0,1,34.15,41.248a19.55,19.55,0,0,1-.635-2.041H30.841a1.13,1.13,0,0,1-1.13-1.13V30.946a1.129,1.129,0,0,1,1.13-1.13h2.674a19.016,19.016,0,0,1,2.157-5.2l-1.893-1.892a1.131,1.131,0,0,1,0-1.6l5.043-5.043a1.128,1.128,0,0,1,1.6,0l1.892,1.892a19.027,19.027,0,0,1,5.2-2.156V13.144a1.129,1.129,0,0,1,1.13-1.13h7.132a1.129,1.129,0,0,1,1.13,1.13v2.675a19.036,19.036,0,0,1,5.2,2.156L64,16.083a1.131,1.131,0,0,1,1.6,0l5.043,5.043a1.131,1.131,0,0,1,0,1.6l-1.892,1.892a19.071,19.071,0,0,1,2.156,5.2h2.674a1.129,1.129,0,0,1,1.13,1.13v7.132a1.13,1.13,0,0,1-1.13,1.13H70.9a19.1,19.1,0,0,1-.634,2.04A7.863,7.863,0,0,1,74.7,55.517a13.657,13.657,0,0,1,9,11.781Zm.893-33.916H79.079a1.13,1.13,0,0,0,0,2.26h5.515a1.13,1.13,0,0,0,0-2.26ZM71.212,16.637a1.126,1.126,0,0,0,.8-.33L75.9,12.413a1.129,1.129,0,0,0-1.6-1.6l-3.894,3.893a1.13,1.13,0,0,0,.8,1.929ZM26.463,34.512a1.13,1.13,0,0,0-1.13-1.13H19.825a1.13,1.13,0,0,0,0,2.26h5.509A1.13,1.13,0,0,0,26.463,34.512Zm5.943-18.2a1.13,1.13,0,0,0,1.6-1.6l-3.894-3.893a1.129,1.129,0,0,0-1.6,1.6ZM51.078,7.636V2.129a1.13,1.13,0,0,1,2.26,0V7.636a1.13,1.13,0,0,1-2.26,0Z" fill-rule="evenodd"/>
    </g>
  </g>
</svg>
