<svg xmlns="http://www.w3.org/2000/svg" xmlns:xlink="http://www.w3.org/1999/xlink" width="118" height="118" viewBox="0 0 118 118">
  <defs>
    <filter id="Trazado_982547" x="0" y="0" width="118" height="118" filterUnits="userSpaceOnUse">
      <feOffset dy="3" input="SourceAlpha"/>
      <feGaussianBlur stdDeviation="3" result="blur"/>
      <feFlood flood-opacity="0.161"/>
      <feComposite operator="in" in2="blur"/>
      <feComposite in="SourceGraphic"/>
    </filter>
  </defs>
  <g id="Grupo_1210881" data-name="Grupo 1210881" transform="translate(-270.125 -3558.228)">
    <g id="Grupo_1210687" data-name="Grupo 1210687" transform="translate(279.125 3564.228)">
      <g id="Grupo_1209802" data-name="Grupo 1209802" transform="translate(0 0)">
        <g id="Grupo_1209739" data-name="Grupo 1209739" transform="translate(0 0)">
          <g id="Grupo_1209277" data-name="Grupo 1209277">
            <g id="Grupo_1208028" data-name="Grupo 1208028">
              <g id="Grupo_1177675" data-name="Grupo 1177675">
                <g id="Grupo_1176928" data-name="Grupo 1176928">
                  <g id="Grupo_1172322" data-name="Grupo 1172322">
                    <g id="Grupo_1164700" data-name="Grupo 1164700">
                      <g id="Grupo_1160931" data-name="Grupo 1160931">
                        <g id="Grupo_1160749" data-name="Grupo 1160749">
                          <g id="Grupo_1158891" data-name="Grupo 1158891">
                            <g id="Grupo_1157406" data-name="Grupo 1157406">
                              <g id="Grupo_1155793" data-name="Grupo 1155793">
                                <g id="Grupo_1154704" data-name="Grupo 1154704">
                                  <g id="Grupo_1150790" data-name="Grupo 1150790">
                                    <g id="Grupo_1154214" data-name="Grupo 1154214">
                                      <g id="Grupo_1152583" data-name="Grupo 1152583">
                                        <g id="Grupo_1146973" data-name="Grupo 1146973">
                                          <g id="Grupo_1146954" data-name="Grupo 1146954">
                                            <g transform="matrix(1, 0, 0, 1, -9, -6)" filter="url(#Trazado_982547)">
                                              <g id="Trazado_982547-2" data-name="Trazado 982547" transform="translate(9 6)" fill="#fdf4ce">
                                                <path d="M 50.00000762939453 98.49985504150391 C 43.4518928527832 98.49985504150391 37.10043716430664 97.21774291992188 31.12207984924316 94.68910980224609 C 25.34692192077637 92.24642944335938 20.15996551513672 88.74918365478516 15.70533657073975 84.2945556640625 C 11.25069332122803 79.83992767333984 7.753450393676758 74.65298461914062 5.310764789581299 68.87783050537109 C 2.782136201858521 62.89948654174805 1.500007629394531 56.54804229736328 1.500007629394531 49.99992752075195 C 1.500007629394531 43.45181274414062 2.782136201858521 37.10036849975586 5.310764789581299 31.12202835083008 C 7.753450393676758 25.34687042236328 11.25069332122803 20.15992736816406 15.70533657073975 15.70529937744141 C 20.15996551513672 11.25067043304443 25.34692192077637 7.753427505493164 31.12207984924316 5.310741901397705 C 37.10043716430664 2.782113313674927 43.4518928527832 1.499998927116394 50.00000762939453 1.499998927116394 C 56.54812240600586 1.499998927116394 62.89957809448242 2.782113313674927 68.87793731689453 5.310741901397705 C 74.65310668945312 7.753427505493164 79.84004974365234 11.25067043304443 84.29469299316406 15.70529937744141 C 88.74932098388672 20.15992736816406 92.24656677246094 25.34687042236328 94.68924713134766 31.12202835083008 C 97.21788024902344 37.10036849975586 98.50000762939453 43.45181274414062 98.50000762939453 49.99992752075195 C 98.50000762939453 56.54804229736328 97.21788024902344 62.89948654174805 94.68924713134766 68.87783050537109 C 92.24656677246094 74.65298461914062 88.74932098388672 79.83992767333984 84.29469299316406 84.2945556640625 C 79.84004974365234 88.74918365478516 74.65310668945312 92.24642944335938 68.87793731689453 94.68910980224609 C 62.89957809448242 97.21774291992188 56.54812240600586 98.49985504150391 50.00000762939453 98.49985504150391 Z" stroke="none"/>
                                                <path d="M 50.00000762939453 3.000007629394531 C 43.65373229980469 3.000007629394531 37.49887084960938 4.242263793945312 31.70640563964844 6.692268371582031 C 26.11003875732422 9.059326171875 21.08335876464844 12.44860076904297 16.7659912109375 16.76596069335938 C 12.44862365722656 21.08332824707031 9.059333801269531 26.11000823974609 6.692268371582031 31.70635986328125 C 4.242271423339844 37.49880599975586 3.000007629394531 43.65365219116211 3.000007629394531 49.99992752075195 C 3.000007629394531 56.3462028503418 4.242271423339844 62.50104904174805 6.692268371582031 68.29349517822266 C 9.059333801269531 73.88984680175781 12.44862365722656 78.91652679443359 16.7659912109375 83.23389434814453 C 21.08335876464844 87.55125427246094 26.11003875732422 90.94052886962891 31.70640563964844 93.30758666992188 C 37.49887084960938 95.75759124755859 43.65373229980469 96.99984741210938 50.00000762939453 96.99984741210938 C 56.34628295898438 96.99984741210938 62.50114440917969 95.75759124755859 68.29360961914062 93.30758666992188 C 73.88997650146484 90.94052886962891 78.91665649414062 87.55125427246094 83.23402404785156 83.23389434814453 C 87.5513916015625 78.91652679443359 90.94068145751953 73.88984680175781 93.30774688720703 68.29349517822266 C 95.75774383544922 62.50104904174805 97.00000762939453 56.3462028503418 97.00000762939453 49.99992752075195 C 97.00000762939453 43.65365219116211 95.75774383544922 37.49880599975586 93.30774688720703 31.70635986328125 C 90.94068145751953 26.11000823974609 87.5513916015625 21.08332824707031 83.23402404785156 16.76596069335938 C 78.91665649414062 12.44860076904297 73.88997650146484 9.059326171875 68.29360961914062 6.692268371582031 C 62.50114440917969 4.242263793945312 56.34628295898438 3.000007629394531 50.00000762939453 3.000007629394531 M 50.00000762939453 7.62939453125e-06 C 77.61424255371094 7.62939453125e-06 100.0000076293945 22.38572692871094 100.0000076293945 49.99992752075195 C 100.0000076293945 77.61412811279297 77.61424255371094 99.99984741210938 50.00000762939453 99.99984741210938 C 22.38578033447266 99.99984741210938 7.62939453125e-06 77.61412811279297 7.62939453125e-06 49.99992752075195 C 7.62939453125e-06 22.38572692871094 22.38578033447266 7.62939453125e-06 50.00000762939453 7.62939453125e-06 Z" stroke="none" fill="#f6c810"/>
                                              </g>
                                            </g>
                                          </g>
                                        </g>
                                      </g>
                                    </g>
                                  </g>
                                </g>
                              </g>
                            </g>
                          </g>
                        </g>
                      </g>
                    </g>
                  </g>
                </g>
              </g>
            </g>
          </g>
        </g>
      </g>
    </g>
    <g id="project-plan_9805576" transform="translate(291.252 3574.717)">
      <rect id="Rectángulo_419848" data-name="Rectángulo 419848" width="62.443" height="56.342" rx="4.64" transform="translate(6.65 11.34)" fill="#f4f6f8"/>
      <path id="Trazado_1051438" data-name="Trazado 1051438" d="M69.443,14.718v50.3a3.025,3.025,0,0,1-3.025,3.018h-56.4A3.018,3.018,0,0,1,7,65.017v-.826H23.469A42.129,42.129,0,0,0,65.6,22.062V11.7h.82a3.025,3.025,0,0,1,3.025,3.018Z" transform="translate(-0.35 -0.353)" fill="#e4e8eb"/>
      <rect id="Rectángulo_419849" data-name="Rectángulo 419849" width="6.517" height="6.517" rx="1.49" transform="translate(12.134 27.693)" fill="#66d4f1"/>
      <path id="Trazado_1051439" data-name="Trazado 1051439" d="M21.975,37.81v4.553a.969.969,0,0,1-.943,1H16.479a.969.969,0,0,1-.969-.963v-.813h.65a4.078,4.078,0,0,0,4.078-4.072v-.65h.794A.969.969,0,0,1,21.975,37.81Z" transform="translate(-3.324 -9.148)" fill="#4fc0e8"/>
      <rect id="Rectángulo_419850" data-name="Rectángulo 419850" width="6.517" height="6.517" rx="1.49" transform="translate(12.134 38.549)" fill="#b4df80"/>
      <path id="Trazado_1051440" data-name="Trazado 1051440" d="M21.975,54.493v4.586a.969.969,0,0,1-.943.969H16.479a.969.969,0,0,1-.969-.963v-.813h.65A4.078,4.078,0,0,0,20.239,54.2v-.65h.794a.969.969,0,0,1,.943.943Z" transform="translate(-3.324 -14.982)" fill="#9ed26a"/>
      <rect id="Rectángulo_419851" data-name="Rectángulo 419851" width="6.517" height="6.517" rx="1.49" transform="translate(12.134 49.405)" fill="#f76c82"/>
      <path id="Trazado_1051441" data-name="Trazado 1051441" d="M21.975,71.19v4.553a.969.969,0,0,1-.943,1H16.479a.969.969,0,0,1-.969-.963v-.813h.65a4.078,4.078,0,0,0,4.078-4.072v-.65h.794a.969.969,0,0,1,.943.95Z" transform="translate(-3.324 -20.816)" fill="#eb5463"/>
      <rect id="Rectángulo_419852" data-name="Rectángulo 419852" width="6.517" height="6.517" rx="1.49" transform="translate(27.12 27.693)" fill="#b3a4ee"/>
      <rect id="Rectángulo_419853" data-name="Rectángulo 419853" width="6.517" height="6.517" rx="1.49" transform="translate(27.12 38.549)" fill="#fbd277"/>
      <path id="Trazado_1051442" data-name="Trazado 1051442" d="M45,54.493v4.586a.969.969,0,0,1-.969.969H39.479a.969.969,0,0,1-.969-.963v-.813h.65A4.078,4.078,0,0,0,43.239,54.2v-.65h.794a.969.969,0,0,1,.969.943Z" transform="translate(-11.364 -14.982)" fill="#fdcd56"/>
      <path id="Trazado_1051443" data-name="Trazado 1051443" d="M45,37.81v4.553a.969.969,0,0,1-.969,1H39.479a.969.969,0,0,1-.969-.963v-.813h.65a4.078,4.078,0,0,0,4.078-4.072v-.65h.794a.969.969,0,0,1,.969.95Z" transform="translate(-11.364 -9.148)" fill="#ac92ea"/>
      <rect id="Rectángulo_419854" data-name="Rectángulo 419854" width="6.517" height="6.517" rx="1.49" transform="translate(42.106 27.693)" fill="#f76c82"/>
      <rect id="Rectángulo_419855" data-name="Rectángulo 419855" width="6.517" height="6.517" rx="1.49" transform="translate(42.106 38.549)" fill="#b3a4ee"/>
      <path id="Trazado_1051444" data-name="Trazado 1051444" d="M68.027,54.493v4.586a.969.969,0,0,1-1,.969H62.479a.969.969,0,0,1-.969-.963v-.813h.65A4.078,4.078,0,0,0,66.239,54.2v-.65h.794a.969.969,0,0,1,1,.943Z" transform="translate(-19.404 -14.982)" fill="#ac92ea"/>
      <path id="Trazado_1051445" data-name="Trazado 1051445" d="M68.027,37.809v4.553a.969.969,0,0,1-1,1H62.479a.969.969,0,0,1-.969-.963v-.813h.65a4.078,4.078,0,0,0,4.078-4.072v-.65h.794a.969.969,0,0,1,1,.95Z" transform="translate(-19.404 -9.148)" fill="#eb5463"/>
      <rect id="Rectángulo_419856" data-name="Rectángulo 419856" width="6.517" height="6.517" rx="1.49" transform="translate(42.106 49.405)" fill="#b4df80"/>
      <path id="Trazado_1051446" data-name="Trazado 1051446" d="M68.027,71.189v4.553a.969.969,0,0,1-1,1H62.479a.969.969,0,0,1-.969-.963v-.813h.65a4.078,4.078,0,0,0,4.078-4.072v-.65h.794a.969.969,0,0,1,1,.95Z" transform="translate(-19.404 -20.816)" fill="#9ed26a"/>
      <rect id="Rectángulo_419857" data-name="Rectángulo 419857" width="6.517" height="6.517" rx="1.49" transform="translate(57.093 38.549)" fill="#fb836f"/>
      <path id="Trazado_1051447" data-name="Trazado 1051447" d="M91.053,54.493v4.586a.969.969,0,0,1-.969.963H85.479a.969.969,0,0,1-.969-.963v-.807h.65A4.078,4.078,0,0,0,89.239,54.2v-.65h.807a.969.969,0,0,1,1.008.943Z" transform="translate(-27.443 -14.981)" fill="#fa6c51"/>
      <rect id="Rectángulo_419858" data-name="Rectángulo 419858" width="6.517" height="6.517" rx="1.49" transform="translate(57.093 49.405)" fill="#66d4f1"/>
      <path id="Trazado_1051448" data-name="Trazado 1051448" d="M91.053,71.189v4.553a.969.969,0,0,1-.969.963H85.479a.969.969,0,0,1-.969-.963v-.781h.65a4.078,4.078,0,0,0,4.078-4.072v-.65h.807a.969.969,0,0,1,1.008.95Z" transform="translate(-27.443 -20.815)" fill="#4fc0e8"/>
      <path id="Trazado_1051449" data-name="Trazado 1051449" d="M66.069,68.333H9.669A3.675,3.675,0,0,1,6,64.658V14.365A3.675,3.675,0,0,1,9.669,10.69h56.4a3.675,3.675,0,0,1,3.675,3.675V64.658A3.675,3.675,0,0,1,66.069,68.333ZM9.669,11.991A2.374,2.374,0,0,0,7.3,14.365V64.658a2.374,2.374,0,0,0,2.368,2.374h56.4a2.381,2.381,0,0,0,2.374-2.374V14.365a2.381,2.381,0,0,0-2.374-2.374Z" transform="translate(0)"/>
      <path id="Trazado_1051450" data-name="Trazado 1051450" d="M31.54,66.217a.65.65,0,0,1-.65-.65V18.37a.65.65,0,0,1,1.3,0v47.2A.65.65,0,0,1,31.54,66.217Z" transform="translate(-8.7 -2.457)"/>
      <path id="Trazado_1051451" data-name="Trazado 1051451" d="M54.65,66.217a.65.65,0,0,1-.65-.65V18.37a.65.65,0,0,1,1.3,0v47.2A.65.65,0,0,1,54.65,66.217Z" transform="translate(-16.779 -2.457)"/>
      <path id="Trazado_1051452" data-name="Trazado 1051452" d="M77.76,66.217a.65.65,0,0,1-.65-.65V18.37a.65.65,0,1,1,1.3,0v47.2A.65.65,0,0,1,77.76,66.217Z" transform="translate(-24.857 -2.457)"/>
      <path id="Trazado_1051453" data-name="Trazado 1051453" d="M67.288,30.461H12.65a.65.65,0,0,1,0-1.3H67.288a.65.65,0,1,1,0,1.3Z" transform="translate(-2.097 -6.456)"/>
      <path id="Trazado_1051454" data-name="Trazado 1051454" d="M21.74,22.131H14.65a.65.65,0,1,1,0-1.3h7.09a.65.65,0,0,1,0,1.3Z" transform="translate(-2.796 -3.544)"/>
      <path id="Trazado_1051455" data-name="Trazado 1051455" d="M90.84,22.131H83.75a.65.65,0,0,1,0-1.3h7.09a.65.65,0,0,1,0,1.3Z" transform="translate(-26.95 -3.544)"/>
      <path id="Trazado_1051456" data-name="Trazado 1051456" d="M44.766,22.131H37.65a.65.65,0,0,1,0-1.3h7.116a.65.65,0,1,1,0,1.3Z" transform="translate(-10.836 -3.544)"/>
      <path id="Trazado_1051457" data-name="Trazado 1051457" d="M67.826,22.131H60.71a.65.65,0,1,1,0-1.3h7.116a.65.65,0,0,1,0,1.3Z" transform="translate(-18.897 -3.544)"/>
      <path id="Trazado_1051458" data-name="Trazado 1051458" d="M20.686,43.666H16.133a1.62,1.62,0,0,1-1.613-1.62V37.493a1.613,1.613,0,0,1,1.613-1.613h4.553a1.62,1.62,0,0,1,1.62,1.613v4.553A1.626,1.626,0,0,1,20.686,43.666Zm-4.553-6.5a.306.306,0,0,0-.312.312v4.553a.312.312,0,0,0,.312.319h4.553A.319.319,0,0,0,21,42.027V37.474a.312.312,0,0,0-.319-.312Z" transform="translate(-2.978 -8.805)"/>
      <path id="Trazado_1051459" data-name="Trazado 1051459" d="M20.686,60.338H16.133a1.62,1.62,0,0,1-1.613-1.62V54.133a1.613,1.613,0,0,1,1.613-1.613h4.553a1.62,1.62,0,0,1,1.594,1.613v4.553A1.626,1.626,0,0,1,20.686,60.338Zm-4.553-6.5a.306.306,0,0,0-.312.312V58.7a.312.312,0,0,0,.312.319h4.553A.319.319,0,0,0,21,58.7V54.133a.312.312,0,0,0-.319-.312Z" transform="translate(-2.978 -14.622)"/>
      <path id="Trazado_1051460" data-name="Trazado 1051460" d="M20.686,77.046H16.133a1.613,1.613,0,0,1-1.613-1.62V70.873a1.613,1.613,0,0,1,1.613-1.613h4.553a1.62,1.62,0,0,1,1.62,1.613v4.553A1.62,1.62,0,0,1,20.686,77.046Zm-4.553-6.5a.306.306,0,0,0-.312.312v4.553a.312.312,0,0,0,.312.319h4.553A.319.319,0,0,0,21,75.407V70.854a.312.312,0,0,0-.319-.312Z" transform="translate(-2.978 -20.473)"/>
      <path id="Trazado_1051461" data-name="Trazado 1051461" d="M43.686,43.648H39.133a1.62,1.62,0,0,1-1.613-1.62V37.476a1.613,1.613,0,0,1,1.613-1.646h4.553a1.613,1.613,0,0,1,1.62,1.613V42a1.62,1.62,0,0,1-1.62,1.652Zm-4.553-6.5a.306.306,0,0,0-.312.312v4.553a.312.312,0,0,0,.312.319h4.553A.319.319,0,0,0,44,42.009V37.456a.312.312,0,0,0-.319-.312Z" transform="translate(-11.018 -8.788)"/>
      <path id="Trazado_1051462" data-name="Trazado 1051462" d="M43.686,60.338H39.133a1.62,1.62,0,0,1-1.613-1.62V54.133a1.613,1.613,0,0,1,1.613-1.613h4.553a1.613,1.613,0,0,1,1.62,1.613v4.553a1.62,1.62,0,0,1-1.62,1.652Zm-4.553-6.5a.306.306,0,0,0-.312.312V58.7a.312.312,0,0,0,.312.319h4.553A.319.319,0,0,0,44,58.7V54.133a.312.312,0,0,0-.319-.312Z" transform="translate(-11.018 -14.622)"/>
      <path id="Trazado_1051463" data-name="Trazado 1051463" d="M66.686,43.648H62.133a1.62,1.62,0,0,1-1.613-1.62V37.476a1.613,1.613,0,0,1,1.613-1.646h4.553a1.613,1.613,0,0,1,1.62,1.613V42a1.62,1.62,0,0,1-1.62,1.652Zm-4.553-6.517a.306.306,0,0,0-.312.312V42a.312.312,0,0,0,.312.319h4.553A.319.319,0,0,0,67,42V37.443a.312.312,0,0,0-.319-.312Z" transform="translate(-19.057 -8.788)"/>
      <path id="Trazado_1051464" data-name="Trazado 1051464" d="M66.686,60.338H62.133a1.62,1.62,0,0,1-1.613-1.62V54.133a1.613,1.613,0,0,1,1.613-1.613h4.553a1.613,1.613,0,0,1,1.646,1.613v4.553a1.62,1.62,0,0,1-1.646,1.652Zm-4.553-6.517a.306.306,0,0,0-.312.312v4.553a.312.312,0,0,0,.312.319h4.553A.319.319,0,0,0,67,58.686V54.133a.312.312,0,0,0-.319-.312Z" transform="translate(-19.058 -14.622)"/>
      <path id="Trazado_1051465" data-name="Trazado 1051465" d="M66.686,77.028H62.133a1.613,1.613,0,0,1-1.613-1.62V70.856a1.613,1.613,0,0,1,1.613-1.646h4.553a1.613,1.613,0,0,1,1.62,1.613v4.553a1.613,1.613,0,0,1-1.62,1.652Zm-4.553-6.517a.306.306,0,0,0-.312.312v4.553a.312.312,0,0,0,.312.319h4.553A.319.319,0,0,0,67,75.376V70.823a.312.312,0,0,0-.319-.312Z" transform="translate(-19.057 -20.456)"/>
      <path id="Trazado_1051466" data-name="Trazado 1051466" d="M89.738,60.338H85.133a1.62,1.62,0,0,1-1.613-1.62V54.133a1.613,1.613,0,0,1,1.613-1.613h4.553a1.613,1.613,0,0,1,1.672,1.613v4.553a1.62,1.62,0,0,1-1.62,1.652Zm-4.553-6.5a.306.306,0,0,0-.312.312V58.7a.312.312,0,0,0,.312.319h4.553a.319.319,0,0,0,.319-.319V54.133a.312.312,0,0,0-.319-.312Z" transform="translate(-27.097 -14.621)"/>
      <path id="Trazado_1051467" data-name="Trazado 1051467" d="M89.738,77.028H85.133a1.613,1.613,0,0,1-1.613-1.62V70.856a1.613,1.613,0,0,1,1.613-1.646h4.553a1.613,1.613,0,0,1,1.62,1.613v4.553a1.613,1.613,0,0,1-1.568,1.652Zm-4.553-6.5a.306.306,0,0,0-.312.312v4.553a.312.312,0,0,0,.312.319h4.553a.319.319,0,0,0,.319-.319V70.836a.312.312,0,0,0-.319-.312Z" transform="translate(-27.097 -20.456)"/>
    </g>
  </g>
</svg>
