<svg xmlns="http://www.w3.org/2000/svg" xmlns:xlink="http://www.w3.org/1999/xlink" width="118" height="118" viewBox="0 0 118 118">
  <defs>
    <filter id="Trazado_982547" x="0" y="0" width="118" height="118" filterUnits="userSpaceOnUse">
      <feOffset dy="3" input="SourceAlpha"/>
      <feGaussianBlur stdDeviation="3" result="blur"/>
      <feFlood flood-opacity="0.161"/>
      <feComposite operator="in" in2="blur"/>
      <feComposite in="SourceGraphic"/>
    </filter>
  </defs>
  <g id="Grupo_1210837" data-name="Grupo 1210837" transform="translate(-1215.125 -2920.179)">
    <g id="Grupo_1210301" data-name="Grupo 1210301" transform="translate(1224.125 2926.179)">
      <g id="Grupo_1209802" data-name="Grupo 1209802" transform="translate(0 0)">
        <g id="Grupo_1209739" data-name="Grupo 1209739" transform="translate(0 0)">
          <g id="Grupo_1209277" data-name="Grupo 1209277">
            <g id="Grupo_1208028" data-name="Grupo 1208028">
              <g id="Grupo_1177675" data-name="Grupo 1177675">
                <g id="Grupo_1176928" data-name="Grupo 1176928">
                  <g id="Grupo_1172322" data-name="Grupo 1172322">
                    <g id="Grupo_1164700" data-name="Grupo 1164700">
                      <g id="Grupo_1160931" data-name="Grupo 1160931">
                        <g id="Grupo_1160749" data-name="Grupo 1160749">
                          <g id="Grupo_1158891" data-name="Grupo 1158891">
                            <g id="Grupo_1157406" data-name="Grupo 1157406">
                              <g id="Grupo_1155793" data-name="Grupo 1155793">
                                <g id="Grupo_1154704" data-name="Grupo 1154704">
                                  <g id="Grupo_1150790" data-name="Grupo 1150790">
                                    <g id="Grupo_1154214" data-name="Grupo 1154214">
                                      <g id="Grupo_1152583" data-name="Grupo 1152583">
                                        <g id="Grupo_1146973" data-name="Grupo 1146973">
                                          <g id="Grupo_1146954" data-name="Grupo 1146954">
                                            <g transform="matrix(1, 0, 0, 1, -9, -6)" filter="url(#Trazado_982547)">
                                              <g id="Trazado_982547-2" data-name="Trazado 982547" transform="translate(9 6)" fill="#fdf4ce">
                                                <path d="M 50.00000762939453 98.49985504150391 C 43.4518928527832 98.49985504150391 37.10043716430664 97.21774291992188 31.12207984924316 94.68910980224609 C 25.34692192077637 92.24642944335938 20.15996551513672 88.74918365478516 15.70533657073975 84.2945556640625 C 11.25069332122803 79.83992767333984 7.753450393676758 74.65298461914062 5.310764789581299 68.87783050537109 C 2.782136201858521 62.89948654174805 1.500007629394531 56.54804229736328 1.500007629394531 49.99992752075195 C 1.500007629394531 43.45181274414062 2.782136201858521 37.10036849975586 5.310764789581299 31.12202835083008 C 7.753450393676758 25.34687042236328 11.25069332122803 20.15992736816406 15.70533657073975 15.70529937744141 C 20.15996551513672 11.25067043304443 25.34692192077637 7.753427505493164 31.12207984924316 5.310741901397705 C 37.10043716430664 2.782113313674927 43.4518928527832 1.499998927116394 50.00000762939453 1.499998927116394 C 56.54812240600586 1.499998927116394 62.89957809448242 2.782113313674927 68.87793731689453 5.310741901397705 C 74.65310668945312 7.753427505493164 79.84004974365234 11.25067043304443 84.29469299316406 15.70529937744141 C 88.74932098388672 20.15992736816406 92.24656677246094 25.34687042236328 94.68924713134766 31.12202835083008 C 97.21788024902344 37.10036849975586 98.50000762939453 43.45181274414062 98.50000762939453 49.99992752075195 C 98.50000762939453 56.54804229736328 97.21788024902344 62.89948654174805 94.68924713134766 68.87783050537109 C 92.24656677246094 74.65298461914062 88.74932098388672 79.83992767333984 84.29469299316406 84.2945556640625 C 79.84004974365234 88.74918365478516 74.65310668945312 92.24642944335938 68.87793731689453 94.68910980224609 C 62.89957809448242 97.21774291992188 56.54812240600586 98.49985504150391 50.00000762939453 98.49985504150391 Z" stroke="none"/>
                                                <path d="M 50.00000762939453 3.000007629394531 C 43.65373229980469 3.000007629394531 37.49887084960938 4.242263793945312 31.70640563964844 6.692268371582031 C 26.11003875732422 9.059326171875 21.08335876464844 12.44860076904297 16.7659912109375 16.76596069335938 C 12.44862365722656 21.08332824707031 9.059333801269531 26.11000823974609 6.692268371582031 31.70635986328125 C 4.242271423339844 37.49880599975586 3.000007629394531 43.65365219116211 3.000007629394531 49.99992752075195 C 3.000007629394531 56.3462028503418 4.242271423339844 62.50104904174805 6.692268371582031 68.29349517822266 C 9.059333801269531 73.88984680175781 12.44862365722656 78.91652679443359 16.7659912109375 83.23389434814453 C 21.08335876464844 87.55125427246094 26.11003875732422 90.94052886962891 31.70640563964844 93.30758666992188 C 37.49887084960938 95.75759124755859 43.65373229980469 96.99984741210938 50.00000762939453 96.99984741210938 C 56.34628295898438 96.99984741210938 62.50114440917969 95.75759124755859 68.29360961914062 93.30758666992188 C 73.88997650146484 90.94052886962891 78.91665649414062 87.55125427246094 83.23402404785156 83.23389434814453 C 87.5513916015625 78.91652679443359 90.94068145751953 73.88984680175781 93.30774688720703 68.29349517822266 C 95.75774383544922 62.50104904174805 97.00000762939453 56.3462028503418 97.00000762939453 49.99992752075195 C 97.00000762939453 43.65365219116211 95.75774383544922 37.49880599975586 93.30774688720703 31.70635986328125 C 90.94068145751953 26.11000823974609 87.5513916015625 21.08332824707031 83.23402404785156 16.76596069335938 C 78.91665649414062 12.44860076904297 73.88997650146484 9.059326171875 68.29360961914062 6.692268371582031 C 62.50114440917969 4.242263793945312 56.34628295898438 3.000007629394531 50.00000762939453 3.000007629394531 M 50.00000762939453 7.62939453125e-06 C 77.61424255371094 7.62939453125e-06 100.0000076293945 22.38572692871094 100.0000076293945 49.99992752075195 C 100.0000076293945 77.61412811279297 77.61424255371094 99.99984741210938 50.00000762939453 99.99984741210938 C 22.38578033447266 99.99984741210938 7.62939453125e-06 77.61412811279297 7.62939453125e-06 49.99992752075195 C 7.62939453125e-06 22.38572692871094 22.38578033447266 7.62939453125e-06 50.00000762939453 7.62939453125e-06 Z" stroke="none" fill="#f6c810"/>
                                              </g>
                                            </g>
                                          </g>
                                        </g>
                                      </g>
                                    </g>
                                  </g>
                                </g>
                              </g>
                            </g>
                          </g>
                        </g>
                      </g>
                    </g>
                  </g>
                </g>
              </g>
            </g>
          </g>
        </g>
      </g>
    </g>
    <g id="plan_14105621" transform="translate(1227.55 2928.552)">
      <path id="Trazado_1051365" data-name="Trazado 1051365" d="M53.473,20.618H65.861a3.075,3.075,0,0,1,3.068,3.067v5.838h3.117a3.431,3.431,0,0,1,3.422,3.422V34.68h2.818A3.431,3.431,0,0,1,81.709,38.1v7.751a3.339,3.339,0,0,1-2.9,3.355l-.274,3.37a.838.838,0,0,1-1.4.555l-4.263-3.857H68.931V76.146a3.075,3.075,0,0,1-3.068,3.068H22.508a3.073,3.073,0,0,1-3.068-3.068V23.685a3.073,3.073,0,0,1,3.068-3.067H34.9v-.251a.841.841,0,0,1,.841-.841h3.73a3.7,3.7,0,0,1-.5-1.511,1.99,1.99,0,0,1,1.986-1.974h6.461a1.974,1.974,0,0,1,1.8,2.806l-.313.684h3.732a.841.841,0,0,1,.836.836Z" fill-rule="evenodd"/>
      <path id="Trazado_1051366" data-name="Trazado 1051366" d="M278,65.978h10.546a.841.841,0,0,1,.841.841v3.995h2.388V64.976a1.393,1.393,0,0,0-1.386-1.386H278Z" transform="translate(-224.527 -41.291)" fill="#0a5f80" fill-rule="evenodd"/>
      <path id="Trazado_1051367" data-name="Trazado 1051367" d="M101.119,97.629V94.47H91.412v.25a.841.841,0,0,1-.841.841H73.677a.841.841,0,0,1-.841-.841v-.25H63.13v47.1h37.989V117.373a3.437,3.437,0,0,1-3.066-2.85l-1.726,1.561a.838.838,0,0,1-1.4-.555l-.274-3.37a3.343,3.343,0,0,1-2.9-3.355v-7.751a3.433,3.433,0,0,1,3.422-3.422Zm-35,40.676a.841.841,0,1,1,0-1.682h7.937a.841.841,0,0,1,0,1.682Zm25.93,0a.841.841,0,0,1,0-1.682h6.089a.841.841,0,0,1,0,1.682Zm-25.93-4.946a.841.841,0,1,1,0-1.682h5.3a.841.841,0,1,1,0,1.682Zm26.72,0a.841.841,0,1,1,0-1.682h5.3a.841.841,0,1,1,0,1.682Zm-26.72-4.948a.841.841,0,1,1,0-1.681h6.065a.841.841,0,1,1,0,1.681Zm25.506,0a.841.841,0,1,1,0-1.681h6.507a.841.841,0,1,1,0,1.681ZM66.118,105.928a.841.841,0,1,1,0-1.682H80.947a.841.841,0,0,1,0,1.682Zm0-4.662a.841.841,0,1,1,0-1.682h11.32a.841.841,0,0,1,0,1.682ZM85.7,97.145a3.261,3.261,0,1,1-3.262,3.262A3.265,3.265,0,0,1,85.7,97.145Zm-2.124,12.446a.84.84,0,0,1-1.241-1.131l2.711-2.979a.837.837,0,0,1,1.3-.009c.921.975,1.816,2,2.719,2.988a.84.84,0,1,1-1.241,1.131l-1.278-1.411v1.4a13.928,13.928,0,0,1-13.886,13.886.841.841,0,0,1,0-1.682,12.24,12.24,0,0,0,12.2-12.2v-1.4l-1.283,1.411Zm5.735,25.752a.839.839,0,1,1,.308,1.649L86.9,137.5a.836.836,0,0,1-1.028-.79l-.249-2.742a.838.838,0,0,1,1.669-.151l.066.716a5.969,5.969,0,0,0-6.775-8.657.84.84,0,0,1-.433-1.623,7.647,7.647,0,0,1,8.617,11.188ZM74.942,127.95a.838.838,0,1,1-.309-1.648l2.718-.512a.837.837,0,0,1,1.028.79l.253,2.736a.838.838,0,1,1-1.669.151l-.066-.715a5.97,5.97,0,0,0,6.773,8.663.84.84,0,1,1,.434,1.623,7.649,7.649,0,0,1-8.617-11.188l-.545.1Zm13.414-5.111a.841.841,0,1,1-1.185-1.185l1.324-1.323-1.324-1.324a.841.841,0,1,1,1.185-1.185l1.324,1.324L91,117.823a.841.841,0,0,1,1.185,1.185l-1.324,1.324,1.324,1.323A.841.841,0,1,1,91,122.839l-1.324-1.324Zm-12.837-8.313a.841.841,0,0,1-1.185-1.185l1.324-1.324-1.324-1.324a.841.841,0,0,1,1.185-1.185l1.324,1.324,1.324-1.324a.841.841,0,0,1,1.185,1.185l-1.323,1.324,1.323,1.324a.841.841,0,0,1-1.185,1.185L76.843,113.2Z" transform="translate(-37.939 -68.107)" fill="#f2f2f2" fill-rule="evenodd"/>
      <path id="Trazado_1051368" data-name="Trazado 1051368" d="M75.959,90.572V115.6a.841.841,0,0,1-.841.84H35.447a.84.84,0,0,1-.84-.84V66.819a.841.841,0,0,1,.84-.841H45.994V63.59H33.606a1.393,1.393,0,0,0-1.386,1.386v52.461a1.393,1.393,0,0,0,1.386,1.386H76.96a1.393,1.393,0,0,0,1.386-1.386V90.572Z" transform="translate(-11.098 -41.291)" fill="#0a5f80" fill-rule="evenodd"/>
      <path id="Trazado_1051369" data-name="Trazado 1051369" d="M160.658,32.244a.84.84,0,0,1-.731-1.256l.825-1.811a.3.3,0,0,0-.276-.428h-6.457a.3.3,0,0,0-.276.428l.825,1.807a.84.84,0,0,1-.732,1.256h-4.2v4.571h15.214V32.244Z" transform="translate(-113.063 -11.037)" fill="#919091" fill-rule="evenodd"/>
      <path id="Trazado_1051370" data-name="Trazado 1051370" d="M299.665,142.749a.841.841,0,0,1,.62-.272H310a1.749,1.749,0,0,0,1.743-1.743v-7.751A1.749,1.749,0,0,0,310,131.24H295.2a1.749,1.749,0,0,0-1.743,1.743v7.751a1.767,1.767,0,0,0,1.991,1.743.841.841,0,0,1,.844.775l.192,2.378,3.184-2.881Zm8.767-5.89a.84.84,0,1,1-.245-.6A.841.841,0,0,1,308.432,136.859Zm-4.99,0a.841.841,0,1,1-.246-.6A.841.841,0,0,1,303.442,136.859Zm-4.991,0a.841.841,0,1,1-.246-.6A.841.841,0,0,1,298.451,136.859Z" transform="translate(-237.952 -100.037)" fill="#f7ba2d" fill-rule="evenodd"/>
      <path id="Trazado_1051371" data-name="Trazado 1051371" d="M340.841,179.013c0,.85-.109,1.529.512,2.151a2.081,2.081,0,0,0,1.757.513H352.3a.835.835,0,0,1,.62.272l3.185,2.881.191-2.378a.841.841,0,0,1,.837-.775,1.767,1.767,0,0,0,1.991-1.743v-7.751a1.749,1.749,0,0,0-1.743-1.743h-2.818v4.334a3.431,3.431,0,0,1-3.422,3.422h-9.4Z" transform="translate(-279.091 -134.077)" fill="#f5c22b" fill-rule="evenodd"/>
      <path id="Trazado_1051372" data-name="Trazado 1051372" d="M225.284,128.041a1.579,1.579,0,1,0,.465,1.119A1.579,1.579,0,0,0,225.284,128.041Z" transform="translate(-176.41 -96.859)" fill="#ef6262" fill-rule="evenodd"/>
    </g>
  </g>
</svg>
