<svg xmlns="http://www.w3.org/2000/svg" xmlns:xlink="http://www.w3.org/1999/xlink" width="118" height="118" viewBox="0 0 118 118">
  <defs>
    <filter id="Trazado_982547" x="0" y="0" width="118" height="118" filterUnits="userSpaceOnUse">
      <feOffset dy="3" input="SourceAlpha"/>
      <feGaussianBlur stdDeviation="3" result="blur"/>
      <feFlood flood-opacity="0.161"/>
      <feComposite operator="in" in2="blur"/>
      <feComposite in="SourceGraphic"/>
    </filter>
  </defs>
  <g id="Grupo_1210883" data-name="Grupo 1210883" transform="translate(-900.125 -3558.228)">
    <g id="Grupo_1210689" data-name="Grupo 1210689" transform="translate(909.125 3564.228)">
      <g id="Grupo_1209802" data-name="Grupo 1209802" transform="translate(0 0)">
        <g id="Grupo_1209739" data-name="Grupo 1209739" transform="translate(0 0)">
          <g id="Grupo_1209277" data-name="Grupo 1209277">
            <g id="Grupo_1208028" data-name="Grupo 1208028">
              <g id="Grupo_1177675" data-name="Grupo 1177675">
                <g id="Grupo_1176928" data-name="Grupo 1176928">
                  <g id="Grupo_1172322" data-name="Grupo 1172322">
                    <g id="Grupo_1164700" data-name="Grupo 1164700">
                      <g id="Grupo_1160931" data-name="Grupo 1160931">
                        <g id="Grupo_1160749" data-name="Grupo 1160749">
                          <g id="Grupo_1158891" data-name="Grupo 1158891">
                            <g id="Grupo_1157406" data-name="Grupo 1157406">
                              <g id="Grupo_1155793" data-name="Grupo 1155793">
                                <g id="Grupo_1154704" data-name="Grupo 1154704">
                                  <g id="Grupo_1150790" data-name="Grupo 1150790">
                                    <g id="Grupo_1154214" data-name="Grupo 1154214">
                                      <g id="Grupo_1152583" data-name="Grupo 1152583">
                                        <g id="Grupo_1146973" data-name="Grupo 1146973">
                                          <g id="Grupo_1146954" data-name="Grupo 1146954">
                                            <g transform="matrix(1, 0, 0, 1, -9, -6)" filter="url(#Trazado_982547)">
                                              <g id="Trazado_982547-2" data-name="Trazado 982547" transform="translate(9 6)" fill="#fdf4ce">
                                                <path d="M 50.00000762939453 98.49985504150391 C 43.4518928527832 98.49985504150391 37.10043716430664 97.21774291992188 31.12207984924316 94.68910980224609 C 25.34692192077637 92.24642944335938 20.15996551513672 88.74918365478516 15.70533657073975 84.2945556640625 C 11.25069332122803 79.83992767333984 7.753450393676758 74.65298461914062 5.310764789581299 68.87783050537109 C 2.782136201858521 62.89948654174805 1.500007629394531 56.54804229736328 1.500007629394531 49.99992752075195 C 1.500007629394531 43.45181274414062 2.782136201858521 37.10036849975586 5.310764789581299 31.12202835083008 C 7.753450393676758 25.34687042236328 11.25069332122803 20.15992736816406 15.70533657073975 15.70529937744141 C 20.15996551513672 11.25067043304443 25.34692192077637 7.753427505493164 31.12207984924316 5.310741901397705 C 37.10043716430664 2.782113313674927 43.4518928527832 1.499998927116394 50.00000762939453 1.499998927116394 C 56.54812240600586 1.499998927116394 62.89957809448242 2.782113313674927 68.87793731689453 5.310741901397705 C 74.65310668945312 7.753427505493164 79.84004974365234 11.25067043304443 84.29469299316406 15.70529937744141 C 88.74932098388672 20.15992736816406 92.24656677246094 25.34687042236328 94.68924713134766 31.12202835083008 C 97.21788024902344 37.10036849975586 98.50000762939453 43.45181274414062 98.50000762939453 49.99992752075195 C 98.50000762939453 56.54804229736328 97.21788024902344 62.89948654174805 94.68924713134766 68.87783050537109 C 92.24656677246094 74.65298461914062 88.74932098388672 79.83992767333984 84.29469299316406 84.2945556640625 C 79.84004974365234 88.74918365478516 74.65310668945312 92.24642944335938 68.87793731689453 94.68910980224609 C 62.89957809448242 97.21774291992188 56.54812240600586 98.49985504150391 50.00000762939453 98.49985504150391 Z" stroke="none"/>
                                                <path d="M 50.00000762939453 3.000007629394531 C 43.65373229980469 3.000007629394531 37.49887084960938 4.242263793945312 31.70640563964844 6.692268371582031 C 26.11003875732422 9.059326171875 21.08335876464844 12.44860076904297 16.7659912109375 16.76596069335938 C 12.44862365722656 21.08332824707031 9.059333801269531 26.11000823974609 6.692268371582031 31.70635986328125 C 4.242271423339844 37.49880599975586 3.000007629394531 43.65365219116211 3.000007629394531 49.99992752075195 C 3.000007629394531 56.3462028503418 4.242271423339844 62.50104904174805 6.692268371582031 68.29349517822266 C 9.059333801269531 73.88984680175781 12.44862365722656 78.91652679443359 16.7659912109375 83.23389434814453 C 21.08335876464844 87.55125427246094 26.11003875732422 90.94052886962891 31.70640563964844 93.30758666992188 C 37.49887084960938 95.75759124755859 43.65373229980469 96.99984741210938 50.00000762939453 96.99984741210938 C 56.34628295898438 96.99984741210938 62.50114440917969 95.75759124755859 68.29360961914062 93.30758666992188 C 73.88997650146484 90.94052886962891 78.91665649414062 87.55125427246094 83.23402404785156 83.23389434814453 C 87.5513916015625 78.91652679443359 90.94068145751953 73.88984680175781 93.30774688720703 68.29349517822266 C 95.75774383544922 62.50104904174805 97.00000762939453 56.3462028503418 97.00000762939453 49.99992752075195 C 97.00000762939453 43.65365219116211 95.75774383544922 37.49880599975586 93.30774688720703 31.70635986328125 C 90.94068145751953 26.11000823974609 87.5513916015625 21.08332824707031 83.23402404785156 16.76596069335938 C 78.91665649414062 12.44860076904297 73.88997650146484 9.059326171875 68.29360961914062 6.692268371582031 C 62.50114440917969 4.242263793945312 56.34628295898438 3.000007629394531 50.00000762939453 3.000007629394531 M 50.00000762939453 7.62939453125e-06 C 77.61424255371094 7.62939453125e-06 100.0000076293945 22.38572692871094 100.0000076293945 49.99992752075195 C 100.0000076293945 77.61412811279297 77.61424255371094 99.99984741210938 50.00000762939453 99.99984741210938 C 22.38578033447266 99.99984741210938 7.62939453125e-06 77.61412811279297 7.62939453125e-06 49.99992752075195 C 7.62939453125e-06 22.38572692871094 22.38578033447266 7.62939453125e-06 50.00000762939453 7.62939453125e-06 Z" stroke="none" fill="#f6c810"/>
                                              </g>
                                            </g>
                                          </g>
                                        </g>
                                      </g>
                                    </g>
                                  </g>
                                </g>
                              </g>
                            </g>
                          </g>
                        </g>
                      </g>
                    </g>
                  </g>
                </g>
              </g>
            </g>
          </g>
        </g>
      </g>
    </g>
    <g id="tactics_2070575" transform="translate(928.091 3583.933)">
      <path id="Trazado_1051468" data-name="Trazado 1051468" d="M42.283,48H20.969L20,51.875H43.252" transform="translate(-0.592 -1.465)" fill="#442518"/>
      <path id="Trazado_1051469" data-name="Trazado 1051469" d="M11,61.314,18.751,40h4.844L15.844,61.314" transform="translate(-0.312 -1.216)" fill="#815643"/>
      <path id="Trazado_1051470" data-name="Trazado 1051470" d="M52.595,61.314,44.844,40H40l7.751,21.314" transform="translate(-1.216 -1.216)" fill="#815643"/>
      <path id="Trazado_1051471" data-name="Trazado 1051471" d="M2,2H60.129V38.815H2Z" transform="translate(-0.031 -0.031)" fill="#a1cdfb"/>
      <path id="Trazado_1051472" data-name="Trazado 1051472" d="M2,29.905a41.893,41.893,0,0,0,22.283,6c18.193,0,32.94-10.193,32.94-22.767A17.567,17.567,0,0,0,53.007,2H2Z" transform="translate(-0.031 -0.031)" fill="#c7e2fc"/>
      <path id="Trazado_1051473" data-name="Trazado 1051473" d="M1,61H61.067v1.938H1Z" transform="translate(0 -1.871)"/>
      <path id="Trazado_1051474" data-name="Trazado 1051474" d="M60.1,39.753H1.969A.969.969,0,0,1,1,38.784V1.969A.969.969,0,0,1,1.969,1H60.1a.969.969,0,0,1,.969.969V38.784A.969.969,0,0,1,60.1,39.753ZM2.938,37.815H59.129V2.938H2.938Z"/>
      <path id="Trazado_1051475" data-name="Trazado 1051475" d="M0,0H22.679V1.937H0Z" transform="translate(14.633 59.77) rotate(-70.007)"/>
      <path id="Trazado_1051476" data-name="Trazado 1051476" d="M0,0H22.679V1.937H0Z" transform="translate(9.789 59.771) rotate(-70.007)"/>
      <path id="Trazado_1051477" data-name="Trazado 1051477" d="M0,0H1.937V22.679H0Z" transform="translate(37.892 39.112) rotate(-19.993)"/>
      <path id="Trazado_1051478" data-name="Trazado 1051478" d="M0,0H1.937V22.679H0Z" transform="translate(42.737 39.111) rotate(-19.993)"/>
      <path id="Trazado_1051479" data-name="Trazado 1051479" d="M20,51H43.252v1.938H20Z" transform="translate(-0.592 -1.559)"/>
      <path id="Trazado_1051480" data-name="Trazado 1051480" d="M21,47H42.314v1.938H21Z" transform="translate(-0.624 -1.434)"/>
      <path id="Trazado_1051481" data-name="Trazado 1051481" d="M9.906,23.813a2.906,2.906,0,1,1,2.906-2.906A2.91,2.91,0,0,1,9.906,23.813Zm0-3.875a.969.969,0,1,0,.969.969A.97.97,0,0,0,9.906,19.938Z" transform="translate(-0.187 -0.53)"/>
      <path id="Trazado_1051482" data-name="Trazado 1051482" d="M19.906,23.813a2.906,2.906,0,1,1,2.906-2.906A2.91,2.91,0,0,1,19.906,23.813Zm0-3.875a.969.969,0,1,0,.969.969A.97.97,0,0,0,19.906,19.938Z" transform="translate(-0.499 -0.53)"/>
      <path id="Trazado_1051483" data-name="Trazado 1051483" d="M39.906,23.813a2.906,2.906,0,1,1,2.906-2.906A2.91,2.91,0,0,1,39.906,23.813Zm0-3.875a.969.969,0,1,0,.969.969A.97.97,0,0,0,39.906,19.938Z" transform="translate(-1.122 -0.53)"/>
      <path id="Trazado_1051484" data-name="Trazado 1051484" d="M49.906,23.813a2.906,2.906,0,1,1,2.906-2.906A2.91,2.91,0,0,1,49.906,23.813Zm0-3.875a.969.969,0,1,0,.969.969A.97.97,0,0,0,49.906,19.938Z" transform="translate(-1.434 -0.53)"/>
      <path id="Trazado_1051485" data-name="Trazado 1051485" d="M29.159,25.414l-3.875-3.875a.968.968,0,0,1,0-1.37l3.875-3.875,1.37,1.37-3.19,3.19,3.19,3.19Z" transform="translate(-0.748 -0.477)"/>
      <path id="Trazado_1051486" data-name="Trazado 1051486" d="M26,20h8.719v1.938H26Z" transform="translate(-0.779 -0.592)"/>
      <path id="Trazado_1051487" data-name="Trazado 1051487" d="M13.044,11.529l-3.19-3.19-3.19,3.19-1.37-1.37L9.168,6.284a.968.968,0,0,1,1.37,0l3.875,3.875Z" transform="translate(-0.134 -0.156)"/>
      <path id="Trazado_1051488" data-name="Trazado 1051488" d="M9,7h1.938v8.719H9Z" transform="translate(-0.249 -0.187)"/>
      <path id="Trazado_1051489" data-name="Trazado 1051489" d="M9.853,35.822a.966.966,0,0,1-.685-.284L5.293,31.663l1.37-1.37,3.19,3.19,3.19-3.19,1.37,1.37-3.875,3.875a.966.966,0,0,1-.685.284Z" transform="translate(-0.134 -0.913)"/>
      <path id="Trazado_1051490" data-name="Trazado 1051490" d="M9,26h1.938v8.719H9Z" transform="translate(-0.249 -0.779)"/>
      <path id="Trazado_1051491" data-name="Trazado 1051491" d="M48.3,13.38l-.139-.162a17.99,17.99,0,0,0-27.317,0l-.137.161L19.24,12.12l.139-.162a19.927,19.927,0,0,1,30.259,0l.14.162Z" transform="translate(-0.569 -0.125)"/>
      <path id="Trazado_1051492" data-name="Trazado 1051492" d="M49.813,13.782H44V11.844h4.844V7h1.938v5.813A.969.969,0,0,1,49.813,13.782Z" transform="translate(-1.341 -0.187)"/>
      <path id="Trazado_1051493" data-name="Trazado 1051493" d="M34.509,36.73A19.9,19.9,0,0,1,19.38,29.771l-.14-.162,1.473-1.26.139.162a17.99,17.99,0,0,0,27.317,0l.138-.161,1.473,1.26-.139.162A19.911,19.911,0,0,1,34.509,36.73Z" transform="translate(-0.569 -0.853)"/>
      <path id="Trazado_1051494" data-name="Trazado 1051494" d="M20.938,34.782H19V28.969A.969.969,0,0,1,19.969,28h5.813v1.938H20.938Z" transform="translate(-0.561 -0.842)"/>
    </g>
  </g>
</svg>
