<svg xmlns="http://www.w3.org/2000/svg" xmlns:xlink="http://www.w3.org/1999/xlink" width="118" height="118" viewBox="0 0 118 118">
  <defs>
    <filter id="Trazado_982547" x="0" y="0" width="118" height="118" filterUnits="userSpaceOnUse">
      <feOffset dy="3" input="SourceAlpha"/>
      <feGaussianBlur stdDeviation="3" result="blur"/>
      <feFlood flood-opacity="0.161"/>
      <feComposite operator="in" in2="blur"/>
      <feComposite in="SourceGraphic"/>
    </filter>
  </defs>
  <g id="Grupo_1210885" data-name="Grupo 1210885" transform="translate(-1215.125 -3558.228)">
    <g id="Grupo_1210690" data-name="Grupo 1210690" transform="translate(1224.125 3564.228)">
      <g id="Grupo_1209802" data-name="Grupo 1209802" transform="translate(0 0)">
        <g id="Grupo_1209739" data-name="Grupo 1209739" transform="translate(0 0)">
          <g id="Grupo_1209277" data-name="Grupo 1209277">
            <g id="Grupo_1208028" data-name="Grupo 1208028">
              <g id="Grupo_1177675" data-name="Grupo 1177675">
                <g id="Grupo_1176928" data-name="Grupo 1176928">
                  <g id="Grupo_1172322" data-name="Grupo 1172322">
                    <g id="Grupo_1164700" data-name="Grupo 1164700">
                      <g id="Grupo_1160931" data-name="Grupo 1160931">
                        <g id="Grupo_1160749" data-name="Grupo 1160749">
                          <g id="Grupo_1158891" data-name="Grupo 1158891">
                            <g id="Grupo_1157406" data-name="Grupo 1157406">
                              <g id="Grupo_1155793" data-name="Grupo 1155793">
                                <g id="Grupo_1154704" data-name="Grupo 1154704">
                                  <g id="Grupo_1150790" data-name="Grupo 1150790">
                                    <g id="Grupo_1154214" data-name="Grupo 1154214">
                                      <g id="Grupo_1152583" data-name="Grupo 1152583">
                                        <g id="Grupo_1146973" data-name="Grupo 1146973">
                                          <g id="Grupo_1146954" data-name="Grupo 1146954">
                                            <g transform="matrix(1, 0, 0, 1, -9, -6)" filter="url(#Trazado_982547)">
                                              <g id="Trazado_982547-2" data-name="Trazado 982547" transform="translate(9 6)" fill="#fdf4ce">
                                                <path d="M 50.00000762939453 98.49985504150391 C 43.4518928527832 98.49985504150391 37.10043716430664 97.21774291992188 31.12207984924316 94.68910980224609 C 25.34692192077637 92.24642944335938 20.15996551513672 88.74918365478516 15.70533657073975 84.2945556640625 C 11.25069332122803 79.83992767333984 7.753450393676758 74.65298461914062 5.310764789581299 68.87783050537109 C 2.782136201858521 62.89948654174805 1.500007629394531 56.54804229736328 1.500007629394531 49.99992752075195 C 1.500007629394531 43.45181274414062 2.782136201858521 37.10036849975586 5.310764789581299 31.12202835083008 C 7.753450393676758 25.34687042236328 11.25069332122803 20.15992736816406 15.70533657073975 15.70529937744141 C 20.15996551513672 11.25067043304443 25.34692192077637 7.753427505493164 31.12207984924316 5.310741901397705 C 37.10043716430664 2.782113313674927 43.4518928527832 1.499998927116394 50.00000762939453 1.499998927116394 C 56.54812240600586 1.499998927116394 62.89957809448242 2.782113313674927 68.87793731689453 5.310741901397705 C 74.65310668945312 7.753427505493164 79.84004974365234 11.25067043304443 84.29469299316406 15.70529937744141 C 88.74932098388672 20.15992736816406 92.24656677246094 25.34687042236328 94.68924713134766 31.12202835083008 C 97.21788024902344 37.10036849975586 98.50000762939453 43.45181274414062 98.50000762939453 49.99992752075195 C 98.50000762939453 56.54804229736328 97.21788024902344 62.89948654174805 94.68924713134766 68.87783050537109 C 92.24656677246094 74.65298461914062 88.74932098388672 79.83992767333984 84.29469299316406 84.2945556640625 C 79.84004974365234 88.74918365478516 74.65310668945312 92.24642944335938 68.87793731689453 94.68910980224609 C 62.89957809448242 97.21774291992188 56.54812240600586 98.49985504150391 50.00000762939453 98.49985504150391 Z" stroke="none"/>
                                                <path d="M 50.00000762939453 3.000007629394531 C 43.65373229980469 3.000007629394531 37.49887084960938 4.242263793945312 31.70640563964844 6.692268371582031 C 26.11003875732422 9.059326171875 21.08335876464844 12.44860076904297 16.7659912109375 16.76596069335938 C 12.44862365722656 21.08332824707031 9.059333801269531 26.11000823974609 6.692268371582031 31.70635986328125 C 4.242271423339844 37.49880599975586 3.000007629394531 43.65365219116211 3.000007629394531 49.99992752075195 C 3.000007629394531 56.3462028503418 4.242271423339844 62.50104904174805 6.692268371582031 68.29349517822266 C 9.059333801269531 73.88984680175781 12.44862365722656 78.91652679443359 16.7659912109375 83.23389434814453 C 21.08335876464844 87.55125427246094 26.11003875732422 90.94052886962891 31.70640563964844 93.30758666992188 C 37.49887084960938 95.75759124755859 43.65373229980469 96.99984741210938 50.00000762939453 96.99984741210938 C 56.34628295898438 96.99984741210938 62.50114440917969 95.75759124755859 68.29360961914062 93.30758666992188 C 73.88997650146484 90.94052886962891 78.91665649414062 87.55125427246094 83.23402404785156 83.23389434814453 C 87.5513916015625 78.91652679443359 90.94068145751953 73.88984680175781 93.30774688720703 68.29349517822266 C 95.75774383544922 62.50104904174805 97.00000762939453 56.3462028503418 97.00000762939453 49.99992752075195 C 97.00000762939453 43.65365219116211 95.75774383544922 37.49880599975586 93.30774688720703 31.70635986328125 C 90.94068145751953 26.11000823974609 87.5513916015625 21.08332824707031 83.23402404785156 16.76596069335938 C 78.91665649414062 12.44860076904297 73.88997650146484 9.059326171875 68.29360961914062 6.692268371582031 C 62.50114440917969 4.242263793945312 56.34628295898438 3.000007629394531 50.00000762939453 3.000007629394531 M 50.00000762939453 7.62939453125e-06 C 77.61424255371094 7.62939453125e-06 100.0000076293945 22.38572692871094 100.0000076293945 49.99992752075195 C 100.0000076293945 77.61412811279297 77.61424255371094 99.99984741210938 50.00000762939453 99.99984741210938 C 22.38578033447266 99.99984741210938 7.62939453125e-06 77.61412811279297 7.62939453125e-06 49.99992752075195 C 7.62939453125e-06 22.38572692871094 22.38578033447266 7.62939453125e-06 50.00000762939453 7.62939453125e-06 Z" stroke="none" fill="#f6c810"/>
                                              </g>
                                            </g>
                                          </g>
                                        </g>
                                      </g>
                                    </g>
                                  </g>
                                </g>
                              </g>
                            </g>
                          </g>
                        </g>
                      </g>
                    </g>
                  </g>
                </g>
              </g>
            </g>
          </g>
        </g>
      </g>
    </g>
    <g id="red-tape_2473156" transform="translate(1240.369 3572.742)">
      <path id="Trazado_1051495" data-name="Trazado 1051495" d="M79.51,121.3a1.817,1.817,0,0,0-1.817-1.817H44.011a1.812,1.812,0,0,1-1.654-1.064L40.5,114.354a1.81,1.81,0,0,0-1.425-1.049v-.013c-.114,0-.195,0-.228,0H28.966a1.817,1.817,0,0,0-1.817,1.817V127.9h8.9l-3.282,5.984,3.282,5.405h-8.9v5.688a1.817,1.817,0,0,0,1.817,1.817H77.693a1.817,1.817,0,0,0,1.817-1.817V139.29h-8.9l3.282-5.405L70.608,127.9h8.9Z" transform="translate(-19.576 -75.623)" fill="#f0c020"/>
      <path id="Trazado_1051496" data-name="Trazado 1051496" d="M79.047,18.65v7.113l-3.183-3.183a2.815,2.815,0,0,0-1.968-.815l-27.864-.021a.779.779,0,0,0-.779.779v17c-.114,0-.195,0-.228,0H35.489V14.429a.779.779,0,0,1,.779-.779H73.881a.779.779,0,0,1,.779.779v3.442h3.609A.779.779,0,0,1,79.047,18.65Z" transform="translate(-25.751 -1.851)" fill="#afafaf"/>
      <path id="Trazado_1051497" data-name="Trazado 1051497" d="M111.369,54.477V68.8H78.033a1.812,1.812,0,0,1-1.654-1.064l-1.854-4.068A1.823,1.823,0,0,0,73.1,62.619V45.609a.779.779,0,0,1,.779-.779l27.864.021a2.815,2.815,0,0,1,1.968.815l3.183,3.183,3.658,3.661a2.781,2.781,0,0,1,.818,1.968Z" transform="translate(-53.597 -24.936)" fill="#efefef"/>
      <g id="Grupo_1210884" data-name="Grupo 1210884" transform="translate(1.358 48.586)">
        <path id="Trazado_1051498" data-name="Trazado 1051498" d="M18.329,159.042h-8.9V155.35H5.057A1.845,1.845,0,0,0,3.212,157.2h0v11.389a1.846,1.846,0,0,0,1.846,1.846H18.329l-3.282-5.405Z" transform="translate(-3.209 -155.35)" fill="#fc5d3d"/>
        <path id="Trazado_1051499" data-name="Trazado 1051499" d="M75.743,177.139l1.157,2.344,2.587.376-1.872,1.825.442,2.576-2.314-1.216-2.314,1.216.442-2.576L72,179.859l2.587-.376Z" transform="translate(-54.14 -171.482)" fill="#fc5d3d"/>
        <path id="Trazado_1051500" data-name="Trazado 1051500" d="M120.073,177.139l1.157,2.344,2.587.376-1.872,1.825.442,2.576-2.314-1.216-2.314,1.216.442-2.576-1.872-1.825,2.587-.376Z" transform="translate(-86.962 -171.482)" fill="#fc5d3d"/>
        <path id="Trazado_1051501" data-name="Trazado 1051501" d="M164.4,177.139l1.157,2.344,2.587.376-1.872,1.825.442,2.576-2.314-1.216-2.314,1.216.442-2.576-1.872-1.825,2.587-.376Z" transform="translate(-119.783 -171.482)" fill="#fc5d3d"/>
      </g>
      <path id="Trazado_1051502" data-name="Trazado 1051502" d="M113.614,149.66H90.249a.649.649,0,1,0,0,1.3h23.365a.649.649,0,1,0,0-1.3Zm7.4,0h-3.5a.649.649,0,1,0,0,1.3h3.5a.193.193,0,0,1,.195.195v3.676h1.3v-3.676a1.5,1.5,0,0,0-1.493-1.493Z" transform="translate(-65.814 -102.551)" fill="#f9e5af"/>
      <path id="Trazado_1051503" data-name="Trazado 1051503" d="M209.669,157.2h0a1.845,1.845,0,0,0-1.846-1.846h-4.369v3.692h-8.9l3.282,5.984-3.282,5.405h13.274a1.846,1.846,0,0,0,1.846-1.846Z" transform="translate(-143.517 -106.764)" fill="#fc5d3d"/>
      <path id="Trazado_1051504" data-name="Trazado 1051504" d="M83.149,67.636a.649.649,0,0,1-.649-.649V56.794a.649.649,0,0,1,.649-.649h5.582a.649.649,0,0,1,0,1.3H83.8v9.544A.649.649,0,0,1,83.149,67.636Z" transform="translate(-60.557 -33.314)" fill="#fff"/>
      <path id="Trazado_1051505" data-name="Trazado 1051505" d="M206.815,94.719a.649.649,0,0,1-.649-.649V86.628a.649.649,0,1,1,1.3,0V94.07A.649.649,0,0,1,206.815,94.719Z" transform="translate(-152.118 -55.402)" fill="#fff"/>
      <path id="Trazado_1051506" data-name="Trazado 1051506" d="M66.8,50.365A2.5,2.5,0,0,0,64.3,47.938h-3.72V45.682a2.468,2.468,0,0,0-2.163-2.446v-13.7a3.429,3.429,0,0,0-1.008-2.427l-3.468-3.469V16.8a1.429,1.429,0,0,0-1.428-1.428h-2.96V12.578A1.429,1.429,0,0,0,48.13,11.15H10.517a1.429,1.429,0,0,0-1.428,1.428v24.46a2.469,2.469,0,0,0-2.165,2.446v8.453H3.206a2.5,2.5,0,0,0-2.5,2.5V61.821A2.5,2.5,0,0,0,3.2,64.316h3.72v5.039A2.469,2.469,0,0,0,9.39,71.822H58.117a2.469,2.469,0,0,0,2.466-2.466V64.316h3.723A2.5,2.5,0,0,0,66.8,61.821c0-.057,0-11.4,0-11.457Zm-6.214-1.129H64.3a1.2,1.2,0,0,1,0,2.394h-3.72ZM57.123,29.542V43.216H24.435a1.168,1.168,0,0,1-1.064-.685l-1.852-4.066a2.457,2.457,0,0,0-1.368-1.278V20.673a.13.13,0,0,1,.13-.13l27.865.021a2.033,2.033,0,0,1,.478.058v6.373a2.044,2.044,0,0,0,2.041,2.043h6.4a2.131,2.131,0,0,1,.062.5Zm-.92-1.8H50.664a.745.745,0,0,1-.742-.745V21.456ZM52.517,16.669a.13.13,0,0,1,.13.13v5.547l-2.072-2.074a3.469,3.469,0,0,0-2.429-1.008l-27.865-.021a1.429,1.429,0,0,0-1.428,1.428V37.018H14.772V16.8a.13.13,0,0,1,.13-.13Zm-42.13-4.092a.13.13,0,0,1,.13-.13H48.13a.13.13,0,0,1,.13.13v2.793H14.9A1.429,1.429,0,0,0,13.474,16.8V37.018H10.387ZM3.206,49.235H6.924v2.394H3.206a1.2,1.2,0,0,1,0-2.394Zm0,13.783a1.2,1.2,0,0,1-1.2-1.2V58.593a2.484,2.484,0,0,0,1.2.308h2.2a.649.649,0,1,0,0-1.3h-2.2a1.2,1.2,0,0,1-1.2-1.194V52.62a2.577,2.577,0,0,0,1.2.307H15.382L12.818,57.6H10.6a.649.649,0,0,0,0,1.3h2.225l2.5,4.117Zm56.082,6.337a1.168,1.168,0,0,1-1.168,1.168H9.39a1.168,1.168,0,0,1-1.168-1.168V64.316h8.256a.649.649,0,0,0,.555-.987l-3.086-5.084,3.1-5.656a.649.649,0,0,0-.569-.961H8.224V39.484a1.17,1.17,0,0,1,1.168-1.168h9.883A1.167,1.167,0,0,1,20.338,39l1.853,4.066a2.466,2.466,0,0,0,2.245,1.446H58.118a1.17,1.17,0,0,1,1.168,1.168v5.948H51.034a.649.649,0,0,0-.569.961l3.1,5.656L50.477,63.33a.649.649,0,0,0,.555.987h8.253ZM65.5,56.408A1.2,1.2,0,0,1,64.3,57.6H62.1a.649.649,0,1,0,0,1.3h2.2a2.48,2.48,0,0,0,1.2-.308v3.229a1.2,1.2,0,0,1-1.2,1.2H52.186l2.5-4.117H56.91a.649.649,0,1,0,0-1.3H54.692l-2.564-4.676H64.3a2.581,2.581,0,0,0,1.2-.307Z"/>
      <path id="Trazado_1051507" data-name="Trazado 1051507" d="M128.733,71.936h8.421a.649.649,0,1,0,0-1.3h-8.421a.649.649,0,0,0,0,1.3Z" transform="translate(-94.307 -44.044)"/>
      <path id="Trazado_1051508" data-name="Trazado 1051508" d="M126.993,90.9H107.6a.649.649,0,1,0,0,1.3h19.395a.649.649,0,0,0,0-1.3Z" transform="translate(-78.659 -59.046)"/>
      <path id="Trazado_1051509" data-name="Trazado 1051509" d="M126.993,107.573H107.6a.649.649,0,1,0,0,1.3h19.395a.649.649,0,0,0,0-1.3Z" transform="translate(-78.659 -71.39)"/>
      <path id="Trazado_1051510" data-name="Trazado 1051510" d="M77.73,177.367l-2.249-.327L74.475,175a.649.649,0,0,0-1.164,0l-1.006,2.038-2.249.327a.649.649,0,0,0-.36,1.107l1.628,1.587-.384,2.24a.649.649,0,0,0,.942.684l2.012-1.058,2.012,1.058a.649.649,0,0,0,.942-.684l-.384-2.24,1.628-1.587a.649.649,0,0,0-.36-1.107Zm-2.418,2a.649.649,0,0,0-.186.575l.219,1.281-1.15-.6a.649.649,0,0,0-.6,0l-1.15.6.22-1.28a.649.649,0,0,0-.187-.575l-.93-.907,1.285-.187a.649.649,0,0,0,.489-.355l.575-1.165.575,1.165a.649.649,0,0,0,.489.355l1.285.187Z" transform="translate(-50.932 -121.046)"/>
      <path id="Trazado_1051511" data-name="Trazado 1051511" d="M122.058,177.366l-2.249-.327L118.8,175a.649.649,0,0,0-1.164,0l-1.006,2.038-2.249.327a.649.649,0,0,0-.36,1.107l1.628,1.586-.384,2.24a.649.649,0,0,0,.942.684l2.012-1.058,2.012,1.058a.649.649,0,0,0,.942-.684l-.384-2.24,1.628-1.586a.649.649,0,0,0-.36-1.107Zm-2.418,2a.649.649,0,0,0-.187.575l.22,1.28-1.15-.6a.649.649,0,0,0-.6,0l-1.15.6.22-1.28a.649.649,0,0,0-.187-.575l-.93-.907,1.285-.187a.649.649,0,0,0,.489-.355l.575-1.165.575,1.165a.649.649,0,0,0,.489.355l1.285.187Z" transform="translate(-83.752 -121.045)"/>
      <path id="Trazado_1051512" data-name="Trazado 1051512" d="M166.389,177.367l-2.249-.327L163.133,175a.649.649,0,0,0-1.164,0l-1.006,2.038-2.249.327a.649.649,0,0,0-.36,1.107l1.628,1.587-.384,2.24a.649.649,0,0,0,.942.684l2.012-1.058,2.012,1.058a.649.649,0,0,0,.942-.684l-.384-2.24,1.628-1.587a.649.649,0,0,0-.36-1.107Zm-2.418,2a.649.649,0,0,0-.187.574l.22,1.28-1.15-.6a.649.649,0,0,0-.6,0l-1.15.6.22-1.28a.649.649,0,0,0-.187-.575l-.93-.907,1.285-.187a.649.649,0,0,0,.489-.355l.575-1.165.575,1.165a.649.649,0,0,0,.489.355l1.286.187Z" transform="translate(-116.574 -121.046)"/>
      <circle id="Elipse_12839" data-name="Elipse 12839" cx="0.649" cy="0.649" r="0.649" transform="translate(58.857 57.603)"/>
      <circle id="Elipse_12840" data-name="Elipse 12840" cx="0.649" cy="0.649" r="0.649" transform="translate(7.355 57.603)"/>
    </g>
  </g>
</svg>
