<svg xmlns="http://www.w3.org/2000/svg" xmlns:xlink="http://www.w3.org/1999/xlink" width="118" height="118" viewBox="0 0 118 118">
  <defs>
    <filter id="Trazado_982547" x="0" y="0" width="118" height="118" filterUnits="userSpaceOnUse">
      <feOffset dy="3" input="SourceAlpha"/>
      <feGaussianBlur stdDeviation="3" result="blur"/>
      <feFlood flood-opacity="0.161"/>
      <feComposite operator="in" in2="blur"/>
      <feComposite in="SourceGraphic"/>
    </filter>
  </defs>
  <g id="Grupo_1210309" data-name="Grupo 1210309" transform="translate(9 6)">
    <g id="Grupo_1209802" data-name="Grupo 1209802" transform="translate(0 0)">
      <g id="Grupo_1209739" data-name="Grupo 1209739" transform="translate(0)">
        <g id="Grupo_1209277" data-name="Grupo 1209277">
          <g id="Grupo_1208028" data-name="Grupo 1208028">
            <g id="Grupo_1177675" data-name="Grupo 1177675">
              <g id="Grupo_1176928" data-name="Grupo 1176928">
                <g id="Grupo_1172322" data-name="Grupo 1172322">
                  <g id="Grupo_1164700" data-name="Grupo 1164700">
                    <g id="Grupo_1160931" data-name="Grupo 1160931">
                      <g id="Grupo_1160749" data-name="Grupo 1160749">
                        <g id="Grupo_1158891" data-name="Grupo 1158891">
                          <g id="Grupo_1157406" data-name="Grupo 1157406">
                            <g id="Grupo_1155793" data-name="Grupo 1155793">
                              <g id="Grupo_1154704" data-name="Grupo 1154704">
                                <g id="Grupo_1150790" data-name="Grupo 1150790">
                                  <g id="Grupo_1154214" data-name="Grupo 1154214">
                                    <g id="Grupo_1152583" data-name="Grupo 1152583">
                                      <g id="Grupo_1146973" data-name="Grupo 1146973">
                                        <g id="Grupo_1146954" data-name="Grupo 1146954">
                                          <g transform="matrix(1, 0, 0, 1, -9, -6)" filter="url(#Trazado_982547)">
                                            <g id="Trazado_982547-2" data-name="Trazado 982547" transform="translate(9 6)" fill="#fef9e5">
                                              <path d="M 50.00000762939453 98.49985504150391 C 43.4518928527832 98.49985504150391 37.10043716430664 97.21774291992188 31.12207984924316 94.68910980224609 C 25.34692192077637 92.24642944335938 20.15996551513672 88.74918365478516 15.70533657073975 84.2945556640625 C 11.25069332122803 79.83992767333984 7.753450393676758 74.65298461914062 5.310764789581299 68.87783050537109 C 2.782136201858521 62.89948654174805 1.500007629394531 56.54804229736328 1.500007629394531 49.99992752075195 C 1.500007629394531 43.45181274414062 2.782136201858521 37.10036849975586 5.310764789581299 31.12202835083008 C 7.753450393676758 25.34687042236328 11.25069332122803 20.15992736816406 15.70533657073975 15.70529937744141 C 20.15996551513672 11.25067043304443 25.34692192077637 7.753427505493164 31.12207984924316 5.310741901397705 C 37.10043716430664 2.782113313674927 43.4518928527832 1.499998927116394 50.00000762939453 1.499998927116394 C 56.54812240600586 1.499998927116394 62.89957809448242 2.782113313674927 68.87793731689453 5.310741901397705 C 74.65310668945312 7.753427505493164 79.84004974365234 11.25067043304443 84.29469299316406 15.70529937744141 C 88.74932098388672 20.15992736816406 92.24656677246094 25.34687042236328 94.68924713134766 31.12202835083008 C 97.21788024902344 37.10036849975586 98.50000762939453 43.45181274414062 98.50000762939453 49.99992752075195 C 98.50000762939453 56.54804229736328 97.21788024902344 62.89948654174805 94.68924713134766 68.87783050537109 C 92.24656677246094 74.65298461914062 88.74932098388672 79.83992767333984 84.29469299316406 84.2945556640625 C 79.84004974365234 88.74918365478516 74.65310668945312 92.24642944335938 68.87793731689453 94.68910980224609 C 62.89957809448242 97.21774291992188 56.54812240600586 98.49985504150391 50.00000762939453 98.49985504150391 Z" stroke="none"/>
                                              <path d="M 50.00000762939453 3.000007629394531 C 43.65373229980469 3.000007629394531 37.49887084960938 4.242263793945312 31.70640563964844 6.692268371582031 C 26.11003875732422 9.059326171875 21.08335876464844 12.44860076904297 16.7659912109375 16.76596069335938 C 12.44862365722656 21.08332824707031 9.059333801269531 26.11000823974609 6.692268371582031 31.70635986328125 C 4.242271423339844 37.49880599975586 3.000007629394531 43.65365219116211 3.000007629394531 49.99992752075195 C 3.000007629394531 56.3462028503418 4.242271423339844 62.50104904174805 6.692268371582031 68.29349517822266 C 9.059333801269531 73.88984680175781 12.44862365722656 78.91652679443359 16.7659912109375 83.23389434814453 C 21.08335876464844 87.55125427246094 26.11003875732422 90.94052886962891 31.70640563964844 93.30758666992188 C 37.49887084960938 95.75759124755859 43.65373229980469 96.99984741210938 50.00000762939453 96.99984741210938 C 56.34628295898438 96.99984741210938 62.50114440917969 95.75759124755859 68.29360961914062 93.30758666992188 C 73.88997650146484 90.94052886962891 78.91665649414062 87.55125427246094 83.23402404785156 83.23389434814453 C 87.5513916015625 78.91652679443359 90.94068145751953 73.88984680175781 93.30774688720703 68.29349517822266 C 95.75774383544922 62.50104904174805 97.00000762939453 56.3462028503418 97.00000762939453 49.99992752075195 C 97.00000762939453 43.65365219116211 95.75774383544922 37.49880599975586 93.30774688720703 31.70635986328125 C 90.94068145751953 26.11000823974609 87.5513916015625 21.08332824707031 83.23402404785156 16.76596069335938 C 78.91665649414062 12.44860076904297 73.88997650146484 9.059326171875 68.29360961914062 6.692268371582031 C 62.50114440917969 4.242263793945312 56.34628295898438 3.000007629394531 50.00000762939453 3.000007629394531 M 50.00000762939453 7.62939453125e-06 C 77.61424255371094 7.62939453125e-06 100.0000076293945 22.38572692871094 100.0000076293945 49.99992752075195 C 100.0000076293945 77.61412811279297 77.61424255371094 99.99984741210938 50.00000762939453 99.99984741210938 C 22.38578033447266 99.99984741210938 7.62939453125e-06 77.61412811279297 7.62939453125e-06 49.99992752075195 C 7.62939453125e-06 22.38572692871094 22.38578033447266 7.62939453125e-06 50.00000762939453 7.62939453125e-06 Z" stroke="none" fill="#f6c810"/>
                                            </g>
                                          </g>
                                        </g>
                                      </g>
                                    </g>
                                  </g>
                                </g>
                              </g>
                            </g>
                          </g>
                        </g>
                      </g>
                    </g>
                  </g>
                </g>
              </g>
            </g>
          </g>
        </g>
      </g>
    </g>
    <g id="tactical_3900752" transform="translate(5.141 13.195)">
      <path id="Trazado_1050695" data-name="Trazado 1050695" d="M87.153,35.66,84.4,34.072a20.918,20.918,0,0,0,0-8.359l2.753-1.591a2.212,2.212,0,0,0,.808-3.021l-4.275-7.4a2.211,2.211,0,0,0-3.021-.808L77.909,14.48A20.643,20.643,0,0,0,70.672,10.3V7.118a2.212,2.212,0,0,0-2.213-2.213H59.914A2.212,2.212,0,0,0,57.7,7.118V10.3a20.644,20.644,0,0,0-7.236,4.185l-2.755-1.591a2.211,2.211,0,0,0-3.021.808l-4.275,7.4a2.212,2.212,0,0,0,.808,3.021l2.753,1.591a20.917,20.917,0,0,0,0,8.359L41.221,35.66a2.212,2.212,0,0,0-.808,3.021l4.275,7.4a2.214,2.214,0,0,0,3.021.811L50.465,45.3A20.6,20.6,0,0,0,57.7,49.487v3.177a2.211,2.211,0,0,0,1.608,2.128,4.9,4.9,0,1,1,9.756,0,2.211,2.211,0,0,0,1.608-2.128V49.487A20.6,20.6,0,0,0,77.909,45.3L80.664,46.9a2.214,2.214,0,0,0,3.021-.811l4.275-7.4A2.212,2.212,0,0,0,87.153,35.66Z" transform="translate(-19.328 -1.815)" fill="#fc5d3d"/>
      <g id="Grupo_1210649" data-name="Grupo 1210649" transform="translate(13.498 40.427)">
        <g id="Grupo_1210647" data-name="Grupo 1210647" transform="translate(55.6)">
          <path id="Trazado_1050696" data-name="Trazado 1050696" d="M224.82,147.258c-1.085-.359-2.205-.672-2.834-3.381-.579,2.5-1.508,2.943-2.834,3.381,2.164.715,2.49,1.9,2.834,3.381C222.579,148.084,223.56,147.675,224.82,147.258Z" transform="translate(-218.425 -143.15)" fill="#f0c020"/>
          <path id="Trazado_1050697" data-name="Trazado 1050697" d="M219.349,148.878c-.314-1.354-.522-2.249-2.353-2.854a.729.729,0,0,1,0-1.383c1.1-.364,1.831-.605,2.353-2.855a.729.729,0,0,1,1.419,0c.534,2.3,1.332,2.518,2.353,2.854a.729.729,0,0,1,0,1.383c-1.063.351-1.831.605-2.353,2.854a.728.728,0,0,1-1.419,0Zm-.416-3.529a3.782,3.782,0,0,1,1.14,1.206,3.6,3.6,0,0,1,1.077-1.216,3.716,3.716,0,0,1-1.089-1.26A3.615,3.615,0,0,1,218.933,145.348Z" transform="translate(-216.498 -141.224)"/>
        </g>
        <g id="Grupo_1210648" data-name="Grupo 1210648" transform="translate(0)">
          <path id="Trazado_1050698" data-name="Trazado 1050698" d="M21.82,147.258c-1.085-.359-2.205-.672-2.834-3.381-.579,2.5-1.508,2.943-2.834,3.381,2.164.715,2.49,1.9,2.834,3.381C19.579,148.084,20.56,147.675,21.82,147.258Z" transform="translate(-15.425 -143.15)" fill="#f0c020"/>
          <path id="Trazado_1050699" data-name="Trazado 1050699" d="M16.349,148.878c-.314-1.354-.522-2.249-2.353-2.854a.729.729,0,0,1,0-1.383c1.1-.364,1.831-.605,2.353-2.855a.729.729,0,0,1,1.419,0c.534,2.3,1.332,2.518,2.353,2.854a.729.729,0,0,1,0,1.383c-1.063.351-1.831.605-2.353,2.854a.728.728,0,0,1-1.419,0Zm-.416-3.529a3.782,3.782,0,0,1,1.14,1.206,3.6,3.6,0,0,1,1.077-1.216,3.716,3.716,0,0,1-1.089-1.26A3.615,3.615,0,0,1,15.933,145.348Z" transform="translate(-13.498 -141.224)"/>
        </g>
      </g>
      <path id="Trazado_1050700" data-name="Trazado 1050700" d="M117.292,165.309v.4a2.211,2.211,0,0,1-1.608,2.128,4.9,4.9,0,1,0-9.756,0,2.211,2.211,0,0,1-1.608-2.128V165.3a6.82,6.82,0,0,1,12.972.005Z" transform="translate(-65.947 -114.862)" fill="#b25035"/>
      <path id="Trazado_1050701" data-name="Trazado 1050701" d="M119.888,172.922a4.9,4.9,0,1,1-4.878-5.327A4.9,4.9,0,0,1,119.888,172.922Z" transform="translate(-70.15 -119.945)" fill="#ffb69f"/>
      <path id="Trazado_1050702" data-name="Trazado 1050702" d="M90.484,72.765a14.152,14.152,0,1,1,14.151-14.153A14.152,14.152,0,0,1,90.484,72.765Z" transform="translate(-45.625 -30.536)" fill="#efefef"/>
      <g id="Grupo_1210650" data-name="Grupo 1210650" transform="translate(35.267 25.527)">
        <circle id="Elipse_12688" data-name="Elipse 12688" cx="2.548" cy="2.548" r="2.548" fill="#f0c020"/>
      </g>
      <path id="Trazado_1050703" data-name="Trazado 1050703" d="M114.264,216.423H97.625v-7.6a5.478,5.478,0,0,1,5.478-5.478h5.683a5.478,5.478,0,0,1,5.478,5.478Z" transform="translate(-61.085 -145.903)" fill="#72c2e9"/>
      <circle id="Elipse_12689" data-name="Elipse 12689" cx="4.896" cy="4.896" r="4.896" transform="translate(23.324 47.65)" fill="#ffb69f"/>
      <path id="Trazado_1050704" data-name="Trazado 1050704" d="M53.514,216.423H36.875v-7.6a5.478,5.478,0,0,1,5.478-5.478h5.683a5.478,5.478,0,0,1,5.478,5.478Z" transform="translate(-16.974 -145.903)" fill="#72c2e9"/>
      <circle id="Elipse_12690" data-name="Elipse 12690" cx="4.896" cy="4.896" r="4.896" transform="translate(56.602 47.65)" fill="#ffb69f"/>
      <path id="Trazado_1050705" data-name="Trazado 1050705" d="M175.014,216.423H158.375v-7.6a5.478,5.478,0,0,1,5.478-5.478h5.683a5.478,5.478,0,0,1,5.478,5.478Z" transform="translate(-105.196 -145.903)" fill="#72c2e9"/>
      <path id="Trazado_1050710" data-name="Trazado 1050710" d="M90.036,71.568A.685.685,0,0,0,89.91,70.2a13.456,13.456,0,1,1,4.968-1.457.684.684,0,1,0,.633,1.213,14.84,14.84,0,1,0-5.475,1.608Z" transform="translate(-43.808 -28.717)"/>
      <path id="Trazado_1050711" data-name="Trazado 1050711" d="M140.565,143.246a.685.685,0,1,0,.386,1.315.682.682,0,0,0,.463-.849A.7.7,0,0,0,140.565,143.246Z" transform="translate(-91.907 -102.246)"/>
      <path id="Trazado_1050712" data-name="Trazado 1050712" d="M90.478,87.557a3.233,3.233,0,1,0,3.233-3.233A3.236,3.236,0,0,0,90.478,87.557Zm3.232-1.863a1.863,1.863,0,1,1-1.863,1.863A1.865,1.865,0,0,1,93.71,85.693Z" transform="translate(-55.896 -59.481)"/>
      <path id="Trazado_1050713" data-name="Trazado 1050713" d="M151.963,84.524a.684.684,0,0,0-.968,0l-1.351,1.351-1.351-1.351a.685.685,0,0,0-.968.968l1.351,1.351-1.351,1.351a.685.685,0,0,0,.968.968l1.351-1.351L151,89.161a.685.685,0,0,0,.968-.968l-1.351-1.351,1.351-1.351A.684.684,0,0,0,151.963,84.524Z" transform="translate(-97.028 -59.481)"/>
      <path id="Trazado_1050714" data-name="Trazado 1050714" d="M116,59.994a.685.685,0,0,0-1.369,0v1.855a8.583,8.583,0,0,0-13.046,1.486.685.685,0,1,0,1.14.758,7.218,7.218,0,0,1,11.157-1.064H111.6a.685.685,0,0,0,0,1.369h3.719a.689.689,0,0,0,.685-.685v-3.72Z" transform="translate(-63.88 -41.318)"/>
      <path id="Trazado_1050715" data-name="Trazado 1050715" d="M115.889,115.434a.685.685,0,1,0-1.14-.758,7.218,7.218,0,0,1-11.158,1.064h2.287a.685.685,0,1,0,0-1.369c-.107,0-3.642,0-3.749,0a.681.681,0,0,0-.656.68v3.722a.685.685,0,0,0,1.369,0V116.92A8.583,8.583,0,0,0,115.889,115.434Z" transform="translate(-63.879 -81.298)"/>
      <path id="Trazado_1050716" data-name="Trazado 1050716" d="M35.055,231.595a.687.687,0,0,0-.685.685v4.656a.685.685,0,0,0,1.369,0V232.28A.685.685,0,0,0,35.055,231.595Z" transform="translate(-15.155 -166.416)"/>
      <circle id="Elipse_12691" data-name="Elipse 12691" cx="0.685" cy="0.685" r="0.685" transform="translate(19.215 62.44)"/>
      <path id="Trazado_1050717" data-name="Trazado 1050717" d="M198.859,170.338a.684.684,0,1,0,.967-.016A.7.7,0,0,0,198.859,170.338Z" transform="translate(-134.452 -121.79)"/>
      <path id="Trazado_1050718" data-name="Trazado 1050718" d="M86.5,71.2a.685.685,0,0,0,.685-.685v-7.6A6.17,6.17,0,0,0,81.775,56.8,5.578,5.578,0,0,0,83.6,51.2a.685.685,0,0,0-1.331.326v0a4.212,4.212,0,1,1-3.213-3.1.694.694,0,0,0,.811-.529.684.684,0,0,0-.529-.811A5.576,5.576,0,0,0,74.582,56.8a6.175,6.175,0,0,0-4.723,3.3,6.174,6.174,0,0,0-4.706-3.295,5.537,5.537,0,0,0,1.888-3.334,2.909,2.909,0,0,0,1.669-2.623V48.161a21.139,21.139,0,0,0,6.632-3.836l2.334,1.35a2.905,2.905,0,0,0,3.955-1.062l4.275-7.4a2.9,2.9,0,0,0-1.059-3.956l-2.33-1.345a21.627,21.627,0,0,0,0-7.661L84.848,22.9a2.9,2.9,0,0,0,1.058-3.956l-4.275-7.4a2.9,2.9,0,0,0-3.956-1.059l-2.332,1.347A21.185,21.185,0,0,0,68.71,7.992V5.3a2.9,2.9,0,0,0-2.9-2.9H57.266a2.9,2.9,0,0,0-2.9,2.9V7.992a21.185,21.185,0,0,0-6.632,3.836L45.4,10.481a2.9,2.9,0,0,0-3.956,1.059l-4.275,7.4A2.9,2.9,0,0,0,38.231,22.9l2.331,1.347a21.633,21.633,0,0,0,0,7.661l-2.331,1.345a2.9,2.9,0,0,0-1.058,3.956l4.275,7.4A2.906,2.906,0,0,0,45.4,45.674l2.332-1.349a21.134,21.134,0,0,0,6.632,3.836v2.688a2.909,2.909,0,0,0,1.669,2.623,5.534,5.534,0,0,0,1.888,3.334,6.175,6.175,0,0,0-4.707,3.3A6.174,6.174,0,0,0,48.5,56.8a5.581,5.581,0,1,0-7.194,0,6.152,6.152,0,0,0-4.763,3.364.686.686,0,0,0,.307.918.693.693,0,0,0,.918-.3,0,0,0,0,0,0,0,4.776,4.776,0,0,1,4.292-2.654h5.683A4.812,4.812,0,0,1,52.536,62.9c0,.006,0,.012,0,.017v7.6a.685.685,0,0,0,1.369,0v-7.6A4.8,4.8,0,0,1,58.7,58.126h5.683a4.8,4.8,0,0,1,4.793,4.793v7.6a.685.685,0,0,0,1.369,0v-7.6a4.8,4.8,0,0,1,4.793-4.793H81.02a4.8,4.8,0,0,1,4.793,4.793v7.6A.685.685,0,0,0,86.5,71.2ZM40.689,52.546A4.211,4.211,0,1,1,44.9,56.757,4.216,4.216,0,0,1,40.689,52.546Zm14.579-5.524a19.807,19.807,0,0,1-7-4.046.684.684,0,0,0-.8-.081l-2.753,1.593a1.533,1.533,0,0,1-2.087-.559l-4.275-7.4a1.526,1.526,0,0,1,.557-2.085l2.753-1.589A.685.685,0,0,0,42,32.12a20.232,20.232,0,0,1,0-8.084.684.684,0,0,0-.328-.73l-2.753-1.591a1.528,1.528,0,0,1-.557-2.086l4.275-7.4a1.53,1.53,0,0,1,2.086-.558l2.755,1.591a.686.686,0,0,0,.8-.082,19.847,19.847,0,0,1,7-4.046.685.685,0,0,0,.469-.65V5.3a1.53,1.53,0,0,1,1.528-1.528h8.545A1.53,1.53,0,0,1,67.34,5.3V8.481a.685.685,0,0,0,.469.65,19.849,19.849,0,0,1,7,4.046.685.685,0,0,0,.8.082l2.755-1.591a1.529,1.529,0,0,1,2.086.557l4.275,7.4a1.528,1.528,0,0,1-.558,2.086L81.41,23.305a.684.684,0,0,0-.328.73,20.237,20.237,0,0,1,0,8.084.684.684,0,0,0,.329.73l2.752,1.588a1.527,1.527,0,0,1,.557,2.086l-4.275,7.4a1.532,1.532,0,0,1-2.085.56L75.6,42.894a.685.685,0,0,0-.8.081,19.805,19.805,0,0,1-7,4.046.685.685,0,0,0-.47.65v3.177a1.524,1.524,0,0,1-.278.871,5.585,5.585,0,0,0-11.046,0,1.522,1.522,0,0,1-.278-.87V47.672a.684.684,0,0,0-.47-.65Zm2.074,5.89a4.212,4.212,0,1,1,8.393,0s0,0,0,.006a4.213,4.213,0,0,1-8.393-.006Z" transform="translate(-16.68)"/>
    </g>
  </g>
</svg>
