<svg xmlns="http://www.w3.org/2000/svg" xmlns:xlink="http://www.w3.org/1999/xlink" width="118" height="118" viewBox="0 0 118 118">
  <defs>
    <filter id="Trazado_982547" x="0" y="0" width="118" height="118" filterUnits="userSpaceOnUse">
      <feOffset dy="3" input="SourceAlpha"/>
      <feGaussianBlur stdDeviation="3" result="blur"/>
      <feFlood flood-opacity="0.161"/>
      <feComposite operator="in" in2="blur"/>
      <feComposite in="SourceGraphic"/>
    </filter>
  </defs>
  <g id="Grupo_1210289" data-name="Grupo 1210289" transform="translate(9 6)">
    <g id="Grupo_1174813" data-name="Grupo 1174813">
      <g id="Grupo_1201680" data-name="Grupo 1201680">
        <g id="Grupo_1201330" data-name="Grupo 1201330">
          <g id="Grupo_1172010" data-name="Grupo 1172010">
            <g id="Grupo_1171046" data-name="Grupo 1171046">
              <g id="Grupo_1148525" data-name="Grupo 1148525">
                <g transform="matrix(1, 0, 0, 1, -9, -6)" filter="url(#Trazado_982547)">
                  <g id="Trazado_982547-2" data-name="Trazado 982547" transform="translate(9 6)" fill="#e5ebfb">
                    <path d="M 50 98.5 C 43.45188522338867 98.5 37.10042953491211 97.21787261962891 31.12207221984863 94.68923950195312 C 25.34691429138184 92.24655914306641 20.15997123718262 88.74931335449219 15.70532894134521 84.29468536376953 C 11.2506856918335 79.84004211425781 7.753442764282227 74.65309906005859 5.310757160186768 68.8779296875 C 2.782128572463989 62.89957046508789 1.5 56.54811477661133 1.5 50 C 1.5 43.45188522338867 2.782128572463989 37.10042953491211 5.310757160186768 31.12207221984863 C 7.753442764282227 25.34691429138184 11.2506856918335 20.15997123718262 15.70532894134521 15.70532894134521 C 20.15997123718262 11.2506856918335 25.34691429138184 7.753442764282227 31.12207221984863 5.310757160186768 C 37.10042953491211 2.782128572463989 43.45188522338867 1.5 50 1.5 C 56.54811477661133 1.5 62.89957046508789 2.782128572463989 68.8779296875 5.310757160186768 C 74.65309906005859 7.753442764282227 79.84004211425781 11.2506856918335 84.29468536376953 15.70532894134521 C 88.74931335449219 20.15997123718262 92.24655914306641 25.34691429138184 94.68923950195312 31.12207221984863 C 97.21787261962891 37.10042953491211 98.5 43.45188522338867 98.5 50 C 98.5 56.54811477661133 97.21787261962891 62.89957046508789 94.68923950195312 68.8779296875 C 92.24655914306641 74.65309906005859 88.74931335449219 79.84004211425781 84.29468536376953 84.29468536376953 C 79.84004211425781 88.74931335449219 74.65309906005859 92.24655914306641 68.8779296875 94.68923950195312 C 62.89957046508789 97.21787261962891 56.54811477661133 98.5 50 98.5 Z" stroke="none"/>
                    <path d="M 50 3 C 43.65372467041016 3 37.49886322021484 4.242263793945312 31.70639801025391 6.6922607421875 C 26.11003112792969 9.059326171875 21.08335113525391 12.44861602783203 16.76598358154297 16.76598358154297 C 12.44861602783203 21.08335113525391 9.059326171875 26.11003112792969 6.6922607421875 31.70639801025391 C 4.242263793945312 37.49886322021484 3 43.65372467041016 3 50 C 3 56.34627532958984 4.242263793945312 62.50113677978516 6.6922607421875 68.29360198974609 C 9.059326171875 73.88996887207031 12.44861602783203 78.91666412353516 16.76598358154297 83.23401641845703 C 21.08335113525391 87.55138397216797 26.11003112792969 90.940673828125 31.70639801025391 93.3077392578125 C 37.49886322021484 95.75773620605469 43.65372467041016 97 50 97 C 56.34627532958984 97 62.50113677978516 95.75773620605469 68.29360198974609 93.3077392578125 C 73.88996887207031 90.940673828125 78.91666412353516 87.55138397216797 83.23401641845703 83.23401641845703 C 87.55138397216797 78.91666412353516 90.940673828125 73.88996887207031 93.3077392578125 68.29360198974609 C 95.75773620605469 62.50113677978516 97 56.34627532958984 97 50 C 97 43.65372467041016 95.75773620605469 37.49886322021484 93.3077392578125 31.70639801025391 C 90.940673828125 26.11003112792969 87.55138397216797 21.08335113525391 83.23401641845703 16.76598358154297 C 78.91666412353516 12.44861602783203 73.88996887207031 9.059326171875 68.29360198974609 6.6922607421875 C 62.50113677978516 4.242263793945312 56.34627532958984 3 50 3 M 50 0 C 77.61424255371094 0 100 22.38577270507812 100 50 C 100 77.61424255371094 77.61424255371094 100 50 100 C 22.38577270507812 100 0 77.61424255371094 0 50 C 0 22.38577270507812 22.38577270507812 0 50 0 Z" stroke="none" fill="#0b47db"/>
                  </g>
                </g>
              </g>
            </g>
          </g>
        </g>
      </g>
    </g>
    <g id="sticky-note_4210644" transform="translate(20.475 20.942)">
      <g id="_21_Sticky_note" data-name="21 Sticky note" transform="translate(1.002 0.983)">
        <path id="Trazado_1041734" data-name="Trazado 1041734" d="M53.317,11.541,47.937,46.807a9.649,9.649,0,0,1-10.961,8.06L5.69,50.095A2.019,2.019,0,0,1,4,47.8L10.53,5.015a2.019,2.019,0,0,1,2.294-1.687L51.63,9.248A2.019,2.019,0,0,1,53.317,11.541Z" transform="translate(-3.981 -3.072)" fill="#29b6f6"/>
        <path id="Trazado_1041735" data-name="Trazado 1041735" d="M56.279,10.914l4.607,35.375a9.649,9.649,0,0,1-8.3,10.783L21.206,61.159a2.013,2.013,0,0,1-2.256-1.736L13.36,16.5A2.019,2.019,0,0,1,15.1,14.248l38.926-5.07a2.019,2.019,0,0,1,2.257,1.736Z" transform="translate(-3.92 -3.034)" fill="#ffd740"/>
        <path id="Trazado_1041736" data-name="Trazado 1041736" d="M60.655,46.076l-.552-4.24c-.225,2.152-5.879,1.585-8.395,2.84a4.763,4.763,0,0,0-3,3.894c-.435,3.746.956,7.5-.783,8.866l4.429-.577c4.664-.608,8.905-6.119,8.3-10.783Z" transform="translate(-3.694 -2.82)" fill="#f9c112"/>
        <path id="Trazado_1041737" data-name="Trazado 1041737" d="M47.16,9.858l2.334-2.334a1.426,1.426,0,0,0,0-2.017L47.477,3.491a1.426,1.426,0,0,0-2.017,0L43.2,5.751A4.314,4.314,0,0,0,39.016,7.13l6.838,6.838a4.467,4.467,0,0,0,1.305-4.11Z" transform="translate(-3.752 -3.074)" fill="#e53935"/>
      </g>
      <g id="Layer_32" data-name="Layer 32">
        <path id="Trazado_1041738" data-name="Trazado 1041738" d="M61.953,46.206l-4.61-35.38a3.03,3.03,0,0,0-3.382-2.6l-1.55.2a10.287,10.287,0,0,0-1.832-.352l-.024.025a2.411,2.411,0,0,0-.114-3.3L48.424,2.786a2.49,2.49,0,0,0-3.44,0L43.09,4.68A5.29,5.29,0,0,0,38.7,6.271v0L12.985,2.342A3.024,3.024,0,0,0,9.543,4.868L3.02,47.656A3.03,3.03,0,0,0,5.547,51.1l11.6,1.771.876,6.734a3.024,3.024,0,0,0,2.989,2.627c.463,0,30.981-4.016,31.132-4.036a10.689,10.689,0,0,0,9.814-11.988ZM43.218,6.74a1,1,0,0,0,.93-.271l2.26-2.26a.421.421,0,0,1,.593,0l2.017,2.016a.4.4,0,0,1,0,.593L46.684,9.153a1.007,1.007,0,0,0-.276.9,3.378,3.378,0,0,1-.407,2.4L40.735,7.2a3.168,3.168,0,0,1,2.483-.456ZM5.849,49.105A1.017,1.017,0,0,1,5,47.958L11.536,5.17a1,1,0,0,1,1.147-.835l26.37,4.026,1.6,1.6L15.038,13.293a3.052,3.052,0,0,0-2.607,3.392l4.439,34.1ZM20.011,59.342,14.424,16.423A1.008,1.008,0,0,1,15.29,15.3c.056-.009,13.342-1.738,24.4-3.183l-3.78,3.781c-.935.909.512,2.363,1.423,1.423l5.338-5.338,2.708,2.708a1.013,1.013,0,0,0,1.429-.005,5.575,5.575,0,0,0,1.671-3.714c1.378-.171,5.865-.755,5.875-.755a1.017,1.017,0,0,1,1,.876l4.036,30.941c-.161.5-2.486.835-3.613,1-5.929.01-8.908,4.751-7.75,10.025.111,1.57.211,3.06-.262,3.694L21.148,60.207a1.024,1.024,0,0,1-1.137-.866Zm32.954-3.3c-.255.078-2.643.362-2.959.413a14.269,14.269,0,0,0,.03-3.543c-.544-5.153.242-7.307,6.019-7.891a15.326,15.326,0,0,0,3.6-.8c.033.285.321,2.39.332,2.627a8.6,8.6,0,0,1-7.026,9.19ZM20.106,29.883a1.009,1.009,0,0,1-.129-2l32.938-4.29a1.007,1.007,0,0,1,.26,2l-32.938,4.29a.987.987,0,0,1-.132.008Zm3.952-9.642,22.957-2.989a1.007,1.007,0,1,1,.259,2L24.319,22.237a.974.974,0,0,1-.131.008,1.009,1.009,0,0,1-.129-2ZM21.016,36.869a1.009,1.009,0,0,1-.129-2l32.938-4.29a1.007,1.007,0,0,1,.26,2l-32.938,4.29A1,1,0,0,1,21.016,36.869Zm.91,6.987a1.009,1.009,0,0,1-.129-2l32.937-4.29a1.007,1.007,0,1,1,.26,2l-32.937,4.29a1,1,0,0,1-.132.008Zm11.022,5.678c-.179.014-9.949,1.313-10.113,1.308a1.009,1.009,0,0,1-.128-2l9.981-1.3a1.007,1.007,0,1,1,.259,2Z" transform="translate(-2.986 -2.097)"/>
      </g>
    </g>
  </g>
</svg>
