<svg xmlns="http://www.w3.org/2000/svg" xmlns:xlink="http://www.w3.org/1999/xlink" width="118" height="118" viewBox="0 0 118 118">
  <defs>
    <filter id="Trazado_982547" x="0" y="0" width="118" height="118" filterUnits="userSpaceOnUse">
      <feOffset dy="3" input="SourceAlpha"/>
      <feGaussianBlur stdDeviation="3" result="blur"/>
      <feFlood flood-opacity="0.161"/>
      <feComposite operator="in" in2="blur"/>
      <feComposite in="SourceGraphic"/>
    </filter>
  </defs>
  <g id="Grupo_1210833" data-name="Grupo 1210833" transform="translate(-270.125 -2920.179)">
    <g id="Grupo_1210298" data-name="Grupo 1210298" transform="translate(279.125 2926.179)">
      <g id="Grupo_1209802" data-name="Grupo 1209802" transform="translate(0 0)">
        <g id="Grupo_1209739" data-name="Grupo 1209739" transform="translate(0 0)">
          <g id="Grupo_1209277" data-name="Grupo 1209277">
            <g id="Grupo_1208028" data-name="Grupo 1208028">
              <g id="Grupo_1177675" data-name="Grupo 1177675">
                <g id="Grupo_1176928" data-name="Grupo 1176928">
                  <g id="Grupo_1172322" data-name="Grupo 1172322">
                    <g id="Grupo_1164700" data-name="Grupo 1164700">
                      <g id="Grupo_1160931" data-name="Grupo 1160931">
                        <g id="Grupo_1160749" data-name="Grupo 1160749">
                          <g id="Grupo_1158891" data-name="Grupo 1158891">
                            <g id="Grupo_1157406" data-name="Grupo 1157406">
                              <g id="Grupo_1155793" data-name="Grupo 1155793">
                                <g id="Grupo_1154704" data-name="Grupo 1154704">
                                  <g id="Grupo_1150790" data-name="Grupo 1150790">
                                    <g id="Grupo_1154214" data-name="Grupo 1154214">
                                      <g id="Grupo_1152583" data-name="Grupo 1152583">
                                        <g id="Grupo_1146973" data-name="Grupo 1146973">
                                          <g id="Grupo_1146954" data-name="Grupo 1146954">
                                            <g transform="matrix(1, 0, 0, 1, -9, -6)" filter="url(#Trazado_982547)">
                                              <g id="Trazado_982547-2" data-name="Trazado 982547" transform="translate(9 6)" fill="#fdf4ce">
                                                <path d="M 50.00000762939453 98.49985504150391 C 43.4518928527832 98.49985504150391 37.10043716430664 97.21774291992188 31.12207984924316 94.68910980224609 C 25.34692192077637 92.24642944335938 20.15996551513672 88.74918365478516 15.70533657073975 84.2945556640625 C 11.25069332122803 79.83992767333984 7.753450393676758 74.65298461914062 5.310764789581299 68.87783050537109 C 2.782136201858521 62.89948654174805 1.500007629394531 56.54804229736328 1.500007629394531 49.99992752075195 C 1.500007629394531 43.45181274414062 2.782136201858521 37.10036849975586 5.310764789581299 31.12202835083008 C 7.753450393676758 25.34687042236328 11.25069332122803 20.15992736816406 15.70533657073975 15.70529937744141 C 20.15996551513672 11.25067043304443 25.34692192077637 7.753427505493164 31.12207984924316 5.310741901397705 C 37.10043716430664 2.782113313674927 43.4518928527832 1.499998927116394 50.00000762939453 1.499998927116394 C 56.54812240600586 1.499998927116394 62.89957809448242 2.782113313674927 68.87793731689453 5.310741901397705 C 74.65310668945312 7.753427505493164 79.84004974365234 11.25067043304443 84.29469299316406 15.70529937744141 C 88.74932098388672 20.15992736816406 92.24656677246094 25.34687042236328 94.68924713134766 31.12202835083008 C 97.21788024902344 37.10036849975586 98.50000762939453 43.45181274414062 98.50000762939453 49.99992752075195 C 98.50000762939453 56.54804229736328 97.21788024902344 62.89948654174805 94.68924713134766 68.87783050537109 C 92.24656677246094 74.65298461914062 88.74932098388672 79.83992767333984 84.29469299316406 84.2945556640625 C 79.84004974365234 88.74918365478516 74.65310668945312 92.24642944335938 68.87793731689453 94.68910980224609 C 62.89957809448242 97.21774291992188 56.54812240600586 98.49985504150391 50.00000762939453 98.49985504150391 Z" stroke="none"/>
                                                <path d="M 50.00000762939453 3.000007629394531 C 43.65373229980469 3.000007629394531 37.49887084960938 4.242263793945312 31.70640563964844 6.692268371582031 C 26.11003875732422 9.059326171875 21.08335876464844 12.44860076904297 16.7659912109375 16.76596069335938 C 12.44862365722656 21.08332824707031 9.059333801269531 26.11000823974609 6.692268371582031 31.70635986328125 C 4.242271423339844 37.49880599975586 3.000007629394531 43.65365219116211 3.000007629394531 49.99992752075195 C 3.000007629394531 56.3462028503418 4.242271423339844 62.50104904174805 6.692268371582031 68.29349517822266 C 9.059333801269531 73.88984680175781 12.44862365722656 78.91652679443359 16.7659912109375 83.23389434814453 C 21.08335876464844 87.55125427246094 26.11003875732422 90.94052886962891 31.70640563964844 93.30758666992188 C 37.49887084960938 95.75759124755859 43.65373229980469 96.99984741210938 50.00000762939453 96.99984741210938 C 56.34628295898438 96.99984741210938 62.50114440917969 95.75759124755859 68.29360961914062 93.30758666992188 C 73.88997650146484 90.94052886962891 78.91665649414062 87.55125427246094 83.23402404785156 83.23389434814453 C 87.5513916015625 78.91652679443359 90.94068145751953 73.88984680175781 93.30774688720703 68.29349517822266 C 95.75774383544922 62.50104904174805 97.00000762939453 56.3462028503418 97.00000762939453 49.99992752075195 C 97.00000762939453 43.65365219116211 95.75774383544922 37.49880599975586 93.30774688720703 31.70635986328125 C 90.94068145751953 26.11000823974609 87.5513916015625 21.08332824707031 83.23402404785156 16.76596069335938 C 78.91665649414062 12.44860076904297 73.88997650146484 9.059326171875 68.29360961914062 6.692268371582031 C 62.50114440917969 4.242263793945312 56.34628295898438 3.000007629394531 50.00000762939453 3.000007629394531 M 50.00000762939453 7.62939453125e-06 C 77.61424255371094 7.62939453125e-06 100.0000076293945 22.38572692871094 100.0000076293945 49.99992752075195 C 100.0000076293945 77.61412811279297 77.61424255371094 99.99984741210938 50.00000762939453 99.99984741210938 C 22.38578033447266 99.99984741210938 7.62939453125e-06 77.61412811279297 7.62939453125e-06 49.99992752075195 C 7.62939453125e-06 22.38572692871094 22.38578033447266 7.62939453125e-06 50.00000762939453 7.62939453125e-06 Z" stroke="none" fill="#f6c810"/>
                                              </g>
                                            </g>
                                          </g>
                                        </g>
                                      </g>
                                    </g>
                                  </g>
                                </g>
                              </g>
                            </g>
                          </g>
                        </g>
                      </g>
                    </g>
                  </g>
                </g>
              </g>
            </g>
          </g>
        </g>
      </g>
    </g>
    <g id="task_2980041" transform="translate(293.386 2945.876)">
      <g id="Grupo_1210831" data-name="Grupo 1210831" transform="translate(3.069 2.069)">
        <g id="Grupo_1210819" data-name="Grupo 1210819" transform="translate(33.149)">
          <path id="Trazado_1051283" data-name="Trazado 1051283" d="M63.941,2v8.555H34V2Z" transform="translate(-34 -2)" fill="#5cd6b3"/>
        </g>
        <g id="Grupo_1210820" data-name="Grupo 1210820" transform="translate(33.149 8.555)">
          <path id="Trazado_1051284" data-name="Trazado 1051284" d="M63.941,10V29.248H34V10Z" transform="translate(-34 -10)" fill="#e6e9ed"/>
        </g>
        <g id="Grupo_1210821" data-name="Grupo 1210821" transform="translate(48.119 12.832)">
          <path id="Trazado_1051285" data-name="Trazado 1051285" d="M48,14H58.693v6.416H48Z" transform="translate(-48 -14)" fill="#69d6f4"/>
        </g>
        <g id="Grupo_1210822" data-name="Grupo 1210822" transform="translate(36.357 34.218)">
          <path id="Trazado_1051286" data-name="Trazado 1051286" d="M60.525,43.806v3.914l-3.411.855a7.707,7.707,0,0,1-.46,1.1l1.807,3.015-2.77,2.77-3.015-1.807a7.707,7.707,0,0,1-1.1.46l-.855,3.411H46.806l-.855-3.411a7.706,7.706,0,0,1-1.1-.46l-3.015,1.807-2.77-2.77,1.807-3.015a7.707,7.707,0,0,1-.46-1.1L37,47.719V43.806l3.411-.855a7.706,7.706,0,0,1,.46-1.1l-1.807-3.015,2.77-2.77,3.015,1.807a7.707,7.707,0,0,1,1.1-.46L46.806,34h3.914l.855,3.411a7.707,7.707,0,0,1,1.1.46l3.015-1.807,2.77,2.77-1.807,3.015a7.707,7.707,0,0,1,.46,1.1ZM53.66,45.762a4.9,4.9,0,1,0-4.9,4.9A4.9,4.9,0,0,0,53.66,45.762Z" transform="translate(-37 -34)" fill="#fcd770"/>
        </g>
        <g id="Grupo_1210823" data-name="Grupo 1210823" transform="translate(37.426 12.832)">
          <path id="Trazado_1051287" data-name="Trazado 1051287" d="M38,14h6.416v6.416H38Z" transform="translate(-38 -14)" fill="#fcd770"/>
        </g>
        <g id="Grupo_1210824" data-name="Grupo 1210824" transform="translate(0 32.079)">
          <path id="Trazado_1051288" data-name="Trazado 1051288" d="M24.386,44.832H3C3,34.139,13.693,32,13.693,32a6.036,6.036,0,0,0,6.416,0S30.8,34.139,30.8,44.832Z" transform="translate(-3 -32)" fill="#ff826e"/>
        </g>
        <g id="Grupo_1210825" data-name="Grupo 1210825" transform="translate(0.664 1.069)">
          <path id="Trazado_1051289" data-name="Trazado 1051289" d="M20.376,13.479l-.31.214c-4.684,2.01-6.437.246-7.09-1.347l-.4.278C8.3,12.624,8.3,15.832,8.3,15.832V16.9A3.5,3.5,0,0,0,5.6,18.259l-.5-.289L4.026,16.9a1.613,1.613,0,0,1,0-2.139l2.139-3.208L5.1,8.347A2.228,2.228,0,0,1,6.165,6.208l5.347-1.069V4.069A1.072,1.072,0,0,1,12.581,3h7.485a1.072,1.072,0,0,1,1.069,1.069V5.139l7.485,3.208c.652.246,1.283.417,1.069,1.069l-1.069,2.139,1.069,2.139s1.027,2.042-1.935,4.138a3.7,3.7,0,0,0-2.342-.93V13.693c-2.577.855-4.117.513-5.036-.214Z" transform="translate(-3.621 -3)" fill="#656d78"/>
        </g>
        <g id="Grupo_1210826" data-name="Grupo 1210826" transform="translate(22.456 14.97)">
          <path id="Trazado_1051290" data-name="Trazado 1051290" d="M26.342,16.93a2.979,2.979,0,0,1,.866,2.278A3.142,3.142,0,0,1,24,22.416V16A3.7,3.7,0,0,1,26.342,16.93Z" transform="translate(-24 -16)" fill="#f0d0b4"/>
        </g>
        <g id="Grupo_1210827" data-name="Grupo 1210827" transform="translate(5.347 10.415)">
          <path id="Trazado_1051291" data-name="Trazado 1051291" d="M25.109,22.711V24.85a7.1,7.1,0,0,1-5.443,4.983,12.622,12.622,0,0,1-3.112.364,12.622,12.622,0,0,1-3.112-.364A7.1,7.1,0,0,1,8,24.85V15.226s0-3.208,4.277-3.208l.4-.278c.652,1.593,2.406,3.358,7.09,1.347l.31-.214c.92.727,2.459,1.069,5.036.214v9.624Z" transform="translate(-8 -11.74)" fill="#f0d0b4"/>
        </g>
        <g id="Grupo_1210828" data-name="Grupo 1210828" transform="translate(10.693 28.508)">
          <path id="Trazado_1051292" data-name="Trazado 1051292" d="M19.416,29.024v3.208a6.036,6.036,0,0,1-6.416,0V29.024l.1-.364a12.622,12.622,0,0,0,3.112.364,12.622,12.622,0,0,0,3.112-.364Z" transform="translate(-13 -28.66)" fill="#f0d0b4"/>
        </g>
        <g id="Grupo_1210830" data-name="Grupo 1210830" transform="translate(2.139 14.97)">
          <path id="Trazado_1051294" data-name="Trazado 1051294" d="M8.208,16v6.416A3.142,3.142,0,0,1,5,19.208a3.25,3.25,0,0,1,.5-1.85A3.5,3.5,0,0,1,8.208,16Z" transform="translate(-5 -16)" fill="#f0d0b4"/>
        </g>
      </g>
      <g id="Grupo_1210832" data-name="Grupo 1210832" transform="translate(2 1)">
        <path id="Trazado_1051295" data-name="Trazado 1051295" d="M42.417,45.387a5.97,5.97,0,1,0,5.97-5.97A5.977,5.977,0,0,0,42.417,45.387Zm5.97-3.831a3.831,3.831,0,1,1-3.831,3.831A3.835,3.835,0,0,1,48.387,41.556Z" transform="translate(0.802 1.663)"/>
        <path id="Trazado_1051296" data-name="Trazado 1051296" d="M66.64,30.941V1H34.561V30.941h14.97v4.277H47.806l-.919,3.671-.139.058L43.5,37l-3.952,3.953L41.5,44.2c-.02.046-.038.092-.058.138l-3.672.919v5.591l3.672.917c.019.046.037.092.058.138l-1.946,3.245L43.5,59.1l3.244-1.947.139.058.919,3.671h1.725v1.069a3.212,3.212,0,0,1-3.208,3.208H20.66a3.212,3.212,0,0,1-3.208-3.208v-8.8l3.727,2.236,1.1-1.834-5.9-3.537-5.9,3.538,1.1,1.834,3.728-2.237v8.8A5.353,5.353,0,0,0,20.66,67.3H46.323a5.353,5.353,0,0,0,5.347-5.347V60.882h1.725l.919-3.671.139-.058L57.7,59.1l3.952-3.953L59.7,51.9c.02-.046.038-.092.058-.138l3.672-.919V45.254l-3.672-.917c-.019-.046-.037-.092-.058-.138l1.946-3.245L57.7,37l-3.244,1.947-.139-.058-.919-3.671H51.67V30.941ZM52.517,40.52l.555.187a7.749,7.749,0,0,1,.971.4l.524.261,2.8-1.68,1.592,1.592-1.679,2.8.259.524a8,8,0,0,1,.406.972l.186.554,3.164.791v2.251l-3.164.791-.186.554a8,8,0,0,1-.406.972l-.259.524,1.679,2.8-1.592,1.592-2.8-1.68-.524.261a7.749,7.749,0,0,1-.971.4l-.555.187-.79,3.164H49.475l-.79-3.163-.555-.187a7.75,7.75,0,0,1-.971-.4l-.524-.261-2.8,1.68-1.592-1.592,1.679-2.8-.259-.524a8,8,0,0,1-.406-.972l-.186-.554-3.165-.791V46.925l3.164-.791.186-.554a8,8,0,0,1,.406-.972l.259-.524-1.679-2.8,1.592-1.592,2.8,1.68.524-.261a7.749,7.749,0,0,1,.971-.4l.555-.187.79-3.164h2.251ZM64.5,3.139V9.555H36.7V3.139ZM36.7,11.693H64.5V28.8H36.7Z" transform="translate(-1.412 -1)"/>
        <circle id="Elipse_12832" data-name="Elipse 12832" cx="1.5" cy="1.5" r="1.5" transform="translate(37.122 4.124)"/>
        <circle id="Elipse_12833" data-name="Elipse 12833" cx="1.5" cy="1.5" r="1.5" transform="translate(41.122 4.124)"/>
        <circle id="Elipse_12834" data-name="Elipse 12834" cx="1.5" cy="1.5" r="1.5" transform="translate(45.122 4.124)"/>
        <path id="Trazado_1051297" data-name="Trazado 1051297" d="M37,21.555h8.555V13H37Zm2.139-6.416h4.277v4.277H39.139Z" transform="translate(0.426 -0.168)"/>
        <path id="Trazado_1051298" data-name="Trazado 1051298" d="M47,21.555H59.832V13H47Zm2.139-6.416h8.555v4.277H49.139Z" transform="translate(1.119 -0.168)"/>
        <path id="Trazado_1051299" data-name="Trazado 1051299" d="M37,23h8.555v2.139H37Z" transform="translate(0.426 0.525)"/>
        <path id="Trazado_1051300" data-name="Trazado 1051300" d="M47,23H59.832v2.139H47Z" transform="translate(1.119 0.525)"/>
        <path id="Trazado_1051301" data-name="Trazado 1051301" d="M31.941,46.911c0-9.575-8.015-12.83-10.693-13.65V31.25a8.2,8.2,0,0,0,5.325-5.516l0-1.424A4.032,4.032,0,0,0,29.8,20.178a4.4,4.4,0,0,0-.484-2.082c2.6-2.375,1.495-4.7,1.44-4.812l-.83-1.661.83-1.661.059-.141c.527-1.588-1.045-2.164-1.561-2.354L22.317,4.5V4.139A2.141,2.141,0,0,0,20.178,2H12.693a2.141,2.141,0,0,0-2.139,2.139v.192l-4.487.9-.128.034A3.233,3.233,0,0,0,4.194,8.755l.9,2.712L3.283,14.19a2.654,2.654,0,0,0,.1,3.536l1,1a4.658,4.658,0,0,0-.241,1.455,4.03,4.03,0,0,0,3.208,4.128v1.219l.021.21a8.2,8.2,0,0,0,5.325,5.516v2.011C10.015,34.082,2,37.337,2,46.911v1.069H31.941ZM26.579,22.074l.005-3.793a1.9,1.9,0,0,1,1.079,1.9,1.892,1.892,0,0,1-1.084,1.9Zm-20.3-1.9A1.893,1.893,0,0,1,7.347,18.29v3.781a1.9,1.9,0,0,1-1.069-1.893ZM7.347,15.9v.15a4.459,4.459,0,0,0-1.759.857l-.693-.693c-.205-.206-.025-.575.134-.789l2.428-3.643L6.248,8.176A1.679,1.679,0,0,1,6.6,7.3l3.951-.79v.834h2.139V4.139h7.485V5.913l8.178,3.5.164.06L28.6,9.5l-1.059,2.119,1.3,2.59c.051.122.4,1.1-.994,2.346a4.643,4.643,0,0,0-1.25-.511l.005-3.769-1.407.468c-1.237.413-2.929.752-3.967.016a3.043,3.043,0,0,1-1.042-2.216l-1.069.006H18.04a5.786,5.786,0,0,0,.734,2.6c-1.652.559-2.946.583-3.769.045a3.531,3.531,0,0,1-1.241-2.649l-1.069.005H11.624a6.117,6.117,0,0,0,.134,1.125C8.3,12.062,7.347,14.539,7.347,15.9Zm2.139,9.5V15.9c0-.087.041-2.1,3.121-2.135a4.327,4.327,0,0,0,1.212,1.213,4.8,4.8,0,0,0,2.7.752,10.48,10.48,0,0,0,3.98-.945,5.867,5.867,0,0,0,3.959.374V25.4C24.278,26.049,23,29.8,16.97,29.8,10.929,29.8,9.655,26.03,9.485,25.4Zm7.485,6.542a14.287,14.287,0,0,0,2.139-.168v1.7a4.843,4.843,0,0,1-4.277-.025V31.773A14.287,14.287,0,0,0,16.97,31.941Zm8.555,13.9V40.5H23.386v5.347H10.555V40.5H8.416v5.347H4.178c.6-7.868,7.713-10.18,9.424-10.625a7.659,7.659,0,0,0,3.493.889,6.517,6.517,0,0,0,3.239-.891c1.7.433,8.833,2.716,9.428,10.627Z" transform="translate(-2 -0.931)"/>
      </g>
    </g>
  </g>
</svg>
