<svg xmlns="http://www.w3.org/2000/svg" xmlns:xlink="http://www.w3.org/1999/xlink" width="118" height="118" viewBox="0 0 118 118">
  <defs>
    <filter id="Trazado_982547" x="0" y="0" width="118" height="118" filterUnits="userSpaceOnUse">
      <feOffset dy="3" input="SourceAlpha"/>
      <feGaussianBlur stdDeviation="3" result="blur"/>
      <feFlood flood-opacity="0.161"/>
      <feComposite operator="in" in2="blur"/>
      <feComposite in="SourceGraphic"/>
    </filter>
    <clipPath id="clip-path">
      <path id="path12568" d="M0-682.665H61.941v61.941H0Z" transform="translate(0 682.665)"/>
    </clipPath>
  </defs>
  <g id="Grupo_1210882" data-name="Grupo 1210882" transform="translate(-585 -3558.228)">
    <g id="Grupo_1210688" data-name="Grupo 1210688" transform="translate(594 3564.228)">
      <g id="Grupo_1209802" data-name="Grupo 1209802" transform="translate(0 0)">
        <g id="Grupo_1209739" data-name="Grupo 1209739" transform="translate(0 0)">
          <g id="Grupo_1209277" data-name="Grupo 1209277">
            <g id="Grupo_1208028" data-name="Grupo 1208028">
              <g id="Grupo_1177675" data-name="Grupo 1177675">
                <g id="Grupo_1176928" data-name="Grupo 1176928">
                  <g id="Grupo_1172322" data-name="Grupo 1172322">
                    <g id="Grupo_1164700" data-name="Grupo 1164700">
                      <g id="Grupo_1160931" data-name="Grupo 1160931">
                        <g id="Grupo_1160749" data-name="Grupo 1160749">
                          <g id="Grupo_1158891" data-name="Grupo 1158891">
                            <g id="Grupo_1157406" data-name="Grupo 1157406">
                              <g id="Grupo_1155793" data-name="Grupo 1155793">
                                <g id="Grupo_1154704" data-name="Grupo 1154704">
                                  <g id="Grupo_1150790" data-name="Grupo 1150790">
                                    <g id="Grupo_1154214" data-name="Grupo 1154214">
                                      <g id="Grupo_1152583" data-name="Grupo 1152583">
                                        <g id="Grupo_1146973" data-name="Grupo 1146973">
                                          <g id="Grupo_1146954" data-name="Grupo 1146954">
                                            <g transform="matrix(1, 0, 0, 1, -9, -6)" filter="url(#Trazado_982547)">
                                              <g id="Trazado_982547-2" data-name="Trazado 982547" transform="translate(9 6)" fill="#fdf4ce">
                                                <path d="M 50.00000762939453 98.49985504150391 C 43.4518928527832 98.49985504150391 37.10043716430664 97.21774291992188 31.12207984924316 94.68910980224609 C 25.34692192077637 92.24642944335938 20.15996551513672 88.74918365478516 15.70533657073975 84.2945556640625 C 11.25069332122803 79.83992767333984 7.753450393676758 74.65298461914062 5.310764789581299 68.87783050537109 C 2.782136201858521 62.89948654174805 1.500007629394531 56.54804229736328 1.500007629394531 49.99992752075195 C 1.500007629394531 43.45181274414062 2.782136201858521 37.10036849975586 5.310764789581299 31.12202835083008 C 7.753450393676758 25.34687042236328 11.25069332122803 20.15992736816406 15.70533657073975 15.70529937744141 C 20.15996551513672 11.25067043304443 25.34692192077637 7.753427505493164 31.12207984924316 5.310741901397705 C 37.10043716430664 2.782113313674927 43.4518928527832 1.499998927116394 50.00000762939453 1.499998927116394 C 56.54812240600586 1.499998927116394 62.89957809448242 2.782113313674927 68.87793731689453 5.310741901397705 C 74.65310668945312 7.753427505493164 79.84004974365234 11.25067043304443 84.29469299316406 15.70529937744141 C 88.74932098388672 20.15992736816406 92.24656677246094 25.34687042236328 94.68924713134766 31.12202835083008 C 97.21788024902344 37.10036849975586 98.50000762939453 43.45181274414062 98.50000762939453 49.99992752075195 C 98.50000762939453 56.54804229736328 97.21788024902344 62.89948654174805 94.68924713134766 68.87783050537109 C 92.24656677246094 74.65298461914062 88.74932098388672 79.83992767333984 84.29469299316406 84.2945556640625 C 79.84004974365234 88.74918365478516 74.65310668945312 92.24642944335938 68.87793731689453 94.68910980224609 C 62.89957809448242 97.21774291992188 56.54812240600586 98.49985504150391 50.00000762939453 98.49985504150391 Z" stroke="none"/>
                                                <path d="M 50.00000762939453 3.000007629394531 C 43.65373229980469 3.000007629394531 37.49887084960938 4.242263793945312 31.70640563964844 6.692268371582031 C 26.11003875732422 9.059326171875 21.08335876464844 12.44860076904297 16.7659912109375 16.76596069335938 C 12.44862365722656 21.08332824707031 9.059333801269531 26.11000823974609 6.692268371582031 31.70635986328125 C 4.242271423339844 37.49880599975586 3.000007629394531 43.65365219116211 3.000007629394531 49.99992752075195 C 3.000007629394531 56.3462028503418 4.242271423339844 62.50104904174805 6.692268371582031 68.29349517822266 C 9.059333801269531 73.88984680175781 12.44862365722656 78.91652679443359 16.7659912109375 83.23389434814453 C 21.08335876464844 87.55125427246094 26.11003875732422 90.94052886962891 31.70640563964844 93.30758666992188 C 37.49887084960938 95.75759124755859 43.65373229980469 96.99984741210938 50.00000762939453 96.99984741210938 C 56.34628295898438 96.99984741210938 62.50114440917969 95.75759124755859 68.29360961914062 93.30758666992188 C 73.88997650146484 90.94052886962891 78.91665649414062 87.55125427246094 83.23402404785156 83.23389434814453 C 87.5513916015625 78.91652679443359 90.94068145751953 73.88984680175781 93.30774688720703 68.29349517822266 C 95.75774383544922 62.50104904174805 97.00000762939453 56.3462028503418 97.00000762939453 49.99992752075195 C 97.00000762939453 43.65365219116211 95.75774383544922 37.49880599975586 93.30774688720703 31.70635986328125 C 90.94068145751953 26.11000823974609 87.5513916015625 21.08332824707031 83.23402404785156 16.76596069335938 C 78.91665649414062 12.44860076904297 73.88997650146484 9.059326171875 68.29360961914062 6.692268371582031 C 62.50114440917969 4.242263793945312 56.34628295898438 3.000007629394531 50.00000762939453 3.000007629394531 M 50.00000762939453 7.62939453125e-06 C 77.61424255371094 7.62939453125e-06 100.0000076293945 22.38572692871094 100.0000076293945 49.99992752075195 C 100.0000076293945 77.61412811279297 77.61424255371094 99.99984741210938 50.00000762939453 99.99984741210938 C 22.38578033447266 99.99984741210938 7.62939453125e-06 77.61412811279297 7.62939453125e-06 49.99992752075195 C 7.62939453125e-06 22.38572692871094 22.38578033447266 7.62939453125e-06 50.00000762939453 7.62939453125e-06 Z" stroke="none" fill="#f6c810"/>
                                              </g>
                                            </g>
                                          </g>
                                        </g>
                                      </g>
                                    </g>
                                  </g>
                                </g>
                              </g>
                            </g>
                          </g>
                        </g>
                      </g>
                    </g>
                  </g>
                </g>
              </g>
            </g>
          </g>
        </g>
      </g>
    </g>
    <g id="g12558" transform="translate(613.268 4265.922)">
      <g id="g12560" transform="translate(0.907 -671.233)">
        <path id="path12562" d="M-590.415-430.385l-1.21-42.947-31.938,1.21-25.768,8.589v8.589l1.21,4.578-1.21,4.012v14.759Z" transform="translate(649.332 473.332)" fill="#faf8f8"/>
      </g>
      <g id="g12564" transform="translate(0 -682.665)">
        <g id="g12566" clip-path="url(#clip-path)">
          <g id="g12572" transform="translate(0.907 11.432)">
            <path id="path12574" d="M-578.292,0V35.568l-14.759,6.17H-636v.6a1.815,1.815,0,0,0,1.815,1.815h41.132l17.179-8.589V18.389l-1.21-4.295,1.21-4.295V1.21Z" transform="translate(635.998)" fill="#e1dee2"/>
          </g>
          <g id="g12576" transform="translate(43.854 47)">
            <path id="path12578" d="M0-61.83l15.969,1.21L14.759-68H0Z" transform="translate(0 68)" fill="#e1dee2"/>
          </g>
          <g id="g12580" transform="translate(43.854 47)">
            <path id="path12582" d="M-147.908,0V5.263a.907.907,0,0,1-.907.907h-13.852v2.42H-147.3a1.815,1.815,0,0,0,1.815-1.815V0Z" transform="translate(162.668)" fill="#c5bec6"/>
          </g>
          <g id="g12584" transform="translate(0.907 11.432)">
            <path id="path12586" d="M0-98.2H25.768v-8.589L12.884-108,0-106.79Z" transform="translate(0 108)" fill="#e1dee2"/>
          </g>
          <g id="g12588" transform="translate(0.907 21.232)">
            <path id="path12590" d="M-516.461-172.154H-568v-8.589h17.179v-8.589h40.528l1.21,4.295-1.21,4.295h-6.17Z" transform="translate(567.997 189.333)" fill="#fff0af"/>
          </g>
          <path id="path12592" d="M648.418-440.076H646v-8.589h2.419Z" transform="translate(-587.385 469.897)" fill="#ffd064"/>
          <g id="g12594" transform="translate(41.931 28.611)">
            <path id="path12596" d="M-106.22-98.2l-1.21-9.8h-5.953a1.815,1.815,0,0,0-1.661,1.084l-1.622,3.69a1.815,1.815,0,0,0,0,1.46l1.035,2.355Z" transform="translate(116.819 108)" fill="#ffc250"/>
          </g>
          <g id="g12598" transform="translate(43.12 28.611)">
            <path id="path12600" d="M-88.248,0h-.6V7.682a.907.907,0,0,1-.907.907h-7.294l.587,1.335a1.815,1.815,0,0,0,1.661,1.084h6.558a1.815,1.815,0,0,0,1.815-1.815V1.815A1.815,1.815,0,0,0-88.248,0" transform="translate(97.054)" fill="#e3a93f"/>
          </g>
          <g id="g12602" transform="translate(0.907 6.351)">
            <path id="path12604" d="M0-18.185v2.057l58.916,1.21L57.706-20H1.815A1.815,1.815,0,0,0,0-18.185" transform="translate(0 20)" fill="#e592b8"/>
          </g>
          <g id="g12606" transform="translate(0.907 6.351)">
            <path id="path12608" d="M-584.354,0h-.6V2.964a.907.907,0,0,1-.907.907h-56.8v2.42h60.126V1.815A1.815,1.815,0,0,0-584.354,0" transform="translate(642.665)" fill="#de5ca3"/>
          </g>
          <g id="g12610" transform="translate(39.399 25.366)">
            <path id="path12612" d="M-163.4-75.713a9.592,9.592,0,0,0-2.6-6.016,8.707,8.707,0,0,0-4.955-1.539,8.75,8.75,0,0,0-8.75,8.75,8.708,8.708,0,0,0,1.539,4.955,9.8,9.8,0,0,0,6.016,2.6,8.75,8.75,0,0,0,8.75-8.75" transform="translate(179.701 83.268)" fill="#e592b8"/>
          </g>
          <g id="g12614" transform="translate(40.938 26.905)">
            <path id="path12616" d="M-121.914,0a8.707,8.707,0,0,1,1.539,4.955,8.75,8.75,0,0,1-8.75,8.75,8.707,8.707,0,0,1-4.955-1.539,8.739,8.739,0,0,0,7.211,3.8,8.75,8.75,0,0,0,8.75-8.75A8.739,8.739,0,0,0-121.914,0" transform="translate(134.08)" fill="#de5ca3"/>
          </g>
          <g id="g12618" transform="translate(0.907 6.351)">
            <path id="path12620" d="M0-198.826v-18.026a1.815,1.815,0,0,1,1.815-1.815H43.483" transform="translate(0 218.666)" fill="none" stroke="#000" stroke-linecap="round" stroke-linejoin="round" stroke-miterlimit="10" stroke-width="1.5"/>
          </g>
          <g id="g12622" transform="translate(9.497 12.763)">
            <path id="path12624" d="M0,0V42.705" fill="none" stroke="#000" stroke-linecap="round" stroke-linejoin="round" stroke-miterlimit="10" stroke-width="1.5"/>
          </g>
          <g id="g12626" transform="translate(18.086 12.763)">
            <path id="path12628" d="M0,0V42.705" fill="none" stroke="#000" stroke-linecap="round" stroke-linejoin="round" stroke-miterlimit="10" stroke-width="1.5"/>
          </g>
          <g id="g12630" transform="translate(26.676 12.763)">
            <path id="path12632" d="M0,0V42.705" fill="none" stroke="#000" stroke-linecap="round" stroke-linejoin="round" stroke-miterlimit="10" stroke-width="1.5"/>
          </g>
          <g id="g12634" transform="translate(35.265 12.763)">
            <path id="path12636" d="M0,0V42.705" fill="none" stroke="#000" stroke-linecap="round" stroke-linejoin="round" stroke-miterlimit="10" stroke-width="1.5"/>
          </g>
          <g id="g12638" transform="translate(43.854 41.741)">
            <path id="path12640" d="M0,0V13.728" fill="none" stroke="#000" stroke-linecap="round" stroke-linejoin="round" stroke-miterlimit="10" stroke-width="1.5"/>
          </g>
          <g id="g12642" transform="translate(43.854 12.763)">
            <path id="path12644" d="M0,0V13.728" fill="none" stroke="#000" stroke-linecap="round" stroke-linejoin="round" stroke-miterlimit="10" stroke-width="1.5"/>
          </g>
          <g id="g12646" transform="translate(52.444 41.74)">
            <path id="path12648" d="M0,0V13.728" fill="none" stroke="#000" stroke-linecap="round" stroke-linejoin="round" stroke-miterlimit="10" stroke-width="1.5"/>
          </g>
          <g id="g12650" transform="translate(52.444 12.763)">
            <path id="path12652" d="M0,0V13.728" fill="none" stroke="#000" stroke-linecap="round" stroke-linejoin="round" stroke-miterlimit="10" stroke-width="1.5"/>
          </g>
          <g id="g12654" transform="translate(1.028 47)">
            <path id="path12656" d="M0,0H59.884" fill="none" stroke="#000" stroke-linecap="round" stroke-linejoin="round" stroke-miterlimit="10" stroke-width="1.5"/>
          </g>
          <g id="g12658" transform="translate(55.774 38.411)">
            <path id="path12660" d="M0,0H5.139" fill="none" stroke="#000" stroke-linecap="round" stroke-linejoin="round" stroke-miterlimit="10" stroke-width="1.5"/>
          </g>
          <g id="g12662" transform="translate(0.907 29.821)">
            <path id="path12664" d="M-397.011-86.077h-39.617v-8.589h39.617" transform="translate(436.628 94.666)" fill="none" stroke="#000" stroke-linecap="round" stroke-linejoin="round" stroke-miterlimit="10" stroke-width="1.5"/>
          </g>
          <g id="g12666" transform="translate(0.907 42.04)">
            <path id="path12668" d="M-277.629-135.783h-25.889a1.815,1.815,0,0,1-1.815-1.815v-11.735" transform="translate(305.333 149.333)" fill="none" stroke="#000" stroke-linecap="round" stroke-linejoin="round" stroke-miterlimit="10" stroke-width="1.5"/>
          </g>
          <g id="g12670" transform="translate(32.241 33.45)">
            <path id="path12672" d="M-288.54,0V20.324a1.815,1.815,0,0,1-1.815,1.815h-26.978" transform="translate(317.333)" fill="none" stroke="#000" stroke-linecap="round" stroke-linejoin="round" stroke-miterlimit="10" stroke-width="1.5"/>
          </g>
          <g id="g12674" transform="translate(48.02 6.351)">
            <path id="path12676" d="M0,0H11.2a1.815,1.815,0,0,1,1.815,1.815v9.436" fill="none" stroke="#000" stroke-linecap="round" stroke-linejoin="round" stroke-miterlimit="10" stroke-width="1.5"/>
          </g>
          <g id="g12678" transform="translate(1.028 21.232)">
            <path id="path12680" d="M0,0H60.005V8.589h-5.26" fill="none" stroke="#000" stroke-linecap="round" stroke-linejoin="round" stroke-miterlimit="10" stroke-width="1.5"/>
          </g>
          <g id="g12682" transform="translate(1.028 12.642)">
            <path id="path12684" d="M0,0H59.884" fill="none" stroke="#000" stroke-linecap="round" stroke-linejoin="round" stroke-miterlimit="10" stroke-width="1.5"/>
          </g>
          <g id="g12686" transform="translate(39.399 25.366)">
            <path id="path12688" d="M-175.368-87.683a8.75,8.75,0,0,1-8.75,8.75,8.75,8.75,0,0,1-8.75-8.75,8.75,8.75,0,0,1,8.75-8.75A8.75,8.75,0,0,1-175.368-87.683Z" transform="translate(192.868 96.433)" fill="none" stroke="#000" stroke-linecap="round" stroke-linejoin="round" stroke-miterlimit="10" stroke-width="1.5"/>
          </g>
          <g id="g12690" transform="translate(48.149 30.205)">
            <path id="path12692" d="M0,0V4.192" fill="none" stroke="#000" stroke-linecap="round" stroke-linejoin="round" stroke-miterlimit="10" stroke-width="1.5"/>
          </g>
          <g id="g12694" transform="translate(48.089 37.966)">
            <path id="path12696" d="M-1.212-.606a.061.061,0,0,1-.06.06.061.061,0,0,1-.06-.06.061.061,0,0,1,.06-.06A.061.061,0,0,1-1.212-.606Z" transform="translate(1.333 0.667)" fill="none" stroke="#000" stroke-linecap="round" stroke-linejoin="round" stroke-miterlimit="10" stroke-width="1.5"/>
          </g>
          <g id="g12698" transform="translate(30.179 32.659)">
            <path id="path12700" d="M0,0,1.457,1.457,0,2.914" fill="none" stroke="#000" stroke-linecap="round" stroke-linejoin="round" stroke-miterlimit="10" stroke-width="1.5"/>
          </g>
          <g id="g12702" transform="translate(5.984 34.116)">
            <path id="path12704" d="M-257.059,0H-282.71" transform="translate(282.71)" fill="none" stroke="#000" stroke-linecap="round" stroke-linejoin="round" stroke-miterlimit="10" stroke-width="1.5"/>
          </g>
        </g>
      </g>
    </g>
  </g>
</svg>
